<svg id="Camada_x0020_1" xmlns="http://www.w3.org/2000/svg" width="40" height="27.201" viewBox="0 0 40 27.201">
  <g id="_2404780901584">
    <path id="Caminho_41" data-name="Caminho 41" d="M24.883,28.037c-.136-1.254.339-2.425.053-3.573-.077-.315-.019-.731.237-.847,1.113-.513,1.365-1.06,2.106-1.138.741.111.847.6,2.115,1.138.257.111.3.532.237.847-.31,1.515.2,2.6.053,3.573L29.5,29.252c-.208,1.409-.431,3.03-1.05,3.829a1.566,1.566,0,0,1-1.171.421,1.583,1.583,0,0,1-1.167-.45A8.836,8.836,0,0,1,25,29.165Z" transform="translate(-12.825 -11.598)" fill="#0a7cb7" fill-rule="evenodd"/>
    <path id="Caminho_42" data-name="Caminho 42" d="M47.229,0A3.207,3.207,0,1,1,44.02,3.209,3.211,3.211,0,0,1,47.229,0Z" transform="translate(-22.711)" fill="#0a7cb7" fill-rule="evenodd"/>
    <path id="Caminho_43" data-name="Caminho 43" d="M67.3,35.867l5.843-5.838L70.088,26.97,64.25,32.813Z" transform="translate(-33.147 -13.914)" fill="#0a7cb7" fill-rule="evenodd"/>
    <path id="Caminho_44" data-name="Caminho 44" d="M40.289,15.03a3.412,3.412,0,0,1,2.222.7c1.1.707,6.419,5.519,7.581,6.637,1.588,1.525-.218,3.321-2.149,1.893s-1.956-1.438-3.3-2.522l1.37,8.133H42.729v2.638a2.449,2.449,0,1,1-4.9,0V29.867H34.557l1.05-6.245a24.558,24.558,0,0,1-3.18.286c-1.83.029-2.909-1.83-.431-2.638,1.007-.329,2.89-.474,3.544-1.06C36.557,19.3,36.407,15.03,40.289,15.03Z" transform="translate(-15.76 -7.754)" fill="#0a7cb7" fill-rule="evenodd"/>
    <path id="Caminho_45" data-name="Caminho 45" d="M3.819,15.03a3.984,3.984,0,0,1,3.34,1.646c1.719,2.086,2.546,3.824,5.427,4.575,2.716.7,1.7,4.391-3.945,1.481l.015,3.979H6.777v5.795a2.452,2.452,0,0,1-4.9,0V26.711H0V18.235H0C0,16.463,1.709,15.03,3.819,15.03Z" transform="translate(0 -7.754)" fill="#0a7cb7" fill-rule="evenodd"/>
    <path id="Caminho_46" data-name="Caminho 46" d="M4.475,0a3.207,3.207,0,1,1-3.2,3.209A3.211,3.211,0,0,1,4.475,0Z" transform="translate(-0.655)" fill="#0a7cb7" fill-rule="evenodd"/>
  </g>
</svg>
