<svg id="Camada_x0020_1" xmlns="http://www.w3.org/2000/svg" width="30" height="30" viewBox="0 0 30 30">
  <path id="Caminho_70" data-name="Caminho 70" d="M15,0A15,15,0,1,1,0,15,15,15,0,0,1,15,0Zm9.006,5.991A12.747,12.747,0,1,0,27.738,15a12.723,12.723,0,0,0-3.729-9.012Z" transform="translate(0 0)" fill="#0a7cb7" fill-rule="evenodd"/>
  <path id="Caminho_71" data-name="Caminho 71" d="M21.021,29.984a1.131,1.131,0,1,0-1.131-1.131A1.133,1.133,0,0,0,21.021,29.984Zm0-20.834A6.971,6.971,0,0,1,22.152,23v2.347a.9.9,0,0,1-.9.9h-.468a.9.9,0,0,1-.9-.9V21.726a.9.9,0,0,1,.9-.9h.234a4.71,4.71,0,1,0-4.649-5.465.9.9,0,0,1-.891.754h-.468a.859.859,0,0,1-.68-.308.872.872,0,0,1-.211-.72,6.971,6.971,0,0,1,6.9-5.939Z" transform="translate(-6.052 -3.924)" fill="#0a7cb7" fill-rule="evenodd"/>
</svg>