<svg id="Camada_x0020_1" xmlns="http://www.w3.org/2000/svg" width="30" height="30" viewBox="0 0 30 30">
  <path id="Caminho_53" data-name="Caminho 53" d="M15,0A15,15,0,1,1,0,15,15,15,0,0,1,15,0Zm9.006,5.991A12.747,12.747,0,1,0,27.738,15a12.723,12.723,0,0,0-3.729-9.012Z" transform="translate(0 0)" fill="#0a7cb7" fill-rule="evenodd"/>
  <path id="Caminho_54" data-name="Caminho 54" d="M21.033,14.06a6.97,6.97,0,1,1-6.973,6.973A6.967,6.967,0,0,1,21.033,14.06Zm3.33,3.638a4.722,4.722,0,1,0,1.376,3.335A4.7,4.7,0,0,0,24.363,17.7Z" transform="translate(-6.03 -6.03)" fill="#0a7cb7" fill-rule="evenodd"/>
  <path id="Caminho_55" data-name="Caminho 55" d="M8.739,7.4l6.037,6.031-1.6,1.6L7.14,9Z" transform="translate(-3.062 -3.174)" fill="#0a7cb7"/>
  <path id="Caminho_56" data-name="Caminho 56" d="M7.14,38.307l6.037-6.037,1.6,1.6L8.739,39.906Z" transform="translate(-3.062 -13.841)" fill="#0a7cb7"/>
  <path id="Caminho_57" data-name="Caminho 57" d="M33.619,32.27l6.037,6.037-1.6,1.6L32.02,33.869Z" transform="translate(-13.733 -13.841)" fill="#0a7cb7"/>
  <path id="Caminho_58" data-name="Caminho 58" d="M32.02,13.431,38.057,7.4l1.6,1.6-6.037,6.037Z" transform="translate(-13.733 -3.174)" fill="#0a7cb7"/>
</svg>
