<svg xmlns="http://www.w3.org/2000/svg" width="30" height="29.527" viewBox="0 0 30 29.527">
  <g id="Camada_x0020_1" transform="translate(-0.971 -0.883)">
    <path id="Caminho_117" data-name="Caminho 117" d="M2.723,12.033l12-9.619a1.986,1.986,0,0,1,2.5,0l12,9.619a1.938,1.938,0,0,1,.746,1.557V27.416a2,2,0,0,1-2,1.994H22.623a2,2,0,0,1-2-1.994V18.737a2,2,0,0,0-1.994-2H13.319a2.007,2.007,0,0,0-2,2v8.679a2,2,0,0,1-2,1.994H3.971a2,2,0,0,1-2-1.994V13.589a1.944,1.944,0,0,1,.753-1.557Z" transform="translate(0 0)" fill="none" stroke="#0a7cb7" stroke-miterlimit="22.926" stroke-width="2" fill-rule="evenodd"/>
  </g>
</svg>
