<svg xmlns="http://www.w3.org/2000/svg" width="24.596" height="21.863" viewBox="0 0 24.596 21.863">
  <path id="Ícone_closed_caption" data-name="Ícone closed caption" d="M24.863,4H5.733A2.732,2.732,0,0,0,3,6.733v16.4a2.732,2.732,0,0,0,2.733,2.733h19.13A2.741,2.741,0,0,0,27.6,23.13V6.733A2.741,2.741,0,0,0,24.863,4ZM13.931,13.565h-2.05v-.683H9.149v4.1h2.733V16.3h2.05v1.366a1.37,1.37,0,0,1-1.366,1.366h-4.1A1.37,1.37,0,0,1,7.1,17.664V12.2a1.37,1.37,0,0,1,1.366-1.366h4.1A1.37,1.37,0,0,1,13.931,12.2Zm9.565,0h-2.05v-.683H18.714v4.1h2.733V16.3H23.5v1.366a1.37,1.37,0,0,1-1.366,1.366h-4.1a1.37,1.37,0,0,1-1.366-1.366V12.2a1.37,1.37,0,0,1,1.366-1.366h4.1A1.37,1.37,0,0,1,23.5,12.2Z" transform="translate(-3 -4)"/>
</svg>
