<svg id="Libras" xmlns="http://www.w3.org/2000/svg" width="21.862" height="21.866" viewBox="0 0 21.862 21.866">
  <defs>
    <style>
      .cls-1 {
        fill: #273b87;
      }

      .cls-1, .cls-2, .cls-3 {
        fill-rule: evenodd;
      }

      .cls-2 {
        fill: #fbfbfb;
      }

      .cls-3 {
        fill: #83a8ca;
      }
    </style>
  </defs>
  <path id="Caminho_73" data-name="Caminho 73" class="cls-1" d="M4.211,16.155c.06.049.712.4.328.559-.185.077-.572-.283-.678-.369-.535-.432-1.313-1.849-1-2.046.17-.105.261.06.294.178a2.714,2.714,0,0,0,.139.413,4.18,4.18,0,0,0,.383.7A2.59,2.59,0,0,0,4.211,16.155Zm-.046-1.622a2.854,2.854,0,0,0,1.378,1.347c.207.118.231.7-.713.009-.588-.427-1.483-1.719-1.145-1.924C3.957,13.8,3.95,14.169,4.166,14.533ZM7.586,9.49c.1-.267.583-.229.888-.242a4.545,4.545,0,0,0,.867-.241,10.031,10.031,0,0,0,2.361-1,22.575,22.575,0,0,1,2.34-1A2.993,2.993,0,0,1,15.991,7c.271.141.712.7,1.172,1.042a5.656,5.656,0,0,0,.684.438c.141.077.235.127.385.2.174.079.181.1.281.261a2.635,2.635,0,0,1,.248,1.82c-.014.116,0,.186-.088.246a9.491,9.491,0,0,1-.519,1.688c-.113.278-.217.534-.337.791a4.467,4.467,0,0,0-.312.754.417.417,0,0,1-.016.1c-.022.086-.027.064-.036.082a14.744,14.744,0,0,0-.1,3.022A12.288,12.288,0,0,1,17.2,19.7a.479.479,0,0,1-.571.162c-.329-.134-.328-.854-.366-1.233a18.214,18.214,0,0,0-.382-2.831c-.331-.592-.582-.031-.678.4-.291,1.313-.471,2.746-.722,4.084-.088.468-.181.926-.747.8-.256-.055-.347-.2-.349-.47,0-.4.32-3.018.385-3.608.039-.351.2-1.142-.03-1.376-.246-.039-.408.326-.524.531L11.284,19.58c-.312.561-.469,1.2-1.1.961a.637.637,0,0,1-.316-.741,6.7,6.7,0,0,1,.318-.744L11.526,16.1c.109-.23.227-.5.344-.742s.3-.628.031-.776c-.3-.147-1.007.761-1.3,1.048-.625.621-1.373,1.333-1.972,1.97-.307.326-.614.72-.92.663a.591.591,0,0,1-.348-.935l1.386-1.789c.575-.742,3.326-4.144,2.7-5.052-.245-.355-.755-.289-1.246-.254-.679.049-2.185.218-2.588-.516-.015-.015-.054,0-.074-.109s0-.092.043-.118Zm12.534,2.019a2.064,2.064,0,0,1,.118-.35,3.289,3.289,0,0,0,.12-1.656c-.1-.483-.281-.567-.08-.715.382-.282.517,1.036.509,1.344-.009.339-.176,1.393-.382,1.517a.177.177,0,0,1-.285-.14ZM19.8,10a4.333,4.333,0,0,1-.086,1.019c-.056.243-.1.527-.408.4-.081-.2.026-.354.066-.576A3.962,3.962,0,0,0,19.426,10c0-.877-.635-1.5-.153-1.471.294.016.524,1.089.524,1.471ZM9.019,4.123c.005-.04.01-.115.02-.152l.047-.1.431-2.249a.518.518,0,0,1,.862-.258c.309.237.2.666.171,1.108-.1,1.36-.3,3.838-.251,5.139-.742.293-.954.329-1.592.544-.561.19-1.194.051-1.674.442-.8.652-.627,1.916.841,2.483a3.047,3.047,0,0,0,1.207.2l1.335-.051a13.3,13.3,0,0,1-1.838,2.888c-.122.164-.223.294-.345.456-.488.649-.17.4-1.107.428a5.573,5.573,0,0,0-.688.052,1.2,1.2,0,0,1-1.018-.427,4.125,4.125,0,0,1-.99-1.961c-.663-2.252-.075-2.263-1.532-4.4a27.326,27.326,0,0,1-1.736-2.72.44.44,0,0,1,.609-.607c.209.128,1.732,2.026,2.055,2.4.128.148.52.7.866.558.351-.177-.182-1.214-.288-1.459-.2-.458-.4-.9-.6-1.358-.211-.485-.4-.906-.615-1.37a2.367,2.367,0,0,1-.333-1.143.5.5,0,0,1,.9-.127c.176.252.838,1.6,1.015,1.935.235.449.451.885.674,1.312.121.231.22.431.344.651.1.184.258.493.479.439.2-.16.081-.761.074-1.006-.025-.939-.177-2.2-.225-3.141C6.069,1.669,5.8,1.063,6.314.8a.58.58,0,0,1,.762.25,3.683,3.683,0,0,1,.208.913c.218,1.274.435,2.574.624,3.874.038.263.076.708.32.8.34.129.4-.409.443-.661.052-.308.11-.633.177-.945a8.216,8.216,0,0,0,.17-.9ZM2.873.059a3.289,3.289,0,0,0-2.8,2.668,18.843,18.843,0,0,0-.053,2.66v10.9C.022,16.8,0,18.6.048,18.973A3.306,3.306,0,0,0,2.689,21.78a17.557,17.557,0,0,0,2.673.064h10.9A23.588,23.588,0,0,0,19,21.81a3.307,3.307,0,0,0,2.787-2.656,18.465,18.465,0,0,0,.055-2.675c0-1.152.046-13.07-.028-13.6a3.308,3.308,0,0,0-2.657-2.8A18.38,18.38,0,0,0,16.486.024H5.587A23.467,23.467,0,0,0,2.873.059Z" transform="translate(-0.002 -0.002)"/>
  <path id="Caminho_74" data-name="Caminho 74" class="cls-2" d="M1746.572,1651.713l.03.227c.4.734,1.909.565,2.588.516.491-.035,1-.1,1.246.254.626.908-2.125,4.31-2.7,5.052l-1.386,1.789a.59.59,0,0,0,.348.935c.306.057.613-.336.92-.663.6-.637,1.347-1.35,1.972-1.97.289-.287.991-1.195,1.3-1.048.267.148.083.543-.031.776s-.234.512-.344.742l-1.344,2.955a6.686,6.686,0,0,0-.318.744.637.637,0,0,0,.316.741c.636.24.792-.4,1.1-.961l1.936-3.417c.116-.2.278-.57.524-.531.233.234.068,1.025.03,1.376-.065.589-.388,3.207-.385,3.608,0,.273.093.415.349.47.566.122.659-.336.747-.8.251-1.337.431-2.771.723-4.083.1-.433.347-.994.678-.4a18.2,18.2,0,0,1,.382,2.831c.038.379.037,1.1.365,1.233a.478.478,0,0,0,.571-.162,12.28,12.28,0,0,0,.155-2.257,14.738,14.738,0,0,1,.1-3.022c.006-.077-.006-.035.011-.105.032-.131.008-.026.04-.077a4.472,4.472,0,0,1,.312-.754c.119-.256.223-.513.337-.791a9.494,9.494,0,0,0,.519-1.688l.088-.246a2.636,2.636,0,0,0-.248-1.82.462.462,0,0,0-.281-.261c-.15-.069-.244-.12-.385-.2a5.65,5.65,0,0,1-.684-.437c-.46-.343-.9-.9-1.172-1.042a2.994,2.994,0,0,0-1.95.009,22.55,22.55,0,0,0-2.339,1,10.034,10.034,0,0,1-2.361,1,4.535,4.535,0,0,1-.867.241C1747.156,1651.484,1746.671,1651.446,1746.572,1651.713Z" transform="translate(-1738.989 -1642.225)"/>
  <path id="Caminho_75" data-name="Caminho 75" class="cls-2" d="M271.781,178.926a1.322,1.322,0,0,1-.019.157c-.044.172-.007.034-.048.1a8.216,8.216,0,0,1-.17.9c-.067.312-.124.638-.177.945-.043.253-.1.791-.443.661-.244-.093-.282-.537-.32-.8-.189-1.3-.406-2.6-.624-3.874a3.683,3.683,0,0,0-.208-.913.58.58,0,0,0-.762-.25c-.511.268-.246.874-.2,1.836.047.945.2,2.2.225,3.141.007.245.13.846-.074,1.006-.221.054-.375-.256-.479-.439-.125-.22-.223-.419-.344-.651-.224-.427-.439-.863-.674-1.312-.176-.336-.838-1.683-1.015-1.935a.5.5,0,0,0-.9.127,2.367,2.367,0,0,0,.333,1.143c.21.464.4.885.615,1.37.2.459.4.9.6,1.358.106.245.639,1.282.288,1.459-.346.139-.738-.41-.866-.558-.323-.374-1.846-2.271-2.055-2.4a.44.44,0,0,0-.609.607,27.322,27.322,0,0,0,1.736,2.72c1.457,2.135.869,2.145,1.532,4.4a4.124,4.124,0,0,0,.99,1.961,1.2,1.2,0,0,0,1.018.427,5.574,5.574,0,0,1,.688-.052c.937-.029.619.221,1.107-.428.122-.163.223-.293.345-.456a13.3,13.3,0,0,0,1.838-2.888l-1.335.051a3.047,3.047,0,0,1-1.207-.2c-1.468-.567-1.644-1.831-.841-2.483.48-.39,1.113-.252,1.674-.442.638-.216.85-.251,1.592-.544-.048-1.3.149-3.779.25-5.139.033-.442.138-.871-.171-1.108a.518.518,0,0,0-.862.258Z" transform="translate(-262.697 -175.057)"/>
  <path id="Caminho_76" data-name="Caminho 76" class="cls-2" d="M673.009,3439.682c-.318.2.461,1.614,1,2.046.106.086.492.445.678.369.385-.159-.268-.51-.328-.559a2.6,2.6,0,0,1-.53-.561,4.193,4.193,0,0,1-.383-.7,2.7,2.7,0,0,1-.139-.413C673.27,3439.741,673.179,3439.576,673.009,3439.682Z" transform="translate(-670.145 -3425.385)"/>
  <path id="Caminho_77" data-name="Caminho 77" class="cls-2" d="M870.558,3357.629c-.337.2.557,1.5,1.145,1.924.944.686.92.109.713-.01a2.853,2.853,0,0,1-1.378-1.347C870.823,3357.833,870.829,3357.465,870.558,3357.629Z" transform="translate(-866.875 -3343.666)"/>
  <path id="Caminho_78" data-name="Caminho 78" class="cls-2" d="M4604.056,2058.38a3.983,3.983,0,0,1-.058.839c-.04.222-.147.379-.066.576.313.132.353-.152.409-.4a4.352,4.352,0,0,0,.086-1.019c0-.382-.23-1.456-.524-1.471C4603.421,2056.884,4604.056,2057.5,4604.056,2058.38Z" transform="translate(-4584.632 -2048.379)"/>
  <path id="Caminho_79" data-name="Caminho 79" class="cls-2" d="M4851.546,2109.345c-.2.148-.015.232.081.715a3.292,3.292,0,0,1-.121,1.656,2.091,2.091,0,0,0-.118.35.176.176,0,0,0,.285.14c.207-.124.374-1.177.383-1.517C4852.063,2110.381,4851.929,2109.063,4851.546,2109.345Z" transform="translate(-4831.271 -2100.559)"/>
  <path id="Caminho_80" data-name="Caminho 80" class="cls-3" d="M1816.685,2288.347l-.03-.227c-.042.026-.063,0-.043.118S1816.67,2288.333,1816.685,2288.347Z" transform="translate(-1809.071 -2278.632)"/>
  <path id="Caminho_81" data-name="Caminho 81" class="cls-3" d="M2174.42,933.073c.041-.062,0,.076.048-.1a1.349,1.349,0,0,0,.02-.157l-.047.1C2174.43,932.958,2174.425,933.033,2174.42,933.073Z" transform="translate(-2165.404 -928.952)"/>
  <path id="Caminho_82" data-name="Caminho 82" class="cls-3" d="M4502.72,2593.966c.09-.061.074-.13.088-.246Z" transform="translate(-4484.049 -2582.965)"/>
  <path id="Caminho_83" data-name="Caminho 83" class="cls-3" d="M4208.67,3432.863c.009-.017.014,0,.036-.082a.405.405,0,0,0,.016-.1c-.032.051-.007-.054-.04.077C4208.664,3432.828,4208.676,3432.786,4208.67,3432.863Z" transform="translate(-4191.218 -3418.446)"/>
</svg>
