<svg id="Camada_x0020_1" xmlns="http://www.w3.org/2000/svg" width="30" height="29.435" viewBox="0 0 30 29.435">
  <path id="Caminho_47" data-name="Caminho 47" d="M12.087,46.367H1.113A1.111,1.111,0,0,1,.078,44.846l1.75-5.652a1.112,1.112,0,0,1,1.387-.732l9.2,3.136a1.112,1.112,0,0,1,.749,1.113l.028,2.538a1.11,1.11,0,0,1-1.1,1.118h-.011Zm-9.471-2.22h8.353l-.011-.7-7.346-2.51-1,3.209Z" transform="translate(0 -16.937)" fill="#0a7cb7"/>
  <path id="Caminho_48" data-name="Caminho 48" d="M32.285,44.147h8.353l-1-3.209L32.3,43.448Zm9.857,2.225H31.167v-.006h-.006a1.111,1.111,0,0,1-1.1-1.118l.028-2.538a1.112,1.112,0,0,1,.749-1.113l9.169-3.131.034-.006a1.107,1.107,0,0,1,1.387.732l1.75,5.652a1.134,1.134,0,0,1,.078.414,1.115,1.115,0,0,1-1.113,1.113Z" transform="translate(-13.254 -16.937)" fill="#0a7cb7"/>
  <path id="Caminho_49" data-name="Caminho 49" d="M16.162,3.472v13.96a10.349,10.349,0,0,1-.2,2.069,10.161,10.161,0,0,1-.615,1.962l-2.186,5.194-9.376-3.2,2.862-4.713a1.411,1.411,0,0,0,.184-.458,1.643,1.643,0,0,0,.011-.526l-.721-5.518a5.093,5.093,0,0,1,.173-2.13,8.519,8.519,0,0,1,.788-1.783l4-6.972a2.825,2.825,0,0,1,.867-.945A2.518,2.518,0,0,1,13.188.006a2.447,2.447,0,0,1,1.269.257,2.713,2.713,0,0,1,.967.861,3.969,3.969,0,0,1,.548,1.113,4.164,4.164,0,0,1,.19,1.236Zm-2.225,0a1.9,1.9,0,0,0-.084-.581,1.823,1.823,0,0,0-.235-.492.422.422,0,0,0-.168-.151.263.263,0,0,0-.134-.028.346.346,0,0,0-.134.045.519.519,0,0,0-.168.2l-4,6.972a6.018,6.018,0,0,0-.587,1.3,2.993,2.993,0,0,0-.106,1.224l.721,5.512a3.777,3.777,0,0,1-.039,1.258,3.634,3.634,0,0,1-.458,1.163L7.117,22.246l4.808,1.644L13.311,20.6a7.886,7.886,0,0,0,.475-1.537,8.436,8.436,0,0,0,.151-1.632V3.472Z" transform="translate(-1.671 -0.001)" fill="#0a7cb7"/>
  <path id="Caminho_50" data-name="Caminho 50" d="M29.965,3.472v13.96a8.436,8.436,0,0,0,.151,1.632,7.886,7.886,0,0,0,.475,1.537l1.387,3.287,4.808-1.644L35.36,19.9h-.006a3.564,3.564,0,0,1-.458-1.168,3.776,3.776,0,0,1-.039-1.258l.721-5.512a2.993,2.993,0,0,0-.106-1.224,6.018,6.018,0,0,0-.587-1.3l-4-6.972a.565.565,0,0,0-.162-.2.409.409,0,0,0-.14-.045.263.263,0,0,0-.134.028.422.422,0,0,0-.168.151,1.823,1.823,0,0,0-.235.492,1.9,1.9,0,0,0-.084.581Zm-2.225,0a4.164,4.164,0,0,1,.19-1.236,3.9,3.9,0,0,1,.548-1.113,2.713,2.713,0,0,1,.967-.861A2.447,2.447,0,0,1,30.714.006,2.5,2.5,0,0,1,31.95.414a2.825,2.825,0,0,1,.867.945l4,6.972a8.519,8.519,0,0,1,.788,1.783,5.093,5.093,0,0,1,.173,2.13l-.721,5.518a1.643,1.643,0,0,0,.011.526,1.433,1.433,0,0,0,.184.453v.006l2.862,4.713-9.37,3.2-2.192-5.194a10.161,10.161,0,0,1-.615-1.962,10.348,10.348,0,0,1-.2-2.069V3.472Z" transform="translate(-12.231 -0.001)" fill="#0a7cb7"/>
  <path id="Caminho_51" data-name="Caminho 51" d="M21.22,17.986a1.113,1.113,0,0,1-2.225,0,.9.9,0,0,0-.436-.895.764.764,0,0,0-.626,0,.909.909,0,0,0-.447.895v5a1.113,1.113,0,0,1-2.225,0v-5a2.985,2.985,0,0,1,2.985-3.176,2.938,2.938,0,0,1,1.213.257,3.024,3.024,0,0,1,1.761,2.918Z" transform="translate(-6.729 -6.531)" fill="#0a7cb7"/>
  <path id="Caminho_52" data-name="Caminho 52" d="M29.965,17.986a1.113,1.113,0,1,1-2.225,0A3.024,3.024,0,0,1,29.5,15.067a2.938,2.938,0,0,1,1.213-.257A2.985,2.985,0,0,1,33.7,17.986v5a1.113,1.113,0,0,1-2.225,0v-5a.909.909,0,0,0-.447-.895.764.764,0,0,0-.626,0,.9.9,0,0,0-.436.895Z" transform="translate(-12.231 -6.531)" fill="#0a7cb7"/>
</svg>
