<svg id="Camada_x0020_1" xmlns="http://www.w3.org/2000/svg" width="30" height="29.977" viewBox="0 0 30 29.977">
  <path id="Caminho_27" data-name="Caminho 27" d="M1.524,6.99H27.747A2.264,2.264,0,0,1,30,9.248V30.769a2.262,2.262,0,0,1-2.253,2.253H2.258A2.264,2.264,0,0,1,0,30.769V8.514A1.529,1.529,0,0,1,1.524,6.99ZM27.742,9.254H2.264v21.5H27.742Z" transform="translate(0 -3.044)" fill="#0a7cb7" fill-rule="evenodd"/>
  <path id="Caminho_28" data-name="Caminho 28" d="M7.959,20.3h2.732a.564.564,0,0,1,.559.559v2.732a.56.56,0,0,1-.559.559H7.959a.56.56,0,0,1-.559-.559V20.859A.564.564,0,0,1,7.959,20.3Z" transform="translate(-3.222 -8.84)" fill="#0a7cb7" fill-rule="evenodd"/>
  <path id="Caminho_29" data-name="Caminho 29" d="M18.419,20.3h2.732a.56.56,0,0,1,.559.559v2.732a.557.557,0,0,1-.559.559H18.419a.56.56,0,0,1-.559-.559V20.859A.564.564,0,0,1,18.419,20.3Z" transform="translate(-7.777 -8.84)" fill="#0a7cb7" fill-rule="evenodd"/>
  <path id="Caminho_30" data-name="Caminho 30" d="M28.879,20.3h2.732a.56.56,0,0,1,.559.559v2.732a.557.557,0,0,1-.559.559H28.879a.56.56,0,0,1-.559-.559V20.859A.564.564,0,0,1,28.879,20.3Z" transform="translate(-12.332 -8.84)" fill="#0a7cb7" fill-rule="evenodd"/>
  <path id="Caminho_31" data-name="Caminho 31" d="M39.339,20.3h2.732a.56.56,0,0,1,.559.559v2.732a.557.557,0,0,1-.559.559H39.339a.56.56,0,0,1-.559-.559V20.859A.564.564,0,0,1,39.339,20.3Z" transform="translate(-16.887 -8.84)" fill="#0a7cb7" fill-rule="evenodd"/>
  <path id="Caminho_32" data-name="Caminho 32" d="M7.959,30.07h2.732a.564.564,0,0,1,.559.559v2.732a.56.56,0,0,1-.559.559H7.959a.56.56,0,0,1-.559-.559V30.629a.564.564,0,0,1,.559-.559Z" transform="translate(-3.222 -13.094)" fill="#0a7cb7" fill-rule="evenodd"/>
  <path id="Caminho_33" data-name="Caminho 33" d="M18.419,30.07h2.732a.56.56,0,0,1,.559.559v2.732a.557.557,0,0,1-.559.559H18.419a.56.56,0,0,1-.559-.559V30.629a.564.564,0,0,1,.559-.559Z" transform="translate(-7.777 -13.094)" fill="#0a7cb7" fill-rule="evenodd"/>
  <path id="Caminho_34" data-name="Caminho 34" d="M28.879,30.07h2.732a.56.56,0,0,1,.559.559v2.732a.557.557,0,0,1-.559.559H28.879a.56.56,0,0,1-.559-.559V30.629a.564.564,0,0,1,.559-.559Z" transform="translate(-12.332 -13.094)" fill="#0a7cb7" fill-rule="evenodd"/>
  <path id="Caminho_35" data-name="Caminho 35" d="M39.339,30.07h2.732a.56.56,0,0,1,.559.559v2.732a.557.557,0,0,1-.559.559H39.339a.56.56,0,0,1-.559-.559V30.629a.564.564,0,0,1,.559-.559Z" transform="translate(-16.887 -13.094)" fill="#0a7cb7" fill-rule="evenodd"/>
  <path id="Caminho_36" data-name="Caminho 36" d="M7.959,39.62h2.732a.559.559,0,0,1,.559.553v2.738a.559.559,0,0,1-.559.553H7.959a.559.559,0,0,1-.559-.553V40.173A.559.559,0,0,1,7.959,39.62Z" transform="translate(-3.222 -17.253)" fill="#0a7cb7" fill-rule="evenodd"/>
  <path id="Caminho_37" data-name="Caminho 37" d="M18.419,39.62h2.732a.555.555,0,0,1,.559.553v2.738a.555.555,0,0,1-.559.553H18.419a.559.559,0,0,1-.559-.553V40.173A.559.559,0,0,1,18.419,39.62Z" transform="translate(-7.777 -17.253)" fill="#0a7cb7" fill-rule="evenodd"/>
  <path id="Caminho_38" data-name="Caminho 38" d="M28.879,39.62h2.732a.555.555,0,0,1,.559.553v2.738a.555.555,0,0,1-.559.553H28.879a.559.559,0,0,1-.559-.553V40.173A.559.559,0,0,1,28.879,39.62Z" transform="translate(-12.332 -17.253)" fill="#0a7cb7" fill-rule="evenodd"/>
  <path id="Caminho_39" data-name="Caminho 39" d="M11.158,8.327a1.129,1.129,0,0,1-2.258,0v-7.2a1.129,1.129,0,0,1,2.258,0Z" transform="translate(-3.876)" fill="#0a7cb7"/>
  <path id="Caminho_40" data-name="Caminho 40" d="M42.274,8.327a1.132,1.132,0,0,1-2.264,0v-7.2a1.132,1.132,0,0,1,2.264,0Z" transform="translate(-17.422)" fill="#0a7cb7"/>
</svg>
