<svg id="Camada_x0020_1" xmlns="http://www.w3.org/2000/svg" width="30" height="30.077" viewBox="0 0 30 30.077">
  <path id="Caminho_59" data-name="Caminho 59" d="M16.265,19.334a1.138,1.138,0,0,1,2.275,0v7.408a1.133,1.133,0,0,1-1.071,1.132L1.287,30.067A1.137,1.137,0,0,1,.011,29.1a1.507,1.507,0,0,1-.006-.155H0V1.138A1.139,1.139,0,0,1,1.138,0a1.123,1.123,0,0,1,.239.028L17.553,2.214a1.136,1.136,0,0,1,.982,1.127h.006v7.4a1.138,1.138,0,1,1-2.275,0V4.329L2.275,2.436V27.647l13.99-1.9V19.334Z" transform="translate(0 0)" fill="#0a7cb7" fill-rule="evenodd"/>
  <path id="Caminho_60" data-name="Caminho 60" d="M24,27.285a1.138,1.138,0,1,1,0-2.275H39.036a1.138,1.138,0,1,1,0,2.275H24Z" transform="translate(-10.174 -11.131)" fill="#0a7cb7"/>
  <path id="Caminho_61" data-name="Caminho 61" d="M38.923,15.582a1.138,1.138,0,0,1,1.609-1.609l6.31,6.31a1.139,1.139,0,0,1,0,1.609l-6.31,6.3a1.136,1.136,0,1,1-1.609-1.6l5.5-5.5Z" transform="translate(-17.175 -6.071)" fill="#0a7cb7"/>
</svg>
