<svg id="Icon_simple-instagram" data-name="Icon simple-instagram" xmlns="http://www.w3.org/2000/svg" width="29.601" height="29.601" viewBox="0 0 29.601 29.601">
  <defs>
    <style>
      .cls-1 {
        fill: #fbfbfb;
      }
    </style>
  </defs>
  <path id="Icon_simple-instagram-2" data-name="Icon simple-instagram" class="cls-1" d="M14.8,0C10.78,0,10.278.019,8.7.089A10.913,10.913,0,0,0,5.106.777,7.248,7.248,0,0,0,2.484,2.484,7.221,7.221,0,0,0,.777,5.106,10.882,10.882,0,0,0,.089,8.7C.015,10.278,0,10.78,0,14.8s.019,4.523.089,6.1a10.92,10.92,0,0,0,.688,3.593,7.258,7.258,0,0,0,1.707,2.622,7.237,7.237,0,0,0,2.622,1.707,10.927,10.927,0,0,0,3.593.688c1.579.074,2.081.089,6.1.089s4.523-.018,6.1-.089a10.952,10.952,0,0,0,3.593-.688,7.564,7.564,0,0,0,4.329-4.329,10.92,10.92,0,0,0,.688-3.593c.074-1.579.089-2.081.089-6.1s-.018-4.523-.089-6.1a10.945,10.945,0,0,0-.688-3.593,7.264,7.264,0,0,0-1.707-2.622A7.211,7.211,0,0,0,24.494.777,10.888,10.888,0,0,0,20.9.089C19.323.015,18.821,0,14.8,0Zm0,2.664c3.95,0,4.422.02,5.982.088a8.154,8.154,0,0,1,2.747.512,4.87,4.87,0,0,1,2.81,2.808,8.172,8.172,0,0,1,.509,2.747c.07,1.561.086,2.03.086,5.982s-.018,4.422-.091,5.982a8.329,8.329,0,0,1-.519,2.747,4.7,4.7,0,0,1-1.109,1.7,4.617,4.617,0,0,1-1.7,1.105,8.232,8.232,0,0,1-2.757.509c-1.571.07-2.034.086-5.993.086s-4.423-.019-5.993-.091a8.392,8.392,0,0,1-2.758-.519,4.583,4.583,0,0,1-1.7-1.109,4.494,4.494,0,0,1-1.11-1.7,8.4,8.4,0,0,1-.518-2.757c-.056-1.554-.075-2.034-.075-5.974s.02-4.423.075-6A8.39,8.39,0,0,1,3.2,6.031a4.387,4.387,0,0,1,1.11-1.7,4.378,4.378,0,0,1,1.7-1.108A8.192,8.192,0,0,1,8.752,2.7c1.573-.056,2.035-.074,5.993-.074l.056.037Zm0,4.536a7.6,7.6,0,1,0,7.6,7.6A7.6,7.6,0,0,0,14.8,7.2Zm0,12.533A4.933,4.933,0,1,1,19.734,14.8,4.932,4.932,0,0,1,14.8,19.734ZM24.477,6.9A1.776,1.776,0,1,1,22.7,5.126,1.777,1.777,0,0,1,24.477,6.9Z"/>
</svg>
