<?xml version="1.0" encoding="utf-8"?>
<!-- Generator: Adobe Illustrator 25.0.1, SVG Export Plug-In . SVG Version: 6.00 Build 0)  -->
<svg version="1.1" xmlns="http://www.w3.org/2000/svg" xmlns:xlink="http://www.w3.org/1999/xlink" x="0px" y="0px"
	 viewBox="0 0 750 500" style="enable-background:new 0 0 750 500;" xml:space="preserve">
<style type="text/css">
	.st0{clip-path:url(#SVGID_2_);fill:url(#SVGID_3_);}
	.st1{opacity:0.6;clip-path:url(#SVGID_2_);fill:#FFFFFF;}
	.st2{opacity:0.4;clip-path:url(#SVGID_2_);fill:#FFFFFF;}
	.st3{clip-path:url(#SVGID_2_);}
	.st4{fill:#D7EEF4;}
	.st5{fill:#FFFFFF;}
</style>
<g id="BACKGROUND">
	<g>
		<defs>
			<rect id="SVGID_1_" width="750" height="500"/>
		</defs>
		<clipPath id="SVGID_2_">
			<use xlink:href="#SVGID_1_"  style="overflow:visible;"/>
		</clipPath>
		<linearGradient id="SVGID_3_" gradientUnits="userSpaceOnUse" x1="375" y1="500" x2="375" y2="-9.094947e-13">
			<stop  offset="0" style="stop-color:#D2EEF9"/>
			<stop  offset="0.51" style="stop-color:#6FC0E0"/>
			<stop  offset="1" style="stop-color:#2F6FC7"/>
		</linearGradient>
		<rect class="st0" width="750" height="500"/>
		<path class="st1" d="M804.7,513.3c-0.4-17.3-2.1-34.6-4-51.8c-1.9-17.3-3.9-34.6-5.7-51.9c-3.6-34.8-6.7-69.6-8.4-104.5
			c-0.4-8.8-0.8-17.5-1-26.3c-0.2-7.1-0.1-14.3-2-21.2c-1.6-6-4.8-11.6-10.4-14.7c-4.5-2.5-10.1-3.5-15-1.6c0,0,0,0,0,0
			c-0.3-0.6-1.1-1-1.6-0.3c-0.1,0.2-0.3,0.4-0.4,0.5c-0.4-0.4-0.9-0.8-1.4-1.1c-1.8-1.2-4.1-1.8-6.3-1.9c-3.9-0.2-7.9,1.4-10.4,4.4
			c-4.1-1.5-9.3,0.7-11,4.7c-5.2-2.4-12.1,0.9-13.9,6.2c-3.7-2-8.3-2.1-12,0.1c-3.4,2-5.4,5.6-5.7,9.4c-4.7-2.4-10.7-2-14.8,1.6
			c-4.1,3.6-5.1,10-3,14.9c-2.3,0.7-4.1,2.6-4.7,4.9c-3.7-1.9-8.3-2-12,0.1c-3.4,1.9-5.7,5.4-6.3,9.2c-6.5-6-14.1-11.2-23.1-11.8
			c-8.9-0.6-18,4-20.2,13.1c-0.8,3.5-0.5,7.1,1.1,10.3c-1.8,0.6-3.2,2.2-3.7,4c-1.5-0.1-3,0.4-4.1,1.4c-1,0.8-1.6,1.9-1.9,3
			c-4.6-1.5-10.2,1.1-11.9,5.5c-3.4-0.9-7.2,2.2-7.6,5.7c-3.3-0.8-7,0.5-9.5,2.7c-1.8,1.6-3,3.9-3.8,6.1c-0.5,1.3-0.8,2.6-1,3.9
			c0,0.2-0.1,0.5-0.1,0.7c-8.3-7.2-22.9-3.8-27.6,6c-9.2-6.3-23.4-0.7-26,10.1c-10.6-0.6-21.3,0.6-31.5,3.7
			c-1.9,0.6-4.9,2.3-6.8,2.1c-1.9-0.2-3.2-1-5.2-0.7c-2.8,0.4-5.3,1.9-6.9,4.2c-5.7-3.7-14-2.3-18,3.4c-7.6-6.6-20.4-5-26.2,3.1
			c-6.9-5-16.4-5-23.4-0.1c-4.9-4.7-13.1-4.9-18.2-0.6c-6-6.2-16-7.1-23.2-2.6c-0.9-10-6.3-19.6-14.4-25.6c-9-6.5-21-8.1-31.5-4.6
			c-2.3-12.3-18-19.8-28.9-13.2c-12.6-10.4-31.6-11.3-44.9-1.6c-3.9-2.2-8.1-3.7-12.6-4.1c-1.5-0.2-1.9,0-3-1.1
			c-0.7-0.8-1.3-1.6-2-2.3c-1.6-1.6-3.5-2.9-5.5-4c-0.4-0.2-1-0.3-1.3,0c-1,0.8-2.1,1.6-3.1,2.4c-1.6-8.9-4.8-18.4-12.5-23.8
			c-6.4-4.6-15.6-5.6-22-0.9c-5.6-13.8-19.7-21.3-34.4-19.7c-8.9,1-17.5,4.5-26.5,4.2c-4.9-0.2-9.7-1.7-13.6-4.6
			c-1.7-1.3-1.9-2.2-4.1-1.7c-1.8,0.5-3.6,1-5.4,1.5c-1-6.2-8.7-9.7-14.2-7c-0.6-5.5-4.5-10.5-10-12c-4.9-1.3-10.2,0.5-13.5,4.1
			c-1.5-9.7-4.2-20.7-13.2-25.7c-6.4-3.6-15.7-3.8-20.6,2c-3.2-5-9-8.1-15-7.6c-3.9,0.3-7.5,2.1-10.1,4.8c-0.6-0.5-1.6-0.5-2,0.3
			c-0.9,2.2-1.8,5.9-3.5,7.6c-1.7,1.6-5.3,2-7.6,2.7c-5.2,1.6-10.3,3.3-15.4,5c-0.7,0.2-1.1,0.8-1.2,1.5
			c-10.2,83-19.1,166.2-25,249.6c-1.5,21.5-3.5,43.7,3.2,64.6c0.2,0.6,0.7,1,1.3,1c101.4,6.3,202.8,13.1,304.1,20.2
			c101.4,7.1,202.7,14.6,304,22.4c51.5,4,103,8.4,154.5,11.8c-3.9,1.9-7.8,3.9-11.4,6.2c-2.9,1.8-5.6,3.9-8.3,5.9
			c-0.6,0.5,0.2,1.4,0.8,1.1c8.7-4.5,17.5-8.7,26.5-12.7c3.1,0.2,6.2,0.4,9.3,0.6c0.9,0.1,0.8-1.3,0-1.3c-2.1-0.2-4.2-0.4-6.2-0.6
			c3.7-1.6,7.4-3.2,11.2-4.8c13.6-5.6,27.4-10.9,40.5-17.6c6.6-3.4,13-7.2,19-11.5c5.6-4.1,10.7-8.8,13.3-15.4
			c2.8-7.5,3.1-16.2,3.6-24.1C804.8,530.7,804.9,522,804.7,513.3z"/>
		<path class="st2" d="M782,531.8c0-17.6,0-35.2,0-52.7c0-17.5,0.2-35-0.5-52.5c-0.7-17.5-2.4-34.9-3.9-52.3
			c-1.5-17.5-2.9-35-4.4-52.4c-0.7-8.8-1.5-17.7-2.2-26.5c-0.4-4.4-0.8-8.7-1.1-13.1c-0.2-2.1-0.4-4.3-0.6-6.4
			c-0.1-1.3-0.3-2.5-0.9-3.6c0.3-0.3,0.5-0.7,0.4-1.2c2.5-0.5,4.9-0.9,7.4-1.5c0.9-0.2,0.7-1.7-0.2-1.6c-2.8,0.3-5.6,0.6-8.4,1
			c-10.8-14.6-31.8-18.4-46.6-7.3c-3.5,2.7-6.6,6-8.8,9.7c-1.1,1.9-1.7,4-2.8,5.8c-0.7,1.3-0.2,0.8-1.5,1.5
			c-1.1,0.6-2.5,0.8-3.7,1.3c-7.4,3.2-13.4,9.2-17.1,16.3c-3.7,7.2-5.1,15.4-3.5,23.3c-9.4-4.7-21.1-1.1-28.6,6.2
			c-10.5,10.3-11.4,26.6-11.5,40.6c-12.1-5.7-28,2.1-31.2,15c-8.8-4-20.2,2-22,11.5c-9.3-3.9-20.4-3-28.5,3.3
			c-7.7,5.9-11.6,15.5-10.8,25c-9.1-5.3-22.2-0.5-26.4,9c-2.7-3.8-8.3-5.7-12.8-4.1c-5.1,1.9-7.3,6.8-7.5,11.9
			c-9.7-15-27.6-24.5-45.7-22.6c-20.5,2.2-38,18.9-41.9,39c-15.8-5.6-34.5,2.6-40.9,18.1c-3.7-2.7-8.7-3-12.7-0.7
			c-2-11.8-4.6-24.9-13.9-33.1c-7-6.2-17.6-9.3-26.1-4.9c0.4-8.1-3.4-16.2-10.5-20.5c-6.9-4.2-15.4-3.9-22.2-0.1
			c10.9-16.7,9.6-37.4-2-51.6c-14.5-17.6-36-20.1-57.9-14.1c-8.3,2.3-15.5,6.5-21.2,12.7c2.3-8.5,3.9-17.9-0.2-25.9
			c-3.4-6.5-10.6-11.2-17.9-9.9c-4.6-16.2-23.7-24.9-35.9-27.1c-18.7-3.3-39.9-2.5-55.5,10.9c-1,0.8-1.9,1.8-2.8,2.7
			c-0.6,0.6-2.4-1.5-2.8-1.8c-2.8-2.6-8.3-0.3-8.9,3.3c1.2-6.4,1.6-13.6-3.3-18.3c-3.6-3.4-9.3-4.7-13.3-1.8
			c-7.1-11.9-25.9-13.1-34.9-2.8c-3.3-7.9-14.9-10.6-21.4-5.1c-2.8-5.7-12.8-6.8-16.1-1.1c-0.2,0-0.4,0-0.6,0.2
			c-3.4,2.1-6.7,4.1-10.1,6.2c-0.9,0.6-2.4,1.1-2.9,2.1c-0.7,1.5-0.6,4.2-0.8,5.8c-1,8.2-2,16.5-2.9,24.7c-1.9,16.7-3.5,33.4-5,50.1
			c-2.8,33.1-4.8,66.2-6,99.3c-0.7,18.9-1.1,37.9-1.2,56.9c0,0.7,0.6,1.2,1.3,1.3c77.9,4.8,155.8,9.6,233.7,14.3
			c77.5,4.8,155,9.5,232.5,14.3l65.6,4c18.7,1.1,37.4,2,56.2,2.8c-1.4,0.4-2.8,0.8-4.2,1.2c-1.6,0.5-1.3,2.8,0.4,2.9
			c1.1,0.1,2.2,0.1,3.3,0.2c-0.2,0.7-0.3,1.5-0.3,2.2c0.1,3.8,3.2,6.5,6.9,6.9c3.6,0.4,7.2-1.8,8-5.4c0.2-1,0.3-2.1,0.1-3.1
			c29.1,1.1,58.3,1,87.5,0c35.2-1.2,70.4-3.4,105.6-5.8c4.5-0.3,8.9-0.6,13.4-0.9c1.3-0.1,2.7-0.3,3.8-1.1c1.4-1,1.6-2.5,1.7-4.1
			C782.2,549.5,782,540.6,782,531.8z M563.5,565.6c-0.1,0.6,0.2,1.1,0.8,1.4c0,0,0,0,0.1,0c-1.1-0.1-2.2-0.1-3.3-0.2
			c0.3-0.1,0.5-0.2,0.8-0.3c0.6-0.2,0.9-0.6,1-1.1C563.1,565.5,563.3,565.6,563.5,565.6z M562.3,575.7c-2.2-0.2-4.1-1.6-4.2-3.9
			c0-0.7,0.1-1.4,0.4-2.1c2.8,0.1,5.6,0.3,8.4,0.4C567.6,572.8,565.9,575.9,562.3,575.7z"/>
		<g class="st3">
			<path class="st4" d="M296.4,157.3C296.4,157.3,296.4,157.3,296.4,157.3C296.3,157.3,296.3,157.3,296.4,157.3
				C296.3,157.3,296.4,157.3,296.4,157.3z"/>
			<path class="st4" d="M296.4,157.3C296.4,157.3,296.4,157.3,296.4,157.3C296.4,157.3,296.3,157.3,296.4,157.3
				C296.3,157.3,296.3,157.3,296.4,157.3C296.4,157.3,296.4,157.3,296.4,157.3z"/>
		</g>
		<g class="st3">
			<g>
				<path class="st5" d="M650.5,82.6c4.5,0.3,9,0,13.5,0c4.4,0,8.7,0,13.1,0c15.7,0,31.4,0,47.1,0c14.8,0,29.6,0.1,44.3,0
					c3.6,0,2.3-1.5-0.1-2.4c-0.2-0.1-0.3-0.2-0.4-0.3c-1.2-0.9-2.4-2-3.4-3.2c-1.8-2-3.2-4.3-4.6-6.6c-1.3-2.1-2.8-4.3-4.8-5.8
					c-1.9-1.4-4.8-2-7.2-1.4c1.2-4,1.1-8.4-0.4-12.3c-1.8-4.6-5.4-8.2-10.1-9.8c-4.6-1.6-9.9-1.2-14.1,1.2
					c-5.9,3.4-8.5,10.7-7.1,17.1c-0.3-0.1-0.6-0.1-0.9-0.1c-2.3-0.1-4.4,1-5.8,2.8c-2.1-3.4-6.6-5-10.6-4.5
					c-5.3,0.7-9.4,4.5-12.8,8.3c-1.6,1.8-3.4,3.9-5.7,4.5c-2.4,0.7-4.5-1.1-6.6-2c-2.3-1-4.7-1.1-6.7,0.4c-2,1.5-2.6,3.7-2.4,6.2
					c0.1,1,0.4,2.5-0.6,3.2c-1,0.7-2.6,0.8-3.7,1c-3.2,0.6-10.1,1.4-10.2,1.6C649.1,80.6,649.1,82.5,650.5,82.6z"/>
				<g>
					<path class="st4" d="M660.6,80.8c1.8,0.1,3.7,0,5.5-0.6c0.8-0.3,1.7-0.7,2.4-1.2c0.6-0.5,1.1-1.2,2-1.3
						c0.9-0.2,1.9,0.1,2.8-0.2c0.9-0.3,1.5-0.9,1.7-1.7c0-0.1,0-0.2,0-0.4c0-0.1,0-0.1,0-0.2c0,0,0,0,0,0c0-0.1,0-0.1,0-0.2
						c0.1-0.9,1.4-0.6,1.5,0.2c0,0.3,0,0.5,0,0.8c0.2,1.2,1.4,2.1,2.6,2c0.7,0,1.5-0.3,2.1-0.8c0.5-0.4,0.9-0.9,1.5-1.2
						c0.1-0.1,0.3,0,0.4,0.1c1,0.1,1.9,0.7,2.9,1c1,0.3,2,0.6,3.1,0.8c2.2,0.4,4.4,0.6,6.7,0.4c3.2-0.2,7-1,9.4-3.3
						c-0.5-0.2-0.9-0.5-1.3-0.8c-0.3-0.3-0.7-0.8-0.6-1.2c0,0,0,0,0,0c0,0,0,0,0,0c0,0-0.1-0.1-0.1-0.1c0,0,0,0-0.1-0.1
						c0,0-0.1-0.1-0.1-0.1c0,0,0-0.1,0-0.1c0,0,0-0.1,0-0.1c0,0,0,0,0-0.1c0,0,0,0,0,0c0,0,0,0,0,0c0,0,0,0,0-0.1c0,0,0-0.1,0.1-0.1
						c0,0,0,0,0,0c0,0,0,0,0,0c0,0,0-0.1,0-0.1c0,0,0-0.1,0.1-0.1c0-0.1,0.1-0.2,0.2-0.2c0.3-0.1,0.5,0,0.8,0c0.3,0,0.6,0.2,0.9,0.3
						c0.3,0.1,0.7,0.2,1,0.1c0.6-0.1,1.2-0.3,1.7-0.7c0.5-0.3,0.9-0.8,1.2-1.2c0.4-0.5,0.8-1.1,1-1.7c0.1-0.2,0.4-0.2,0.5,0.1
						c0,0.1,0,0.1,0,0.2c0,0,0,0,0,0c0.2,0.2,0.3,0.5,0.4,0.8c0,0.3,0.1,0.6,0.1,0.9c0,0.6-0.1,1.2-0.3,1.8
						c-0.2,0.5-0.3,0.9-0.6,1.3c3.1,0.4,6.2,0.5,9.2-0.1c1.9-0.3,3.9-0.8,5.6-1.7c0.6-0.3,1.3-0.8,1.9-1.3c0.9-1.5,0.6-3.6-0.8-4.7
						c-0.7-0.6,0.3-1.9,1-1.3c2.5,1.9,6,2.9,9,3.1c1.6,0.1,3.2,0.1,4.8-0.1c0.9-0.1,1.7-0.4,2.5-0.8c0.8-0.4,1.4-1,2.2-1.4
						c0.1,0,0.1,0,0.2,0c0,0,0,0,0,0c0.3-0.4,1.1,0,0.9,0.5c-0.4,1.2-0.8,2.3-0.8,3.7c0,1.3,0.2,2.6,0.8,3.8
						c0.7,1.2,1.7,2.1,2.8,2.7c1.4,0.6,2.9,0.8,4.4,0.8c2,0,4.1-0.3,5.8-1.3c0.9-0.5,1.6-1.1,1.8-2.1c0.1-0.4,0.1-0.7,0.1-1.1
						c1,1.5,2,3,3.2,4.3c1,1.2,2.1,2.3,3.4,3.2c0.1,0.1,0.3,0.2,0.4,0.3c2.4,1,3.7,2.4,0.1,2.4c-14.8,0-29.6,0-44.3,0
						c-15.7,0-31.4,0-47.1,0c-4.4,0-8.7,0-13.1,0c-4.5,0-9,0.2-13.5,0c-1.4-0.1-1.4-2-0.2-2.2c0.1-0.1,2.9-0.4,5.7-0.9
						C657.1,80.7,659.1,80.8,660.6,80.8z"/>
				</g>
			</g>
			<g>
				<path class="st5" d="M108.6,233.3c-0.1-0.1-6.8-0.9-9.9-1.5c-1.1-0.2-2.7-0.3-3.6-1c-0.9-0.7-0.6-2.1-0.6-3.1
					c0.2-2.4-0.4-4.5-2.3-6c-2-1.5-4.4-1.4-6.5-0.4c-2,0.9-4,2.6-6.4,1.9c-2.3-0.6-4-2.7-5.5-4.4c-3.3-3.7-7.3-7.4-12.5-8
					c-3.8-0.5-8.2,1.1-10.2,4.4c-1.3-1.7-3.4-2.8-5.6-2.7c-0.3,0-0.6,0.1-0.8,0.1c1.4-6.2-1.1-13.3-6.9-16.6
					c-4.1-2.3-9.2-2.7-13.7-1.1c-4.6,1.6-8,5-9.8,9.5c-1.5,3.8-1.6,8.1-0.4,12c-2.3-0.6-5.1,0-6.9,1.4c-2,1.4-3.4,3.6-4.7,5.6
					c-1.3,2.2-2.7,4.4-4.4,6.4c-1,1.1-2.1,2.2-3.3,3.1c-0.1,0.1-0.3,0.2-0.4,0.3c-2.3,0.9-3.6,2.4-0.1,2.4c14.3,0,28.7,0,43,0
					c15.2,0,30.5,0,45.7,0c4.2,0,8.5,0,12.7,0c4.3,0,8.7,0.2,13.1,0C109.7,235.3,109.8,233.5,108.6,233.3z"/>
				<g>
					<path class="st4" d="M98.6,233.7c-1.8,0.1-3.6,0-5.3-0.5c-0.8-0.3-1.6-0.6-2.3-1.2c-0.6-0.5-1.1-1.1-1.9-1.3
						c-0.9-0.2-1.8,0.1-2.7-0.2c-0.8-0.3-1.5-0.8-1.6-1.7c0-0.1,0-0.2,0-0.3c0-0.1,0-0.1,0-0.2c0,0,0,0,0,0c0-0.1,0-0.1,0-0.2
						c-0.1-0.9-1.4-0.6-1.4,0.2c0,0.3,0,0.5,0,0.8c-0.2,1.1-1.4,2-2.5,2c-0.7,0-1.4-0.3-2-0.7c-0.5-0.4-0.8-0.9-1.4-1.1
						c-0.1-0.1-0.3,0-0.4,0.1c-1,0.1-1.9,0.6-2.8,1c-1,0.3-2,0.6-3,0.8c-2.1,0.4-4.3,0.5-6.5,0.4c-3.1-0.2-6.8-1-9.1-3.2
						c0.5-0.2,0.9-0.5,1.2-0.8c0.3-0.3,0.6-0.8,0.6-1.2c0,0,0,0,0,0c0,0,0,0,0,0c0,0,0.1-0.1,0.1-0.1c0,0,0,0,0.1-0.1
						c0,0,0.1-0.1,0.1-0.1c0,0,0-0.1,0-0.1c0,0,0-0.1,0-0.1c0,0,0,0,0-0.1c0,0,0,0,0,0c0,0,0,0,0,0c0,0,0,0,0,0c0,0,0-0.1-0.1-0.1
						c0,0,0,0,0,0c0,0,0,0,0,0c0,0,0-0.1,0-0.1c0,0,0-0.1-0.1-0.1c0-0.1-0.1-0.2-0.2-0.2c-0.3-0.1-0.5,0-0.8,0
						c-0.3,0-0.6,0.2-0.9,0.3c-0.3,0.1-0.6,0.2-1,0.1c-0.6-0.1-1.1-0.3-1.6-0.7c-0.5-0.3-0.8-0.8-1.2-1.2c-0.4-0.5-0.7-1.1-1-1.6
						c-0.1-0.2-0.4-0.1-0.5,0.1c0,0.1,0,0.1,0,0.2c0,0,0,0,0,0c-0.2,0.2-0.3,0.5-0.4,0.8c0,0.3-0.1,0.6-0.1,0.8
						c0,0.6,0.1,1.2,0.3,1.8c0.1,0.4,0.3,0.9,0.6,1.3c-3,0.4-6,0.5-9,0c-1.8-0.3-3.8-0.8-5.4-1.7c-0.6-0.3-1.3-0.7-1.8-1.3
						c-0.9-1.5-0.6-3.5,0.8-4.6c0.7-0.6-0.2-1.8-1-1.3c-2.4,1.8-5.8,2.8-8.8,3c-1.5,0.1-3.1,0.1-4.6-0.1c-0.9-0.1-1.7-0.4-2.5-0.8
						c-0.7-0.4-1.4-0.9-2.1-1.4c-0.1,0-0.1,0-0.2,0c0,0,0,0,0,0c-0.3-0.4-1,0-0.9,0.5c0.4,1.2,0.8,2.3,0.8,3.6
						c0,1.3-0.2,2.5-0.8,3.6c-0.7,1.2-1.6,2-2.7,2.7c-1.3,0.5-2.8,0.8-4.2,0.8c-1.9,0-4-0.3-5.6-1.3c-0.9-0.5-1.5-1-1.8-2.1
						c-0.1-0.3-0.1-0.7-0.1-1.1c-0.9,1.5-1.9,2.9-3.1,4.2c-1,1.1-2.1,2.2-3.3,3.1c-0.1,0.1-0.3,0.2-0.4,0.3
						c-2.3,0.9-3.6,2.4-0.1,2.4c14.3,0,28.7,0,43,0c15.2,0,30.5,0,45.7,0c4.2,0,8.5,0,12.7,0c4.3,0,8.7,0.2,13.1,0
						c1.3-0.1,1.4-1.9,0.2-2.1c-0.1-0.1-2.8-0.4-5.5-0.8C102,233.6,100.1,233.6,98.6,233.7z"/>
				</g>
			</g>
			<g>
				<path class="st5" d="M495.4,374.7c-3.2-0.8-6.7-1.6-9.2-3.9c-2.7-2.6-2.9-6.4-4.2-9.7c-1.2-2.9-3.2-5.7-6.5-6.1
					c-1.5-0.2-2.9,0.2-4.1,0.9c0.4-7.2-3.1-14.6-10.1-17.4c-8.5-3.4-17,3.1-21.5,9.9c-2.3,3.6-3.9,7.5-4.7,11.7
					c-1.8-2-4.2-3.8-6.7-4.3c-1.7-0.3-3.2,0.6-4.1,1.9c-0.4,0.5-0.6,1.1-0.8,1.7c-1.4-2.8-3.1-5.3-5.6-7.3c-3.1-2.4-7-3.7-10.9-2.8
					c-3.4,0.8-6.5,3.1-8.2,6.2c-2.3,4.1-0.9,8.7-1.8,13c-0.9,4-4.9,6.9-8.9,7.1c0,0-0.1,0-0.1,0c-0.2,0-0.5,0-0.7,0
					c-0.1,0-0.2,0-0.3,0.1c-0.3,0.1-0.4,0.4-0.4,0.7c0,0.4,0.2,0.7,0.7,0.7c14.1,0.1,28.2,0.3,42.4,0.3c14,0,65.5,0,65.5,0
					c0.7,0,1.1-0.6,1.1-1.1C496.4,375.7,496.2,374.9,495.4,374.7z"/>
				<g>
					<path class="st4" d="M493.7,376.8c-1.4,0.1-2.8,0-4.3-0.2c-2.9-0.4-5.6-1.5-8-3.1c-0.3-0.2-0.7-0.2-0.9,0c-2.3,1.5-5.2,2.6-8,2
						c-2.3-0.5-4.3-2.3-4.8-4.6c-0.1-0.6-0.8-0.8-1.3-0.5c-2,1.3-4.8,1-6.5-0.7c-1.7-1.9-1.6-5,0.1-6.8c0.6-0.6-0.2-1.8-1-1.2
						c-0.9,0.6-3.2,1.5-3.3-0.3c0-1-1.6-1-1.6,0c0.1,2.3-0.1,4.7-1.4,6.7c-0.6,0.9-1.3,1.6-2.2,2.1c-0.5,0.3-2.6,1.1-2.8,0.2
						c-0.1-0.7-1.1-0.8-1.5-0.2c-2.2,3.9-7.7,5.3-11.9,5.1c-4.5-0.2-9.3-3.4-8.7-8.5c0.1-0.7-0.9-1-1.3-0.6
						c-0.9,0.9-2.2,1.8-3.5,1.4c-0.9-0.2-1.7-1.1-1.6-2c0.1-0.2,0.1-0.5,0.2-0.7c0.2-0.8-1.1-1.5-1.4-0.6c0,0.1,0,0.1-0.1,0.2
						c0,0,0,0,0,0c0,0.1,0,0.2-0.1,0.3c0,0.1-0.1,0.2-0.1,0.3c-0.6,2-2,3.7-3.9,4.7c-1.8,0.9-5.2,1.2-6.1-1.1
						c-0.3-0.7-1-0.9-1.6-0.4c-1.7,1.4-4.8,0.4-6.2-1c-1.8-1.7-2.3-4.1-2.5-6.5c-0.2,2.6,0.1,5.3-0.5,7.9c-0.9,4-4.9,6.9-8.9,7.1
						c0,0-0.1,0-0.1,0c-0.2,0-0.5,0-0.7,0c-0.1,0-0.2,0-0.3,0.1c-0.3,0.1-0.4,0.4-0.4,0.7c0,0.4,0.2,0.7,0.7,0.7
						c14.1,0.1,28.2,0.3,42.4,0.3c14,0,65.5,0,65.5,0c0.6,0,0.9-0.4,1-0.8c-0.1,0-0.1,0-0.2,0C495.1,376.6,494.4,376.8,493.7,376.8z
						"/>
				</g>
			</g>
			<g>
				<path class="st5" d="M-31,143c2.4,0,3.4,0.2,5.5,0.2c2.9,0.1,5.8,0.1,8.8,0.1c4.7,0,9.3,0,14,0c16.6,0,33.3,0,49.9,0
					c8.4,0,16.8,0,25.2,0c4.2,0,8.3,0,12.5,0c2,0,4.1,0,6.1-0.1c1.2,0,2.3-0.1,3.5-0.2c1,0.2,2.1,0.3,3.3,0.2c0.6-0.1,0.6-0.9,0-0.9
					c0,0-0.1,0-0.1,0c0-0.1-0.1-0.2-0.2-0.2c-1-0.1-1.9-0.2-2.8-0.2c-3.1-0.9-5.7-3-7.5-5.7c-2.7-4.1-3.6-8.9-4.2-13.7
					c-0.5-4.4-0.7-8.8-1.9-13.1c-1.1-3.7-2.8-7.3-5-10.5c-4.6-6.4-11.6-10.7-19.5-11.2c-8-0.4-15.3,3.6-19.2,10.6
					c-2.9,5.2-3.6,11.2-2.4,16.9c-1.4-0.8-3-1.2-4.7-1.1c-2.5,0.1-4.6,1.3-6.2,3c-0.1-4.9-0.8-9.9-3.7-14c-2.9-4.1-7.5-6.9-12.7-6
					c-5.1,0.9-9.2,5-11.3,9.5c-2.8,6-2.6,13.3,0.4,19.2c-0.7-0.3-1.5-0.5-2.3-0.7c-5.7-0.9-8.8,3.9-11.3,8.2c-1.4,2.4-3,4.7-5.5,6.3
					c-1.8,1.2-3.9,1.9-6.1,2.3c-0.5,0-1,0.1-1.4,0.1c-0.3,0-0.8,0-1.1,0.2c-0.1,0-0.1,0.1-0.1,0.1C-31.5,142.5-31.4,143-31,143z"/>
				<g>
					<path class="st4" d="M-12.7,136.4c4.5-0.6,11.2-3.4,10.8-8.9c-0.1-1,1.3-1.2,1.8-0.5c1.1,1.6,3.3,2.4,5.2,1.8
						c2-0.6,3.4-2.5,3.4-4.6c0-1,1.3-1.3,1.8-0.5c2.7,4,8.6,3.4,10.6-0.8c0.5-0.9,1.9-0.4,1.9,0.5c0,2.7,0,5.6,1.2,8
						c0.9,1.9,2.7,3.7,5,3.8c2,0.1,4.1-1.2,4.8-3.1c0.7-1.8,0.1-3.8-1.1-5.1c-0.2-0.1-0.4-0.3-0.6-0.5c-0.9-1.1,0.4-2.5,1.6-1.6
						c0.6,0.7,1.6,0.2,2-0.5c0.3-0.5,0.3-1.1,0.2-1.7c-0.3-0.9-0.6-1.8-0.9-2.7c-0.5-1.4,1.6-1.9,2.2-0.6c0.3,0.7,0.6,1.5,0.8,2.2
						c1.5,4.3,3.7,8.7,8.3,10.2c5.2,1.7,11.1-1,13-6.2c0.3-0.8,1.1-0.9,1.7-0.4c1.3,1.1,2.9,2,4.7,1.9c1.3-0.1,2.8-1.1,3-2.5
						c0.2-1.5,2.1-1.5,2.3,0c0.5,3.8,5.1,4.9,8.1,3.3c2-1.1,3.4-2.7,4.3-4.6c0.6,4.5,1.5,8.9,4.1,12.7c1.8,2.7,4.4,4.8,7.5,5.7
						c0.9,0.1,1.9,0.2,2.8,0.2c0.1,0,0.2,0.1,0.2,0.2c0,0,0.1,0,0.1,0c0.6,0,0.6,0.8,0,0.9c-1.1,0.1-2.2,0-3.3-0.2
						c-1.2,0.1-2.3,0.2-3.5,0.2c-2,0.1-4.1,0.1-6.1,0.1c-4.2,0-8.3,0-12.5,0c-8.4,0-16.8,0-25.2,0c-16.6,0-33.3,0-49.9,0
						c-4.7,0-9.3,0-14,0c-2.9,0-5.8,0-8.8-0.1c-2.1,0-3.1-0.2-5.5-0.2c-0.5,0-0.6-0.5-0.3-0.7c0,0,0.1-0.1,0.1-0.1
						c0.3-0.2,0.8-0.1,1.1-0.2c0.5,0,1-0.1,1.4-0.1c2.2-0.4,4.3-1.2,6.1-2.3c1.3-0.8,2.4-1.9,3.3-3.1
						C-17,136.7-14.8,136.7-12.7,136.4z"/>
				</g>
			</g>
			<g>
				<path class="st5" d="M683.4,352.4c-2.2-0.1-10.1-0.9-11.6-1.2c-1.4-0.3-2.7-0.5-4.1-1c-2.9-1.1-4.9-3.2-7.1-5.2
					c-1.9-1.7-4-3.1-6.5-3.2c-1.5,0-3.1,0.4-4.2,1.4c-2.3-4.2-5.8-8.3-10.7-9c-3.4-0.5-7.2,0.7-9.2,3.4c-1.7-4.2-5.2-8.3-9.8-7.8
					c-2.2,0.2-3.9,1.4-5.2,3.1c0.4-9.7-3.6-19.7-12.2-24.9c-10.1-6-24.7-3.6-31,6.6c-2.2,3.5-3.3,7.5-4.1,11.5
					c-0.6,3.1-1.1,6.3-1.5,9.5c-1.1-2-2.6-3.7-4.5-5c-3.2-2.2-7-2.6-10.6-1.6c-3.7,1.1-6.8,3.4-8.6,6.9c-1.1,2.1-1.8,4.4-2.9,6.5
					c-1,1.8-2.4,3.5-3.9,4.9c-3.1,2.7-6.9,4.5-11,5.1c-0.6,0-1.3,0-1.9,0c-0.5,0-0.5,0.8,0,0.8c20.9,0.1,41.8,0.5,62.7,0.6
					c20.9,0.1,41.8,0.2,62.7,0.3c5.9,0,11.8,0.1,17.7,0c5.9-0.1,11.8-0.6,17.7-0.9C683.9,353.3,683.9,352.5,683.4,352.4z"/>
				<g>
					<path class="st4" d="M659.2,350.8c-3.6,0.1-6.9-1-9.8-3.2c-0.4-0.3-0.8-0.4-1.3-0.2c-1.6,0.8-3.5,1.3-5.3,1.5
						c-0.8,0.1-1.6,0.1-2.4,0.2c-0.1,0-0.2,0-0.2,0c-0.1-0.2-0.3-0.4-0.6-0.5c-3.6-0.9-8.7-2.1-9.1-6.6c-0.1-1.1-1.2-1.5-2-0.8
						c-4.8,3.8-12.1,1.8-14.3-3.9c-0.3-0.8-1.6-1.3-2.1-0.3c-0.8,1.7-3.1,2-3.8,0c0,0,0,0,0,0c0-0.1-0.1-0.2-0.1-0.3
						c-0.5-1.2-2.5-0.3-2.1,0.9c0,0.1,0.1,0.2,0.1,0.3c1.5,3.4-0.8,7.4-4.5,7.6c-1.6,0.1-3.9-0.5-4.6-2.1c-0.5-1-0.2-2.1,0.4-3.1
						c1-0.7,1.7-1.7,2-2.8c0.2-1-1.1-2-1.9-1.1c-0.6,0.7-1.2,1.4-1.7,2.2c-0.6,0.3-1.4,0.4-2.1,0.1c-1.3-0.7-1.6-2.4-1-3.6
						c0.5-1-0.8-2.3-1.7-1.3c-3.3,3.8-8.1,6.8-12.9,8.3c-3.2,1-11.4,2.8-12.6-2.1c-0.2-0.8-1.5-0.7-1.5,0.2c0,3-3.4,4.8-6.1,4.4
						c-3.2-0.4-4.7-3-6.7-5.1c-0.6-0.7-1.8,0.1-1.5,0.9c0.1,0.4,0.3,0.9,0.5,1.3c0.2,1.4-0.4,3.2-1.6,3.9c-1.4,0.8-3.5,0.3-4-1.3
						c-0.2-0.6-1.1-0.8-1.4-0.2c-0.6,0.9-3,2.7-4.1,2.3c-0.8-0.3-0.9-1.3-0.9-2.3c-0.9,1.2-1.8,2.3-3,3.3c-3.1,2.7-6.9,4.5-11,5.1
						c-0.6,0-1.3,0-1.9,0c-0.5,0-0.5,0.8,0,0.8c20.9,0.1,41.8,0.5,62.7,0.6c20.9,0.1,41.8,0.2,62.7,0.3c5.9,0,11.8,0.1,17.7,0
						c5.9-0.1,11.8-0.6,17.7-0.9c0.6,0,0.6-0.8,0-0.9c-2.2-0.1-10.1-0.9-11.6-1.2c-1.4-0.3-2.7-0.5-4.1-1c-0.6-0.2-1.1-0.5-1.6-0.7
						c-0.4,0.1-0.7,0.2-1.1,0.3C663.2,350.3,661.2,350.7,659.2,350.8z"/>
				</g>
			</g>
			<g>
				<path class="st5" d="M629.1,25.9c-1.4-0.2-2.8-0.6-4.2-0.7c-0.5,0-1.1-0.1-1.6-0.1c-2.4-1-4-3.8-6.4-5c-1.6-0.8-3.8-0.9-5.3,0.1
					c-0.5-1.5-1.1-3-2.4-4.1c-1.5-1.3-3.4-1.5-5.1-0.7c-2,1-3.1,3-3.8,4.9c-0.5,1.3-0.9,2.8-1.7,3.9c-1,1.3-2.3,1-3.7,1.5
					c-0.1,0-0.2,0.2-0.1,0.3c-0.1,0.2-0.1,0.4,0.2,0.5c2.8,0.2,5.7,0.2,8.5,0.2c2.9,0.1,24.2,0.5,25.7,0.3
					C629.6,27,629.6,25.9,629.1,25.9z"/>
				<g>
					<path class="st4" d="M626.1,25.9c-1.8,0-3.7,0-5.5,0c-3.3,0-7.3-0.4-8.5-4c-0.2-0.5-1-0.6-1.1,0c-0.4,2.1-4.6,2.3-4,0.1
						c0.2-0.6-0.8-1.1-1.1-0.4c-0.7,1.5-2.4,2.3-3.9,1.7c-1-0.4-1.7-1.3-1.9-2.3c-0.4,1.2-0.8,2.4-1.5,3.4c-1,1.3-2.3,1-3.7,1.5
						c-0.1,0-0.2,0.2-0.1,0.3c-0.1,0.2-0.1,0.4,0.2,0.5c2.8,0.2,5.7,0.2,8.5,0.2c2.9,0.1,24.2,0.5,25.7,0.3c0.5-0.1,0.5-1.2,0-1.2
						c-0.1,0-0.3,0-0.4-0.1C627.8,25.8,626.8,25.9,626.1,25.9z"/>
				</g>
			</g>
			<g>
				<path class="st5" d="M389,412.4c-0.2,0-0.3,0-0.5,0c-1.7-0.6-3.2-1.7-4.2-3.1c-1.1-1.6-1.7-3.5-2.4-5.3
					c-1.3-3.1-3.2-6.3-6.5-7.6c-3-1.3-6.3-0.7-8.4,1.9c-1.8,2.2-2.7,5-3.1,7.9c-0.6-1-1.3-1.8-2.3-2.3c-1.6-0.8-3.5-1.1-5.1-0.4
					c-4.5,1.6-4.5,9.1-9.8,9.1c-0.2,0-0.3,0.3-0.2,0.4c-0.1,0.1,0,0.3,0.2,0.3c7.1,0.1,14.1,0.1,21.2,0.2c3.5,0,7,0,10.5,0
					c3.6,0,7.1,0.4,10.7,0.1C389.7,413.4,389.7,412.5,389,412.4z"/>
				<g>
					<path class="st4" d="M380.5,410.3c-1.9-1-2.9-3.3-2.2-5.3c0.2-0.5-0.5-1-0.9-0.7c-1.3,1-2.5-0.1-3.1-1.3
						c-0.3-0.6-1.4-0.2-1.1,0.5c0.5,1.1,0.8,2.3,0.2,3.4c-0.6,1-1.6,1.7-2.6,2.2c-1.6,0.8-5.5,1.4-6.1-1.1c-0.1-0.5-0.8-0.4-1,0
						c-0.6,1.7-2.8,1.6-3.5,0.2c0-0.3-0.1-0.7-0.2-1c-0.2-0.5-1-0.2-1,0.3c0,0.4,0.1,0.7,0.2,1c0,0.5-0.3,1-0.7,1.2
						c-0.9,0.5-1.9-0.2-2.1-1.2c-0.1-0.5-0.6-0.8-0.9-0.4c-0.7,0.7-2.9,1.4-3.4,0.2c-1.3,2.2-2.6,4.2-5.4,4.2
						c-0.2,0-0.3,0.3-0.2,0.4c-0.1,0.1,0,0.3,0.2,0.3c7.1,0.1,14.1,0.1,21.2,0.2c3.5,0,7,0,10.5,0c3.6,0,7.1,0.4,10.7,0.1
						c0.7,0,0.7-1,0-1.1c-0.2,0-0.3,0-0.5,0c-1.1-0.4-2.1-1-3-1.8C383.9,411,382.2,411.2,380.5,410.3z"/>
				</g>
			</g>
			<g>
				<path class="st5" d="M76.5,39.3c5,0.3,10-0.2,14.9-0.2c4.9,0,9.7,0,14.6,0c9.8,0,19.7-0.1,29.5-0.2c0.3,0,0.4-0.3,0.2-0.5
					c0.2-0.2,0-0.6-0.3-0.6c-7.4,0-7.4-10.4-13.6-12.7c-2.3-0.9-5-0.5-7.2,0.6c-1.5,0.8-2.5,1.9-3.3,3.3c-0.6-3.9-1.9-7.9-4.4-10.9
					c-2.9-3.7-7.5-4.5-11.7-2.7c-4.5,1.9-7.2,6.3-9,10.6c-1,2.5-1.8,5.2-3.4,7.4c-1.4,2-3.5,3.6-5.9,4.4c-0.2,0-0.4,0-0.6,0
					C75.6,37.9,75.6,39.3,76.5,39.3z"/>
				<g>
					<path class="st4" d="M88.3,34.9c2.6-1.5,4-4.6,3-7.4c-0.2-0.7,0.6-1.4,1.2-1c1.9,1.4,3.5-0.1,4.4-1.8c0.4-0.8,1.9-0.2,1.5,0.6
						c-0.7,1.6-1.1,3.2-0.2,4.7c0.8,1.4,2.2,2.4,3.6,3.1c2.3,1.1,7.7,2,8.5-1.5c0.2-0.7,1.2-0.6,1.4,0c0.9,2.4,3.9,2.2,4.8,0.2
						c0-0.5,0.1-1,0.3-1.4c0.3-0.7,1.4-0.3,1.4,0.4c0,0.5-0.1,0.9-0.3,1.4c0,0.7,0.4,1.4,1,1.7c1.2,0.6,2.7-0.2,2.9-1.6
						c0.1-0.6,0.8-1.1,1.3-0.5c0.9,0.9,4.1,1.9,4.8,0.3c1.8,3,3.6,5.9,7.5,5.9c0.3,0,0.4,0.4,0.3,0.6c0.1,0.2,0,0.5-0.2,0.5
						c-9.8,0.1-19.7,0.2-29.5,0.2c-4.9,0-9.7,0-14.6,0c-5,0-10,0.5-14.9,0.2c-1-0.1-1-1.4,0-1.5c0.2,0,0.4,0,0.6,0
						c1.5-0.5,3-1.4,4.2-2.5C83.7,35.9,86,36.1,88.3,34.9z"/>
				</g>
			</g>
		</g>
		<g class="st3">
			<path class="st5" d="M763.9,402c-0.6-17.9-1.6-35.8-2.5-53.6c-0.9-17.9-1.8-35.7-2.7-53.6c-0.1-2.2-0.2-4.4-0.4-6.6
				c-0.1-1.1-1.1-1.6-2-1.2c-0.7,0.3-1.3,0.8-1.8,1.3c-0.3,0.1-0.6,0.3-0.8,0.5c-12.6-4.8-27.1-0.2-36,9.8
				c-8.6,9.6-13.1,23.8-9.9,36.4c1.1,4.2,3.1,8.2,6.1,11.2c-3.9,0.6-7.5,3-9,6.8c-1.8,4.5,0.1,9.7,3.8,12.7
				c-3.5,1.1-6.7,3.6-7.8,7.2c-0.7,2.4-0.5,4.9,0.5,7.1c-12.7-3.1-26.5-2.7-38.5,2.8c-12.3,5.7-21.2,17.5-23,31
				c-0.7,5.1-0.3,10.3,1.4,15.2c-2.7-1.7-5.8-2.7-8.9-1.7c-2.8,0.9-5.1,3.3-5.7,6c-9.1-5.2-21-5.5-30.2-0.3
				c-8.1,4.6-13.6,13.2-14.9,22.4c-2.6-2.6-6.5-4-10-4.8c-7.7-1.6-15.8-1.8-23.6-1.4c-8.1,0.4-16.2,1.8-24,4.1
				c-7.5,2.2-15.4,5-22.1,9.2c-4.7,3-9.8,7.9-10.4,13.5c-4.4-3.5-10.2-5.2-15.9-4.3c-5.4,0.9-10.2,4.1-13.3,8.6
				c-2.8-6.9-12.8-10-19.7-10.4c-10.2-0.6-20.5,2.7-28.5,8.9c-3.8,2.9-7,6.4-9.6,10.4c-4.5-6-14.5-5.5-20.3-1
				c-0.2,0.2-0.4,0.4-0.6,0.6c-0.1-0.2-0.3-0.4-0.4-0.5c-6.1-6.6-16.8-7.1-23.8-1.9c-8.6-9.6-19.3-17.6-31.5-21.8
				c-11.8-4.1-25-4.3-36.7,0.4c-5.5,2.2-10.6,5.4-14.8,9.5c-2.3-18.2-18.7-33.4-37-34.2c5.6-6.5,8.2-16.5,3.3-24.1
				c-4-6.2-12.7-9.5-19.5-6.4c1.1-7.3-0.6-15.5-6.2-20.7c-5.9-5.4-14.7-5.1-20.6,0.1c-2.4,2.2-3.9,5.1-4.1,8.2
				c-4.7-2.5-10.2-3.4-15.4-2.7c13.6-12.6,16-35.9,4.7-51c-7.3-9.7-18.6-15.6-30.5-17.2c-12.4-1.7-24.8,1.8-34.9,9.3
				c-10.6,7.9-18.1,19.5-21.6,32.2c-3.5-8.5-8.5-16.5-15.6-22.4c-6.6-5.4-14.9-8.8-23.4-8.7c4.1-4.4,5-12,0.5-16.6
				c-5.1-5.2-14-3.6-18.1,1.8c-4.4-9.1-14.4-15.2-24.6-14.1C3,309.4-5.8,317.8-7.5,328.2c-0.4,0.5-0.7,1-0.9,1.5
				c-0.2,0.6-0.2,1.4-0.2,2c-0.1,1.5-0.2,3-0.2,4.5c-0.2,3-0.3,6-0.4,9c-0.3,6-0.6,12-0.8,17.9c-0.6,12-1.1,23.9-1.7,35.9
				c-1.1,23.7-2.2,47.5-3.2,71.2c-0.3,6.6-0.6,13.3-0.9,19.9c-0.2,3.4-0.3,6.8-0.5,10.2c-0.1,2.3-0.3,4.6-0.3,6.8
				c-3.1,0.3-6.1,1.2-8.9,2.6c-1.3,0.7-1.1,3.1,0.4,3.3c12.9,1.9,25.9,1.2,38.9,0c13-1.2,25.9-2.5,38.9-3.3
				c26.2-1.5,52.5-1.6,78.7-1.3c53.1,0.8,106.1,2.5,159.2,3.8c28.4,0.7,56.8,1.3,85.3,1.8c-0.1,2,0.1,4,1.7,5.3
				c1,0.9,2.3,1.2,3.6,1.5c1.9,0.4,3.8,0.8,5.7,1.2c3.7,0.8,7.4,1.5,11.1,2.1c7.2,1.3,14.4,2.3,21.7,3.2c14.8,1.8,29.7,2.9,44.6,3.6
				c29.9,1.5,59.9,1.4,89.8,2.6c30.7,1.2,61.4,3.9,92.1,6.2c30.9,2.3,61.7,4.7,92.6,7c1.9,0.1,3.8,0.3,5.6,0.4
				c-0.1,0.4-0.2,0.9-0.3,1.3c-0.6,2.1-1.2,4.1-1.8,6.2c-0.6,1.9,2.2,2.6,2.9,0.8c1-2.6,1.8-5.3,2.5-8c0.8,0.1,1.6,0.1,2.4,0.2
				c2.1,0.2,2.1-3.1,0-3.3c-0.6,0-1.1-0.1-1.7-0.1c0-0.2,0.1-0.4,0.1-0.6c3.3-12.8,6.1-25.6,8.4-38.6c3-16.9,5.1-34,6.4-51.2
				C764.3,436.7,764.5,419.4,763.9,402z M-14.3,510.8C-14.3,510.8-14.3,510.8-14.3,510.8c1.3,0,2.6,0.1,3.8,0.2
				C-11.7,511-13,510.9-14.3,510.8z"/>
			<path class="st4" d="M159.4,458.9c-0.7,0.4-1.3,0.7-1.9,1.3c-0.5,0.5-1.1,0.9-1.8,1.2c-1.4,0.8-2.7,1.4-4.3,1.8
				c-1.6,0.4-3.2,0.5-4.8,0.4c-0.6,0-1.1-0.1-1.7-0.2c-1.2-0.4-2.3-0.9-3.3-1.7c-0.1-0.1-0.3-0.1-0.4-0.1c0.2-0.9,0.2-1.9,0.3-2.8
				c0-0.3-0.5-0.4-0.6-0.1c-0.4,1.1-0.9,2.3-1.5,3.4c-0.5,0.9-1.1,1.6-1.8,2.3c-1.5,1.6-3.5,2.3-5.7,2.5c-2.3,0.1-3.8-1.3-5-3.1
				c-0.5-0.7-1-1.5-1.4-2.3c2.6-0.5,5.1-1.2,7.5-2.3c2.1-0.9,4.1-2.1,6-3.5c0.9-0.7,1.8-1.4,2.7-2.2c0.5-0.4,1-0.9,1.3-1.4
				c0.1-0.1,0.1-0.3,0.2-0.4c1.4,1.2,3.2,2,5,2.3c2,0.3,4.1-0.1,5.9-0.9c1.9-0.8,3.9-1.9,5.3-3.4c0.7-0.7-0.2-1.8-1-1.3
				c-1.5,0.8-2.7,1.9-4.3,2.6c-1.5,0.7-3.1,1.2-4.8,1.1c-2.9-0.1-5.4-1.9-5.7-4.8c-0.2-1.5-2.4-2.1-2.8-0.4c-0.1,0.5-0.1,0.8,0,1.2
				c-0.8,1.4-2.2,2.2-3.6,3c-1.6,0.9-3.3,1.6-5,2.2c-3.4,1.2-6.9,1.9-10.5,2.1c-7,0.4-14.3-1.1-20.3-4.7c-1.5-0.9-3.2-2.1-4.1-3.7
				c-0.8-1.3-1.2-2.7-1.9-4.1c0.7-0.9,0.1-2-0.6-2.3c-0.1-0.1-0.3-0.1-0.4-0.1c-0.1,0-0.2,0-0.3,0.1c0,0-0.1,0-0.1,0
				c-0.3,0-0.4,0.1-0.6,0.2c-0.4,0.2-0.7,0.4-1,0.7c-0.6,0.4-1.2,0.8-1.8,1.1c-1.3,0.6-2.9,1-4.4,0.9c-1.5,0-3-0.3-4.3-0.8
				c-1-0.4-1.9-1-2.8-1.6c-0.1-0.2-0.3-0.4-0.4-0.6c-0.1-0.2-0.3-0.4-0.5-0.4c0,0,0-0.1-0.1-0.1c-0.4-0.7-0.8-1.5-1.2-2.2
				c-0.3-0.6-0.6-1.2-0.8-1.8c0-0.1,0-0.1,0-0.2c0-0.1-0.1-0.2-0.2-0.2c0,0,0-0.1-0.1-0.1c-0.2-0.4-0.7-0.1-0.7,0.2
				c-0.2,1.6-0.1,3.3,0.4,4.9c-0.1,0.7-0.4,1.4-0.8,1.9c-3.7,0.9-7.6,1.4-11.5,1.4c-2.3,0-4.5-0.1-6.7-0.6c-1-0.2-2-0.6-3-1
				c-0.6-0.2-1.2-0.5-1.8-0.8c-0.2-0.3-0.4-0.5-0.8-0.6c0,0-0.1,0-0.1,0c-0.5-0.2-1.2,0.1-1.4,0.6c-1,1.7,1.4,4.1,2.6,5.1
				c0.3,0.3,0.7,0.6,1.1,0.8c0.1,1.5-0.6,3.1-1.6,4.4c-1.6,2-3.6,3.6-5.3,5.4c-4.5-0.1-10.1,1.7-11.1,6.4c-0.1,0.6,0.5,1,1,0.6
				c1.7-1.4,3.5-2.7,5.6-3.4c1.4-0.4,2.8-0.5,4.3-0.4c0.1,0,0.1,0.1,0.2,0.1c1.3,0.5,3.2,0.5,4.3,1.5c0.5,0.4,0.7,1,0.7,1.6
				c0,0.8-0.5,1-1,1.4c-1.4,0.9-0.5,3,1.1,2.6c0.2,0,0.9,0.3,1,0.4c0.5,0.5,0.1,1.6-0.1,2.1c-0.4,1-0.9,2-1.6,2.8
				c-1.2,1.6-2.7,2.8-4.5,3.7c-0.1-0.1-0.3-0.1-0.4-0.2c-0.8-0.3-1.7,0.4-1.8,1.3c-0.1,1.1,0.8,1.8,1.5,2.6c0.7,0.8,1.3,1.7,1.9,2.5
				c1.2,1.8,2,4,2.6,6c1.2,4.2,1.3,8.5,0.3,12.8c-0.3,1.5,1.5,2.2,2.4,1c2.5-3.5,5.8-6.3,9.7-8.1c1.9-0.9,3.9-1.6,5.9-2
				c1-0.2,2-0.4,3-0.4c1.1,0,1.8,0.1,2.8-0.4c0.5,0.2,1.1,0.3,1.7,0.6c0.7,0.4,1.6-0.6,0.9-1.2c-0.5-0.4-0.6-1-1-1.5
				c-0.4-0.5-0.8-0.9-1.2-1.3c-0.7-0.9-1.3-1.8-1.8-2.8c-0.7-1.4-1.1-3-1-4.6c0.7-2.3,2.3-4.4,4.9-4.4c2.5,0,5.6,1.9,6.3,4.4
				c0.4,1.4,2.3,1,2.5-0.3c0.1-1.1,0.9-2.5,2.2-2.4c1.5,0.1,1.8,2,1.9,3.2c0.1,1.1,1.3,1.6,2.1,0.9c0.8-0.7,1.9-1.1,2.9-0.6
				c0.6,0.3,0.8,0.8,0.8,1.3c-0.3,0.7-0.3,1.4,0.2,2.1c0.3,0.4,0.9,0.3,1.3,0.2c0.7-0.3,1-1,1.7-1.3c0.9-0.4,2-0.1,2.9,0.1
				c2.1,0.4,4.1,0.7,6.2,0.3c2-0.4,3.7-1.6,5.2-3c0.9-0.8,1.8-1.7,2.6-2.5c0.8-0.8,1.7-1.8,2.7-2.3c0.3,0.1,0.6,0.2,0.9,0.5
				c0.7,0.5,1.1,1.3,1.3,2c0.2,0.7,0.3,1.5,0.2,2.3c-0.1,0.6-0.4,2.3-1.1,2.5c-0.8,0.3-1.3,1.3-0.8,2c0.6,1,1.7,1.2,2.7,1.6
				c1.1,0.4,2.1,1,3,1.7c1.7,1.4,3.3,3.1,4.4,5.1c1.2,2,2.2,4.3,2.3,6.7c0.1,2.4-0.3,5,0.2,7.3c0.1,0.6,0.8,0.9,1.3,0.8
				c-0.2,0.9-0.3,1.8-0.4,2.7c-0.2,1.6-0.2,3.2-0.6,4.8c-0.3,1.5-0.8,3.1-0.7,4.6c0,0.3,0.5,0.6,0.7,0.3c0.4-0.5,0.7-1,1-1.5
				c0.2,0.1,0.4,0.1,0.6-0.1c2.4-2.7,4.4-5.9,5-9.4c0.6-3.7,0.4-7.6-0.4-11.3c-0.9-3.6-2.5-7-4.8-10c-2.2-2.8-6.1-5.6-5.8-9.5
				c0.1-1.1,0.4-2,0.9-2.9c0.9-1.4,2.7-1.9,4.3-1.5c0.9,0.2,1.6,0.8,2.4,1.3c0.9,0.5,1.3,1.3,2,2c0.3,0.3,0.8,0.1,0.8-0.3
				c0-1-0.5-1.8-0.9-2.6c-0.5-0.9-1-1.6-1.9-2.2c-0.2-0.1-0.4-0.2-0.6-0.3c1.1-0.1,2.2-0.3,3.3-0.8c1.3-0.6,2.5-1.5,3.4-2.5
				c0.5-0.6,1.1-1.2,1.4-1.9c0.1-0.2,0.3-0.6,0.4-0.8c2.9,1.5,6.4,1.9,9.5,1.1c1.8-0.5,3.3-1.5,4.5-2.9c0.6-0.6,1.1-1.4,1.5-2.2
				c0.4-0.4,0.8-0.8,1.1-1.2c0.7-0.8,0.9-1.4,1.1-2.4C160.3,459.1,159.8,458.6,159.4,458.9z"/>
			<path class="st4" d="M58.3,370c-4,2.9-8.7,5.3-13.7,5.8c-2.5,0.2-5.2,0.1-7.6-0.5c-0.3-0.1-0.7-0.2-1-0.3c-0.9-0.4-1.7-1-2.4-1.6
				c-1-1-1.2-2.3-2.1-3.2c-0.6-0.7-1.5-0.2-1.7,0.5c0,0,0,0,0,0c-0.1,0.2-0.1,0.5-0.1,0.7c-0.1,0.1-0.1,0.1-0.2,0.2
				c-0.3,0.7-0.7,1.6-1.6,1.6c-1,0.1-1.4-1.2-1.5-2c-0.3-1.9-3-1.2-3.1,0.4c-0.3,3.4-2.9,6.3-6.2,6.9c-1.7,0.3-3.6,0.2-5.1-0.5
				c-1.4-0.5-2.4-1.8-2.8-3.2c0.1-0.3,0.3-0.6,0.3-1c0-0.4-0.2-0.6-0.2-1c0.1-0.7-1.1-0.8-1.2-0.2c-0.1,0.2-0.7,0.8-0.9,1.1
				c-0.3,0.4-0.7,0.8-1.2,1.1c-1.1,0.6-2.5,0.6-3.5-0.2c-0.9-0.7-1.5-1.7-2-2.7c-0.7-1.2-1.3-2.5-1.8-3.8c-0.1-0.4-0.8-0.3-0.7,0.1
				c0.1,0.7,0.2,1.5,0.3,2.2c-0.8-1.1-1.7-2.3-2.5-3.4c-2.1-2.9-4-6-5.6-9.3c-0.2-0.5-0.9-0.1-0.8,0.3c0.8,3.3,1.8,6.6,3.2,9.7
				c0.7,1.5,1.3,2.9,2.2,4.3c0.3,0.5,0.6,0.9,1,1.4c0.2,1.2,0.3,2.4,0.7,3.6c0.5,1.6,1.2,3.2,2,4.8c1.5,3,3.6,5.6,6.3,7.6
				c1.9,1.4,3.9,2.3,6,2.8c0.1,0.2,0.2,0.4,0.3,0.5c1,0.7,1.5,1.7,1.1,2.9c-0.6,1.5-1.9,2.7-2.9,3.9c-0.1,0.1-0.2,0.3-0.3,0.4
				c-1.8,0.8-4.3,2.2-4.2,4.3c0,0.2,0.1,0.3,0.3,0.3c0.9,0,1.6-0.4,2.4-0.8c1-0.5,2-0.9,3-1.2c2.1-0.6,4.3-0.9,6.4-1.1
				c2.2-0.2,4.5-0.4,6.7-0.3c1.2,0.1,2.2,0.4,3.4,0.6c1,0.2,2,0.3,3,0.5c0.6,0.2,1.2-0.5,0.9-1.1c-0.6-1-1.2-1.7-2.2-2.3
				c-0.8-0.5-1.7-0.7-2.7-0.9c-0.2-0.2-0.4-0.3-0.6-0.4c-1.5-0.4-3.1-0.9-4.5-1.7c-1.3-0.7-0.6-2.1,0-3c0.3-0.5,0.7-0.9,1.1-1.3
				c1.6-0.6,3.1-1.3,4.6-2.2c1.8-1.1,3.7-2.4,5.1-3.9c0.7-0.8,1.5-1.5,2.3-2.3c0.4-0.4,0.8-0.8,1.2-1.2c0.3-0.2,0.5-0.4,0.8-0.5
				c1.5,1.2,3.8,1.6,5.6,1.7c0.9,0,1.8-0.1,2.6-0.2c0.4,0.2,0.7,0.4,1,0.8c0,0.3,0.1,0.6,0.2,0.8c0.1,0.4,0.3,0.9,0.5,1.3
				c0,1.9-1,3.7-2,5.3c-0.7,1.2,1.1,2.8,2.1,1.6c2-2.6,5.5-3.2,8.6-3.4c1.1-0.1,1.4-1.3,0.5-1.9c-1.8-1.2-5.3-2.3-5.3-4.9
				c0-0.9,0.3-1.7,0.8-2.5c1.3-0.9,2.6-1.9,3.7-3c0.6-0.6,1.4-1.3,2.1-2.1c1.3-1.1,2.4-2.3,3.3-3.8C59.9,370.4,59,369.4,58.3,370z"
				/>
			<path class="st4" d="M175.4,417.1c-0.6,0-1,0.1-1.5,0.3c-0.5,0.1-0.8,0.1-1.4,0.2c-1.1,0.2-2.2,0.5-3.4,0.7
				c-1.7,0.3-3.7,0.1-5.2-0.9c-1.4-1-2.1-2.8-2.6-4.4c-0.3-0.9-0.5-1.7-0.8-2.6c-0.1-0.2-0.1-0.5-0.2-0.7c0.2-0.9,0.6-1.7,1.1-2.5
				c0.4-0.7,1-1.3,1.4-2c0.5-0.8,1-1.5,1.4-2.3c0.6-1-0.6-2.3-1.6-1.6c-1.3,0.9-2.7,1.7-4.2,2.1c-0.2,0.1-0.4,0.1-0.5,0.1
				c-0.3,0-0.6,0-1,0c-1.3-0.2-3.2-0.6-3-2.3c0.1-1.4-2-1.6-2.4-0.3c-0.6,1.8-2.7,2.9-4.4,3.5c-0.7,0.2-1.4,0.5-2.1,0.7
				c-1.8,0-3.6-0.1-5.4-0.5c-4-0.9-8.4-2.6-10.7-6.1c-0.3-0.6-0.4-1.3-0.7-1.9c-0.1-0.2-0.5-0.2-0.6,0.1c-0.2,0.7-0.1,1.6,0,2.3
				c0,0.2,0.1,0.3,0.1,0.5c0.1,1.7,0.2,3.2,0.8,4.8c0.6,1.6,1.4,3.2,2.5,4.4c2.1,2.2,5.6,3.4,8.5,3.8c3,0.4,6.1,0.1,8.9-0.8
				c0.3-0.1,0.5-0.2,0.8-0.3c0.5-0.1,1.1-0.4,1.6-0.6c0.1-0.1,0.2-0.1,0.3-0.2c0.4-0.2,0.8-0.4,1.3-0.6c0.1,0,0.2-0.1,0.2-0.1
				c0.5,0.3,0.8,0.6,1.2,1.3c0.2,0.3,0.1,0.2,0.1,0.1c0,0.1,0.1,0.2,0.1,0.3c0.1,0.2,0.1,0.4,0.1,0.6c0,0,0,0,0,0.1
				c0,0.1,0,0.2,0,0.3c0,0.3,0,0.6,0,0.8c-0.1,1.6-1.1,3.4-2,4.5c-1,1.2-2.2,2.5-3.7,3.1c-1.7,0.6-3.9,0.5-5.2-0.9
				c-0.2-0.2-0.5,0.1-0.4,0.3c1.1,1.6,2.9,2.7,4.9,2.9c2.2,0.2,4.4-0.5,6-2c1.3-0.4,2.9-0.2,4.3-0.2c2.1,0,4.3,0.1,6.4,0.1
				c1.3,0.5,2.8,0.6,4.2,0.4c1.4-0.2,2.7-0.5,3.9-1.2c0.5-0.3,1-0.6,1.4-1c0.5-0.5,1.2-0.7,1.7-1.3
				C176.1,417.6,175.9,417,175.4,417.1z"/>
			<path class="st4" d="M85.6,410.2c0.1-0.9-1.4-1.4-1.8-0.5c-0.6,1.5-2.6,2.5-4.2,2.3c-1.8-0.3-2.8-2-2.7-3.8
				c0.1-1.6-2.3-1.5-2.4,0c-0.3,2.7-2.5,4.8-5.1,5.4c-1.3,0.3-2.8,0.2-3.7-0.8c-0.8-0.9-0.9-2.3-1.8-3.1c-0.2-0.2-0.5-0.2-0.8-0.1
				c-1.3,0.6-1.2,2.2-0.8,3.5c-0.2,0.9,0.2,2.1,0.5,2.8c0.4,1.1,1.1,2.1,1.9,3c1.6,1.8,3.9,3,6.3,3.4c2.4,0.4,5-0.2,7-1.5
				c1-0.6,1.9-1.4,2.6-2.3c0.6-0.7,1.4-1.8,1.7-2.8c1.8-1.1,3-3.1,3.2-5.2c0,0,0,0,0,0c0,0,0,0,0,0
				C85.6,410.4,85.6,410.3,85.6,410.2z"/>
			<path class="st4" d="M153.4,359.5c-0.1-0.5-0.7-0.6-1.1-0.6c-0.1,0,0,0-0.1,0c-0.2,0-0.3,0-0.4,0c0,0,0,0-0.1,0
				c-0.1-0.1-0.3-0.2-0.4-0.2c-0.2,0-0.4-0.1-0.6-0.1c0,0-0.3-0.1-0.3-0.1c0.2,0.1,0.2,0.1,0,0c-0.2-0.1-0.4-0.1-0.6-0.1
				c-0.2,0-0.4,0-0.6-0.1c-0.1,0-0.2,0-0.3,0c0.2,0,0.3,0,0.2,0c-0.1,0-0.1,0-0.2,0c-0.1,0-0.1,0-0.2,0c0.2-0.2,0.3-0.4,0.3-0.7
				c0.1-0.5-0.2-0.8-0.7-0.9c-0.2,0-0.4,0-0.6,0c-0.3,0-0.3,0-0.7-0.1c-0.3,0-0.5,0-0.7-0.3c-0.5-0.5-1.6-0.5-2,0.3
				c-0.3,0.6-0.6,1-1.1,1.3c-0.1,0.1-0.2,0.1-0.4,0.2c0.1,0,0.1,0-0.1,0c0.1,0,0.1,0-0.1,0c-0.1,0-0.3,0-0.4,0c-0.1,0-0.4,0-0.4,0
				c-0.1,0-0.3-0.1-0.4-0.1c-0.1,0-0.5-0.3-0.2-0.1c-0.3-0.2-0.6-0.3-0.9-0.5c0,0-0.1,0-0.1-0.1c-0.1-0.1-0.2-0.2-0.4-0.3
				c-0.1-0.1-0.2-0.1-0.4-0.2c-0.6-0.3-1.5-0.5-2,0.1c-0.6,0.6-0.5,1.5-0.2,2.2c0.3,0.6,0.8,1,1.4,1.3c1,0.7,2.3,0.8,3.4,0.6
				c0.5-0.1,1-0.3,1.3-0.5c0.3-0.2,0.8-0.4,1.2-0.7c0.2-0.1,0.3-0.2,0.4-0.4c0.4,1.1,2,1.5,3,1.7c0.6,0.1,1.3,0.2,2,0.1
				c0.6-0.1,1.1-0.2,1.6-0.6C152.5,360.7,153.6,360.2,153.4,359.5z"/>
			<path class="st4" d="M682.7,412.7c-0.1-0.5-0.7-0.6-1.1-0.6c-0.1,0,0,0-0.1,0c-0.2,0-0.3,0-0.4,0c0,0,0,0-0.1,0
				c-0.1-0.1-0.3-0.2-0.4-0.2c-0.2,0-0.4-0.1-0.6-0.1c0,0-0.3-0.1-0.3-0.1c0.2,0.1,0.2,0.1,0,0c-0.2-0.1-0.4-0.1-0.6-0.1
				c-0.2,0-0.4,0-0.6-0.1c-0.1,0-0.2,0-0.3,0c0.2,0,0.3,0,0.2,0c-0.1,0-0.1,0-0.2,0c-0.1,0-0.1,0-0.2,0c0.2-0.2,0.3-0.4,0.3-0.7
				c0.1-0.5-0.2-0.8-0.7-0.9c-0.2,0-0.4,0-0.6,0c-0.3,0-0.3,0-0.7-0.1c-0.3,0-0.5,0-0.7-0.3c-0.5-0.5-1.6-0.5-2,0.3
				c-0.3,0.6-0.6,1-1.1,1.3c-0.1,0.1-0.2,0.1-0.4,0.2c0.1,0,0.1,0-0.1,0c0.1,0,0.1,0-0.1,0c-0.1,0-0.3,0-0.4,0c-0.1,0-0.4,0-0.4,0
				c-0.1,0-0.3-0.1-0.4-0.1c-0.1,0-0.5-0.3-0.2-0.1c-0.3-0.2-0.6-0.3-0.9-0.5c0,0-0.1,0-0.1-0.1c-0.1-0.1-0.2-0.2-0.4-0.3
				c-0.1-0.1-0.2-0.1-0.4-0.2c-0.6-0.3-1.5-0.5-2,0.1c-0.6,0.6-0.5,1.5-0.2,2.2c0.3,0.6,0.8,1,1.4,1.3c1,0.7,2.3,0.8,3.4,0.6
				c0.5-0.1,1-0.3,1.3-0.5c0.3-0.2,0.8-0.4,1.2-0.7c0.2-0.1,0.3-0.2,0.4-0.4c0.4,1.1,2,1.5,3,1.7c0.6,0.1,1.3,0.2,2,0.1
				c0.6-0.1,1.1-0.2,1.6-0.6C681.8,413.9,682.9,413.5,682.7,412.7z"/>
			<path class="st4" d="M17.5,480.3c-1.7,1.5-3.8,0.8-5.1-0.7c-0.6-0.7-1.1-0.8-1.9-0.7c-0.2,0-0.2,0.1-0.1,0.1
				c-0.1,0-0.3,0-0.4-0.1c-0.3,0-0.5,0.1-0.8,0.2c-0.6,0.2-1.1,0.5-1.7,0.8c-2,1-4.2,1.3-6.5,0.8c-1.1-0.2-2.1-0.7-3-1.3
				c-0.9-0.5-1.7-1.3-2.7-1.6c-0.4-0.1-0.8,0.2-0.8,0.6c0,1,0.6,2,1.4,2.8c-1.4-0.4-2.8-0.6-4.2-0.8c-1.2-0.1-1.7,1.7-0.6,2.2
				c1.8,0.9,3.6,2,5.4,2.9c1.6,0.9,3.2,2.1,5,2.6c3.5,0.9,6.7-1.9,9.4-4.1c1.3,0.5,2.7,0.7,4,0.3c1.8-0.4,2.6-1.7,3.5-3.2
				C19,480.5,18.1,479.8,17.5,480.3z M1.9,484.2c1,0.2,2,0.2,3,0.1C3.9,484.7,2.9,484.7,1.9,484.2z"/>
			<path class="st4" d="M213.1,431.8c0-0.1-0.1-0.3-0.2-0.3c-0.5-0.4-1.3,0-1.7,0.4c0,0,0,0-0.1,0.1c-0.1,0-0.2,0-0.3,0.1
				c-0.1,0.1-0.2,0.1-0.3,0.2c-2.5,0.7-5.1,1.2-7.7,1.1c-1.2-0.2-2.3-0.6-3.3-1.2c-2.8-1.6-5.5-3.8-6.9-6.8
				c-0.3-0.7-0.5-1.4-0.9-2.1c-1-2-4.2-0.6-3.6,1.5c0.1,0.2,0.1,0.3,0.2,0.5c0,0.6,0.2,1.3,0.3,1.9c0.2,1.4,0.6,2.8,1.1,4.1
				c0.8,2.3,2.1,4.6,3.9,6.3c0.6,0.5,1.2,1,1.8,1.4c-1.4,0.6-2.9,1.1-4.6,1.1c-1.7,0-3.5-0.3-4.9-1.2c-1.6-1-2.4-2.8-3.7-4.1
				c-0.1-0.1-0.4-0.1-0.5,0.1c-1.1,2,0.4,4.6,1.8,6c1.8,1.7,4,2.5,6.4,2.8c0.2,0,0.3,0,0.5,0c0.1,0.1,0.1,0.3,0.2,0.4
				c0.1,0.3,0.3,0.5,0.5,0.8c0.3,0.4,0.7,0.8,1,1.3c0.7,0.9,1.3,1.8,2.2,2.5c0.3,0.2,0.8,0.1,1.1-0.1c0.3-0.3,0.5-0.7,0.4-1.1
				c-0.2-1,1.3-1.6,2.1-1.9c1-0.4,2-0.9,2.7-1.7c0.6,0.4,1.3,0.7,2.1,0.9c1.4,0.3,2.9,0.2,4.2-0.4c1.1-0.5,2.3-1.5,2.9-2.6
				c0.2-0.3-0.1-0.6-0.4-0.5c-0.5,0.1-0.9,0.2-1.4,0.3c-0.5,0.1-1,0.2-1.5,0.3c-0.9,0.2-1.8,0.4-2.7,0.2c-0.7-0.2-1.2-0.6-1.8-1.1
				c-0.1-0.1-0.3-0.3-0.4-0.5c2-0.1,3.9-0.8,5.8-1.7c2-1.1,3.8-2.6,5.1-4.5C212.9,433.5,213.5,432.5,213.1,431.8z"/>
			<path class="st4" d="M232.6,496.5c-0.2-2.8,1.4-5.4,3.2-7.4c0.4-0.4,0.8-0.7,1.1-1.1c0.9-1-0.5-2.5-1.5-1.5
				c-2.2,2.4-5.2,2.9-8.3,3.1c-2.2,0.1-7.4-0.3-7.4-3.4c0-1.2-1.5-1.5-2.1-0.6c-4.1,6.3-13.3,7.7-18.4,2c-0.2-0.9-1.4-1.4-2.3-0.9
				c-1.2,0.7-1.1,2-0.4,3c0.1,1.2-0.8,2.3-2,2.4c-0.7,0.1-1.1,1.1-0.7,1.7l0.3,0.4c-2.2,4.2-6.1,7.3-10.8,8.3
				c-1.8,0.4-1.2,2.9,0.4,3c2.9,0.3,5.9,0.4,8.8,0.6c2.7,0.2,5.4,0.4,8.1,0.5c4.1,0.1,8.6-0.5,11.5-3.6c6.1-0.3,12.1-0.7,18.2-1.2
				c0.4,0,0.8-0.2,1.1-0.5c1.3,2.1,3.4,3.7,5.6,2.1c0.3-0.2,0.3-0.5,0.1-0.8C235,500.7,232.7,499.4,232.6,496.5z"/>
			<path class="st4" d="M322.7,500.1c-1.7,0.8-4.2,0.2-5.7-1c-0.8-0.6-1.3-1.4-1.6-2.4c-0.2-0.5-0.1-1-0.2-1.5
				c-0.1-0.5-0.5-0.8-0.5-1.4c0-0.7-0.8-1.4-1.5-1.2c-1.3,0.4-2.5,0-3.5-0.9c-0.5-0.5-1.3-0.6-1.9-0.2c-1.3,0.8-2.5,1.9-4.1,2.3
				c-1.7,0.4-3.5-0.6-4.3-2c-0.2-0.3-0.5-0.3-0.7-0.1c-1,0.9-2,1.8-3.1,2.6c-0.9,0.6-1.8,1-2.7,1.6c-1.8,1.2-3.4,2.7-5.3,3.8
				c-0.8,0.5-1.7,1-2.6,1.1c-0.7,0.1-1.5,0.2-1.7,1c-0.2,1,0.8,1.6,1.5,1.2c0.2,0.1,1.5,0.1,1.7,0c0.6-0.1,1.3-0.3,1.9-0.6
				c0.7-0.3,1.3-0.7,1.9-1.1c-0.2,0.5-0.4,1-0.5,1.5c0,0.3,0.2,0.6,0.5,0.5c0.4-0.1,0.9-0.3,1.3-0.5c0.4-0.3,0.8-0.6,1.1-0.9
				c0.5-0.4,0.9-0.8,1.3-1.2c0.4,0.3,1,0.4,1.5,0.2c0.2-0.1,0.4-0.2,0.5-0.2c0.9,0.9,2.3,0.5,3.4,0.2c1.5-0.3,3.1-0.3,4.6-0.2
				c2.6,0.1,5.1,0.5,7.6,0.3c0,0,0,0,0,0.1c0.4,1.3,2.3,1.4,2.9,0.4c0.3,0.4,0.7,0.7,1.2,1c2.5,1.8,5.6,1.2,7.9-0.5
				C324.9,501.1,323.9,499.5,322.7,500.1z"/>
			<path class="st4" d="M447.9,496.6c2.1-2.1,3.7-4.8,4.5-7.6c0.3-0.9-0.8-1.7-1.6-1.2c-0.7,0.4-3.2,1.9-3.2,0.1
				c0-0.5-0.8-0.8-1-0.3c-0.8,1.5-2.8,2.6-4.5,2.5c-1.4-0.1-3.4-1.1-3.4-2.6c-0.1-0.7-1.2-1-1.4-0.2c-0.2,1-0.1,2,0.2,2.8
				c-0.1,0.5-0.3,0.9-0.5,1.3c-0.8,1.1-1.8,1.8-3.1,2.2c-1.1,0.4-2.3,0.5-3.3-0.1c-0.5-0.2-0.9-0.5-1.3-0.9c-0.5-0.6-0.7-1-1.6-1.2
				c-0.9-0.2-2.1,0.4-2,1.5c0.1,0.6,0.2,1,0.5,1.3c0.1,0.4,0.2,0.9,0.2,1.3c0,1.1-0.8,2.1-1.5,2.9c-1.8,2-3.8,3.8-5.8,5.7
				c-1,1,0.1,2.3,1.2,2.1c8-1.2,15.9-2.4,23.9-3.7c0.4-0.1,0.6-0.3,0.8-0.5c1.1,1.5,2.8,2.5,4.7,2.4c1.1-0.1,1.3-1.5,0.3-1.9
				c-1.2-0.5-2.4-1.1-3.1-2.2c-0.3-0.5-0.7-1.3-0.6-1.9C446.5,497.6,447.4,497.1,447.9,496.6z"/>
			<path class="st4" d="M757.6,506.4c-0.1-0.6-0.4-1.1-0.7-1.6c-0.3-0.6-1.1-0.6-1.5-0.2c-0.1,0.1-0.1,0.1-0.2,0.2
				c0-0.4,0-0.8,0-1.2l0.2-13.4c0.1-9.1,0.3-18.2,0.4-27.3c0-1.5-1.7-2-2.7-1.1c-2.1,1.8-4.5,4.5-5,7.4c-0.3,0.4-0.6,0.8-0.9,1.3
				c-0.9,1.3-1.7,2.5-2.8,3.6c-2.3,2.5-5.2,4.4-8.3,5.6c-3.4,1.3-7.1,1.8-10.7,1.6c-1.7-0.1-3.5-0.3-5.1-0.8c-1-0.3-3-2-1.3-2.9
				c1-0.6,0.3-2.4-0.8-1.9c-1.4,0.5-3.2-0.7-3.7-2.1c-0.5-1.8,0.8-3.2,1.2-4.9c0-0.2,0-0.5-0.2-0.7c0.2-0.2,0.3-0.3,0.5-0.5
				c0.3-0.3,0-0.9-0.5-0.8c-2.2,0.6-4.4,1.3-6.6,1.7c-1.8,0.3-3.7,0.1-5.1-1c-1.8-1.3-1.7-3.5-1.4-5.5c0.2-1.2,0.5-2.4,0.8-3.6
				c0.3-1.2,0.2-2.5,0.7-3.7c0.3-0.7-0.9-1.1-1.2-0.5c-1.1,2.3-4.5,1.8-4.6-0.9c0-0.7-0.9-0.9-1.3-0.3c-0.2,0.3-0.7,0.5-1,0.8
				c-0.4,0.4-0.8,0.8-1.3,1.1c-0.8,0.7-1.6,1.3-2.7,1.6c-1,0.2-2.3,0-3.2-0.6c-0.2-1-0.6-2.1-1.1-3c-0.4-0.8-1.9-0.7-2,0.3
				c-0.2,1.4,0.2,2.7,1.1,3.8c0.3,1.9,0,3.8-0.9,5.5c-0.7,1.3-1.7,2.4-2.9,3c-1.3,0-2.7-0.3-4-0.7c-3.1-1.2-5.5-3.9-6.8-6.9
				c-0.7-1.5-1.1-3.2-1.2-4.9c-0.1-1.3,0.5-3.3-0.4-4.4c-0.2-0.2-0.4-0.2-0.6-0.1l0,0c-0.4,0.2-0.6,0.5-0.8,1
				c-1,0.8-2.8,1.2-3.7,1.7c-1.3,0.7-2.6,1.4-3.9,2.1c-2.5,1.4-5.2,2.5-8,3.2c-2.7,0.7-5.5,0.9-8.3,0.5c-1.2-0.2-2.4-0.5-3.6-1
				c-1.2-0.5-2.1-1.4-3.3-1.9c-0.3-0.1-0.8,0-0.8,0.4c0.1,0.7,0.3,1.3,0.7,1.9c0.1,0.5,0.2,0.9,0.4,1.4c0.3,0.6,0.5,1.2,0.7,1.9
				c0.4,1.3,0.7,2.6,0.8,4c0.1,2.6-0.3,5.2-1.5,7.6c-0.6,1.1,0.4,2.4,1.6,2.1c1.6-0.4,3,1,3.4,2.4c0.5,1.8-0.3,3.7-1.5,5.1
				c-1.2,1.4-2.7,2.3-4.4,3.1c-1.8,0.8-3.7,1-5.6,1.6c-2,0.6-2.8,2.1-3.7,3.9c-0.9,1.7-1.8,3.5-2.7,5.2c-1.8,3.2-4.3,6.4-7.8,7.8
				c-1.9,0.8-3.7,0.7-5.7,0.3c-1.8-0.4-3.8-0.6-4.8,1.3c-0.2,0.4,0,0.8,0.4,0.9c-0.1,0.7,0.4,1.6,1.3,1.7c2.4,0.3,4.8,0.1,7.2,0
				c2.4,0,4.8-0.1,7.2-0.2c4.7-0.1,9.5-0.2,14.2-0.3c9.5-0.2,18.9-0.3,28.4-0.3c19-0.1,38.1-0.2,57.1,0.4c9.5,0.3,19.1,0.8,28.6,2
				c0,0.8,0,1.5,0,2.3c0,1.2,0,2.3,0,3.5c0,1.2,0.2,2.1,0.5,3.2c0.3,1,1.6,0.9,1.9,0c0.4-1.1,0.6-2.1,0.6-3.2
				c0.1-1.2,0.1-2.3,0.1-3.5c0-0.6,0-1.3,0-1.9c0,0,0.1,0,0.1,0C756.7,508.8,758,507.9,757.6,506.4z"/>
			<path class="st4" d="M760.4,428.9c-0.5-0.5-0.8-1.2-1.4-1.5c-0.6-0.3-1.4-0.5-2.1-0.6c-0.4-0.1-0.9-0.1-1.3-0.1
				c0.1-0.2,0.2-0.4,0.3-0.6c0.2-0.4,0-0.8-0.5-0.8c-0.3,0-0.7,0-1,0c-0.1-0.1-0.1-0.2-0.2-0.3c-0.1-0.2-0.2-0.4-0.4-0.6
				c0.3-0.5,0.5-1,0.6-1.5c0.3-1.7-0.4-2.8-1-4.3c-0.9-2.3-0.2-4.9,1.6-6.5c0.2-0.2,0.3-0.5,0.4-0.7c0.3-0.3,0.4-0.8,0.3-1.3
				c0.1-0.6-0.4-1.2-1.1-1.2c1-0.9,1.9-1.9,2.7-2.9c0.6-0.8-0.6-1.9-1.3-1.3c-2.9,2-5.8,5.5-9.7,5c-3.4-0.4-5.5-4-5.6-7.1
				c0-0.9-1-1.6-1.8-1.1c-2.5,1.6-6.8,3.9-9.2,0.8c-0.5-0.7-1.4-0.9-2.1-0.3c-2.6,2.4-5.7,0-8.5-0.5c-0.8-0.2-1.4,0.7-1,1.4
				c-0.1,0.2-0.1,0.5,0,0.7c0.7,1.1,1.7,1.9,2.4,3.1c0.7,1.2,1,2.5,1.1,3.9c0.1,1.6,0.2,3.3-0.2,4.9c-0.3,1-0.6,1.9-1.1,2.7
				c-0.2,0.4-0.5,0.8-0.8,1.1c-0.4,0.3-0.7,0.7-1.1,1.1c0,0,0,0,0,0c0,0,0,0,0,0c0,0.1-0.1,0.1-0.1,0.2c0,0,0,0,0,0
				c-0.4,0.7,0.4,1.8,1.2,1.2c1.8-1.3,3.5-2,5.7-1.7c2.1,0.3,4.2,1.3,5.7,2.8c1.8,1.8,2.6,4.1,1.2,6.3c-1.2,1.9-2.8,3.5-3.4,5.8
				c-0.2,1,1,2.3,2,1.5c2.3-1.8,5.3-2.5,8.2-2.1c1.4,0.2,2.6,0.9,3.9,1.3c1.4,0.4,2.7,0.1,3.8-0.9c1-0.8,1.6-2,2.4-2.9
				c0.9-0.9,2-1.6,3.2-2c1.2-0.4,2.4-0.5,3.6-0.5c0.7,0,1.3,0.2,1.9,0.4c0.7,0.2,1.3-0.1,2,0.1C760.4,430,760.8,429.3,760.4,428.9z"
				/>
			<path class="st4" d="M752.6,330.8c-0.1,0-0.2,0.1-0.3,0.1c-0.1-0.1-0.3-0.3-0.4-0.3c-0.3-0.1-0.6-0.2-0.9-0.2
				c0.9-1.1,1.7-2.3,1.7-3.6c0-0.3-0.3-0.5-0.6-0.3c-1.6,1.2-2.5,3-4.1,4.2c-1.6,1.2-3.6,2.1-5.6,2.1c-1.9,0-3.9-0.3-5.5-1.2
				c-0.9-0.5-1.6-1.1-2.3-1.8c-0.7-0.7-2-1.8-2.1-2.8c-0.1-0.4-0.7-0.3-0.7,0.1c0,0.4,0,0.8,0,1.2c-0.4-0.2-0.8,0.4-0.4,0.7
				c0.1,0.1,0.3,0.2,0.4,0.3c0.1,0.6,0.3,1.1,0.6,1.6c0.5,0.8,1.2,1.5,1.9,2.1c0.3,0.8,0.5,1.7,0.6,2.6c0.2,3-1,5.7-2.9,8
				c-1,1.3,0.5,2.8,1.8,1.8c1.4-1.1,3.3-3.4,5.2-1.7c1.7,1.6,0.5,4-0.4,5.7c-0.4,0.8,0.6,1.6,1.2,0.9c1.6-1.6,4.7-2.5,6.9-1.6
				c1,0.4,2,1,2.7,1.8c0.8,0.8,1.4,1.6,2.4,2c0.4,0.2,1-0.2,1.1-0.6c0.3-1.4-0.4-2.6-1.4-3.5c0.1-0.1,0.1-0.2,0.2-0.4
				c0.2-0.5,0-1-0.3-1.3c-0.2-0.2-0.4-0.3-0.6-0.3c-0.1,0-0.1,0-0.1,0c0-0.2,0-0.4,0-0.4c-0.2-1.5-0.3-3.1-0.5-4.6
				c-0.2-1.5-0.5-3-0.4-4.5c0.1-1.3,0.7-2.3,1.7-3.1c0.2-0.1,0.3-0.3,0.4-0.5c0.1-0.1,0.3-0.3,0.4-0.4c0,0,0,0,0-0.1
				c0.2-0.2,0.3-0.3,0.3-0.5c0.2-0.1,0.3-0.2,0.5-0.3C753.6,331.5,753.2,330.6,752.6,330.8z"/>
			<path class="st4" d="M578.3,472.9c-1.2,0.7-2.7,1.3-4.1,1c-1.3-0.3-2.3-1.4-2.2-2.8c0.1-1-1.4-1-1.6,0c-0.2,1.3-1.8,2.5-2.8,3.1
				c-1.5,0.9-3.3,1.6-5,1.8c-2.1,0.2-3.3-1-4.7-2.2c-1.5-1.3-2.9-2.6-4.4-3.9c-0.9-0.8-2.2-0.9-3.1,0c0,0,0,0.1-0.1,0.1
				c-0.6,0-1.3,0.4-1.4,1.1c-0.4,2,0.7,3.8,1.6,5.5c0.9,1.6,2.1,3.1,3.3,4.5c2.7,2.8,6.2,5.3,10.3,5.2c7-0.2,13.1-6,15.3-12.4
				C579.8,473.2,579,472.6,578.3,472.9z"/>
			<path class="st4" d="M692.4,423.5c-0.2-0.1-0.3-0.2-0.4-0.3c-0.2-0.2-0.5-0.2-0.8-0.3c-0.3-0.2-0.5-0.4-0.7-0.7
				c-0.3-0.6-1.3-0.6-1.6,0c0,0.1-0.1,0.1-0.1,0.2c-0.4,0.3-0.7,0.7-1.2,1c-0.5,0.3-1,0.4-1.5,0.4c0,0,0,0,0,0c-0.1,0-0.1,0-0.2,0
				c-0.1,0-0.2,0-0.2-0.1c0.1,0,0.1,0-0.1,0c-0.3-0.2-0.4-0.2-0.6-0.4c-0.2-0.2-0.3-0.3-0.4-0.6c-0.5-0.7,0.2,0.3-0.2-0.4
				c-0.1-0.1-0.2-0.2-0.3-0.3c0,0-0.1,0-0.1,0c-0.2-0.2-0.5-0.2-0.7,0c-0.3,0.2-0.5,0.4-0.5,0.8c0,0.4,0,0.7,0.1,1
				c-0.2,0.9,0.1,1.8,0.6,2.5c0.7,1,1.8,1.8,3,2c1.3,0.2,2.6,0.1,3.7-0.7c0.5-0.4,1-0.8,1.3-1.4c0.3-0.5,0.5-1.1,0.4-1.6
				c0.2-0.1,0.4-0.3,0.6-0.5C692.7,423.9,692.6,423.6,692.4,423.5z"/>
			<path class="st4" d="M556.9,477.9c-0.1-0.1-0.2-0.1-0.3-0.2c-0.1,0-0.1,0-0.2,0c-0.1,0-0.2,0-0.2,0c-0.1-0.1-0.2-0.2-0.4-0.2
				c-0.1-0.1-0.2-0.2-0.4-0.3c-0.1-0.1-0.2-0.1-0.4-0.1c-0.2,0-0.4-0.1-0.5-0.1c0,0,0,0,0,0c0.1,0,0.1,0,0.2,0c-0.1,0-0.1,0-0.2,0
				c-0.1,0-0.1-0.1-0.2-0.1c-0.3-0.1-0.8,0-1.1,0.1c-0.3,0.2-0.6,0.5-0.6,0.8c-0.1,0.4,0,0.7,0.1,1.1c0.1,0.1,0.2,0.3,0.3,0.4
				c0,0,0,0,0.1,0c-0.3,0.5-0.6,1-1,1.4c-0.8,0.9-1.7,1.7-2.9,2c-1,0.2-2.3,0-3-0.5c-0.5-0.4-0.8-0.9-1-1.5c-0.2-0.3-0.3-0.7-0.5-1
				c-0.2-0.3-0.5-0.6-0.6-0.9c-0.1-0.2-0.4-0.1-0.5,0.1c-0.1,0.5-0.4,0.9-0.4,1.4c-0.1,0.5,0,1,0.1,1.4c0.1,0.4,0.2,0.8,0.4,1.2
				c-0.2,0-0.4,0.1-0.6,0.2c-0.2,0.1-0.3,0.2-0.5,0.3c-0.1,0.1-0.2,0.1-0.3,0.1c0,0,0,0,0,0c-0.4,0.1-0.8,0.3-1.2,0.3
				c-0.1,0-0.2,0-0.3,0.1c0,0,0,0,0,0c0,0,0,0,0,0c-0.2,0-0.4,0-0.6,0c-0.2,0-0.4,0-0.7,0c-0.1,0-0.1,0-0.2,0c0,0-0.1,0-0.2,0
				c-0.4-0.1-0.8-0.2-1.2-0.3c-0.4-0.1-0.5-0.2-0.9-0.4c-0.5-0.3-1-0.8-1.6-1c-0.1-0.2-0.1-0.4,0-0.7c0.1-0.2-0.2-0.3-0.4-0.2
				c0,0,0,0.1-0.1,0.1c0,0,0,0,0,0c-0.1,0.1-0.2,0.2-0.4,0.3c-0.1,0-0.1,0.1-0.2,0.1c-0.1,0-0.2,0.1-0.1,0.1c0.1,0,0.2,0.1,0.3,0.1
				c-0.2-0.1-0.4-0.1-0.5-0.1c0,0-0.3,0-0.3,0c-0.2,0-0.4,0-0.6,0c-0.3,0-0.5,0-0.8,0c0,0-0.1,0-0.1,0c0,0-0.1,0-0.1,0
				c-0.1,0-0.3-0.1-0.4-0.1c0,0,0,0,0,0c0,0,0,0,0,0c-0.1,0-0.1-0.1-0.2-0.1c-0.1-0.1-0.3-0.2-0.4-0.2c0,0,0,0,0,0c0,0,0,0,0,0
				c-0.1,0-0.1-0.1-0.2-0.1c-0.1-0.1-0.2-0.2-0.3-0.3c0,0-0.1-0.1-0.1-0.2c0,0-0.1-0.1-0.1-0.1c0,0-0.1-0.1-0.1-0.1
				c0-0.1-0.1-0.1-0.1-0.2c0-0.1-0.1-0.1-0.1-0.2c0,0,0,0,0,0c0,0,0,0.1,0.1,0.1c-0.1-0.1-0.1-0.2-0.1-0.3c0-0.1-0.1-0.3-0.1-0.5
				c-0.1-0.1-0.2-0.2-0.3-0.3c-0.6-0.8-1.9-0.4-2.3,0.3c0,0,0,0,0,0.1c-0.2,0.3-0.2,0.8-0.1,1.1c0,0.6,0.2,1.2,0.3,1.7
				c0.1,0.4,0.1,0.7,0.2,1c0,0.4,0,0.7,0,1.1c0,0.9-0.1,1.2-0.2,2c-0.1,0.4-0.1,0.6-0.3,1.1c-0.1,0.4-0.3,0.7-0.4,1.1
				c-0.1,0.2-0.1,0.3,0,0.5c-0.1,0.5-0.3,0.9-0.2,1.4c0,0.2,0.2,0.3,0.4,0.3c0.6,0,1.1-0.3,1.5-0.7c0.2-0.1,0.3-0.1,0.5-0.3
				c0.7-0.8,1.1-1.8,1.3-2.9c0.2,0.6,0.8,1.1,1.5,1c0.1,0,0.1,0,0.2,0c0,0,0.1,0,0.1,0.1c0.2,0.1,0.4,0.1,0.6-0.1c0.1,0,0.3,0,0.4,0
				c0.4,0,0.8-0.1,1.3-0.1c0.3,0,0.6-0.1,0.8-0.2c0.1-0.1,0.2-0.2,0.3-0.3c0.1-0.1,0.2-0.2,0.2-0.3c0.1,0.1,0.2,0.2,0.3,0.2
				c0.2,0.2,0.4,0.4,0.7,0.5c0.3,0.1,0.6,0,0.9,0.1c0.3,0,0.5,0,0.8,0.1c0,0,0.1,0,0.1,0c0.1,0,0.3,0,0.4,0.1
				c0.2,0.1,0.5,0.1,0.7,0.2c0.1,0,0.2,0.1,0.3,0.1c0,0,0.1,0,0.1,0.1c0.2,0.1,0.5,0.2,0.7,0.3c0.1,0.1,0.2,0.1,0.3,0.2
				c0,0,0.1,0,0.1,0c0,0,0,0,0.1,0.1c0.4,0.3,0.8,0.5,1.3,0.3c0.4-0.1,0.9-0.5,0.9-0.9c0.1-0.3,0.2-0.7,0.3-1
				c0.1-0.2,0.1-0.3,0.2-0.5c0-0.1,0.1-0.1,0.1-0.2c0,0.1,0,0.1,0-0.1c0.4-0.8,0.7-1,1.2-1.7c0.1-0.1,0.1-0.2,0.1-0.4
				c0.5,0.3,1.1,0.5,1.7,0.6c0.9,0.1,1.7-0.2,2.5-0.5c1.5-0.6,2.8-1.5,3.9-2.7c0.5-0.6,1-1.3,1.3-2c0-0.1,0.1-0.2,0.1-0.3
				c0.2,0,0.4,0,0.5-0.1c0.1-0.1,0.3-0.1,0.4-0.2c0.1,0,0.1-0.1,0.2-0.1c0,0,0.1-0.1,0.1-0.1c0.1-0.1,0.2-0.2,0.3-0.3
				c0.1-0.1,0.2-0.1,0.3-0.2c0.1-0.1,0.3-0.2,0.3-0.4C557,478.2,557,478,556.9,477.9z"/>
		</g>
		<g class="st3">
			<path class="st5" d="M532.4,52.1c-0.1-0.3-0.2-0.6-0.5-0.8c-0.1-0.1-0.3-0.2-0.4-0.3c-0.3-0.2-0.6-0.3-0.9-0.3
				c-0.3,0-0.5,0-0.7,0.2c-0.2,0.1-0.4,0.2-0.6,0.4c-0.2,0.2-0.3,0.4-0.4,0.6c-0.1,0.2-0.2,0.5-0.2,0.7c0,0.2,0,0.3,0.1,0.5
				c0.1,0.3,0.2,0.6,0.5,0.8c0.1,0.1,0.3,0.2,0.4,0.3c0.3,0.2,0.6,0.3,0.9,0.3c0.3,0,0.5,0,0.7-0.2c0.2-0.1,0.4-0.2,0.6-0.4
				c0.2-0.2,0.3-0.4,0.4-0.6c0.1-0.2,0.2-0.5,0.2-0.7C532.4,52.5,532.4,52.3,532.4,52.1z"/>
			<path class="st5" d="M692.3,152.4c-2.1,0-2.1,3.3,0,3.3C694.4,155.7,694.4,152.4,692.3,152.4z"/>
			<path class="st5" d="M554.8,62.8c-1.6,0-1.6,2.5,0,2.5C556.4,65.3,556.4,62.8,554.8,62.8z"/>
			<path class="st5" d="M507.5,265.3c-1.7,0-1.7,2.6,0,2.6C509.3,267.9,509.3,265.3,507.5,265.3z"/>
			<path class="st5" d="M475.1,294.8c-1.7,0-1.7,2.6,0,2.6C476.8,297.4,476.8,294.8,475.1,294.8z"/>
			<path class="st5" d="M106.7,64.9c-0.1-0.1-0.2-0.2-0.3-0.3c0,0-0.1,0-0.1,0c-0.1,0-0.2-0.1-0.3-0.1c-0.1,0-0.2,0-0.3,0l-0.3,0
				c-0.1,0-0.1,0-0.2,0l-0.4,0.1c-0.1,0-0.1,0.1-0.2,0.1c-0.1,0.1-0.2,0.1-0.2,0.2c-0.1,0.1-0.1,0.1-0.1,0.2
				c-0.1,0.1-0.1,0.2-0.1,0.3c0,0.1,0,0.2,0,0.2c0,0.1,0.1,0.1,0.1,0.2c0.1,0.1,0.1,0.2,0.2,0.2c0.1,0.1,0.2,0.1,0.3,0.2l0.4,0.1
				c0.1,0,0.1,0,0.2,0c0.2,0,0.4,0.1,0.5,0c0.1,0,0.2-0.1,0.3-0.1c0,0,0.1,0,0.1,0c0.1-0.1,0.2-0.2,0.3-0.3c0.1-0.1,0.1-0.3,0.1-0.5
				C106.8,65.2,106.8,65,106.7,64.9z"/>
			<path class="st5" d="M213.6,109.3c0-0.1,0.1-0.1,0-0.2c0,0,0,0,0,0l0-0.1c0,0,0-0.1,0-0.1l0-0.3c0-0.1-0.1-0.2-0.1-0.3
				c-0.1-0.2-0.2-0.3-0.3-0.4c-0.1-0.1-0.2-0.1-0.3-0.2c-0.1-0.1-0.2-0.1-0.3-0.1c-0.1,0-0.2,0-0.3,0c-0.1,0-0.2,0-0.3,0.1
				c-0.2,0.1-0.3,0.1-0.4,0.3c-0.1,0.1-0.1,0.2-0.2,0.3c0,0.1-0.1,0.2-0.1,0.3l0,0.3l0,0.3c0,0.1,0.1,0.2,0.1,0.3
				c0.1,0.2,0.2,0.3,0.3,0.4c0.1,0.1,0.2,0.1,0.3,0.2c0.2,0.1,0.3,0.1,0.5,0.1c0,0,0.1,0,0.1,0c0,0,0,0,0.1,0c0,0,0,0,0,0
				c0.1,0,0.2,0,0.2,0c0,0,0,0,0,0c0.1,0,0.1,0,0.2,0c0.1,0,0.2,0,0.2,0c0.1,0,0.1-0.1,0.2-0.1c0.1-0.1,0.2-0.3,0.2-0.4
				C213.6,109.6,213.6,109.5,213.6,109.3C213.6,109.4,213.6,109.4,213.6,109.3z"/>
			<path class="st5" d="M44,185.3c0-0.1,0-0.2,0-0.3c0,0,0-0.1,0-0.1c0-0.1-0.1-0.2-0.1-0.2c0,0-0.1-0.1-0.1-0.1
				c-0.1,0-0.1-0.1-0.2-0.1c-0.1,0-0.1,0-0.2,0c-0.1,0-0.3,0-0.4,0.1c0,0,0,0,0,0c0,0-0.1,0-0.1,0c-0.1,0-0.2,0.1-0.3,0.2
				c-0.1,0.1-0.2,0.1-0.2,0.3c0,0,0,0,0,0.1c-0.1,0.1-0.2,0.3-0.2,0.4c0,0.1-0.1,0.1-0.1,0.2c0,0.1,0,0.2,0,0.3c0,0.1,0,0.1,0.1,0.2
				c0,0.1,0.1,0.2,0.2,0.2c0.1,0,0.1,0.1,0.2,0.1c0.1,0,0.1,0.1,0.2,0.1c0.1,0,0.2,0,0.3,0c0.1,0,0.2,0,0.3-0.1
				c0.1-0.1,0.3-0.2,0.4-0.2c0,0,0,0,0.1,0c0.1-0.1,0.2-0.1,0.3-0.2c0.1-0.1,0.1-0.2,0.2-0.3c0,0,0-0.1,0-0.1c0,0,0,0,0,0
				C44,185.5,44,185.4,44,185.3z"/>
		</g>
	</g>
</g>
<g id="OBJECTS">
</g>
</svg>
