<?xml version="1.0" encoding="utf-8"?>
<!-- Generator: Adobe Illustrator 25.0.1, SVG Export Plug-In . SVG Version: 6.00 Build 0)  -->
<svg version="1.1" xmlns="http://www.w3.org/2000/svg" xmlns:xlink="http://www.w3.org/1999/xlink" x="0px" y="0px"
	 viewBox="0 0 128.4 107.5" style="enable-background:new 0 0 128.4 107.5;" xml:space="preserve">
<style type="text/css">
	.st0{enable-background:new    ;}
	.st1{clip-path:url(#SVGID_2_);enable-background:new    ;}
	.st2{fill:#101E46;}
	.st3{clip-path:url(#SVGID_4_);enable-background:new    ;}
	.st4{fill:#0F1B3E;}
	.st5{fill:#0F1C41;}
	.st6{fill:#101D43;}
	.st7{fill:#111F48;}
	.st8{fill:#11204A;}
	.st9{fill:#12214D;}
	.st10{fill:#12224F;}
	.st11{fill:#132352;}
	.st12{fill:#142454;}
	.st13{fill:#142556;}
	.st14{clip-path:url(#SVGID_6_);enable-background:new    ;}
	.st15{fill:#33456E;}
	.st16{fill:#354772;}
	.st17{fill:#374A76;}
	.st18{fill:#394D7A;}
	.st19{fill:#3B4F7F;}
	.st20{fill:#3D5283;}
	.st21{fill:#3F5487;}
	.st22{fill:#41578B;}
	.st23{fill:#435A8F;}
	.st24{fill:#455C94;}
	.st25{fill:#475F98;}
	.st26{clip-path:url(#SVGID_8_);enable-background:new    ;}
	.st27{clip-path:url(#SVGID_10_);enable-background:new    ;}
	.st28{clip-path:url(#SVGID_12_);enable-background:new    ;}
	.st29{fill:#182D67;}
	.st30{fill:#5472B6;}
	.st31{clip-path:url(#SVGID_14_);enable-background:new    ;}
	.st32{fill:#2D712D;}
	.st33{fill:#358933;}
	.st34{fill:#42B73F;}
	.st35{fill:#455B8D;}
	.st36{fill:#3A4C73;}
	.st37{fill:#5876BB;}
	.st38{clip-path:url(#SVGID_16_);enable-background:new    ;}
	.st39{fill:#958F16;}
	.st40{fill:#9A9316;}
	.st41{fill:#9E9717;}
	.st42{fill:#807A16;}
	.st43{fill:#9D9617;}
	.st44{fill:#D2C817;}
	.st45{clip-path:url(#SVGID_18_);enable-background:new    ;}
	.st46{fill:#852829;}
	.st47{clip-path:url(#SVGID_20_);enable-background:new    ;}
	.st48{fill:#812828;}
	.st49{fill:#9E2D2D;}
	.st50{fill:#D33737;}
	.st51{fill:#356C87;}
	.st52{clip-path:url(#SVGID_22_);enable-background:new    ;}
	.st53{fill:#336781;}
	.st54{fill:#2D596F;}
	.st55{clip-path:url(#SVGID_24_);enable-background:new    ;}
	.st56{fill:#2F5C72;}
	.st57{fill:#305F76;}
	.st58{fill:#316179;}
	.st59{fill:#32647D;}
	.st60{fill:#428DB2;}
	.st61{clip-path:url(#SVGID_26_);enable-background:new    ;}
	.st62{fill:#3C4E77;}
	.st63{clip-path:url(#SVGID_28_);enable-background:new    ;}
	.st64{filter:url(#Adobe_OpacityMaskFilter);}
	.st65{clip-path:url(#SVGID_30_);fill:url(#SVGID_32_);}
	.st66{clip-path:url(#SVGID_30_);mask:url(#SVGID_31_);}
	.st67{clip-path:url(#SVGID_34_);enable-background:new    ;}
	.st68{fill:#338331;}
	.st69{fill:#348732;}
	.st70{fill:#358B33;}
	.st71{clip-path:url(#SVGID_36_);enable-background:new    ;}
	.st72{clip-path:url(#SVGID_38_);enable-background:new    ;}
	.st73{clip-path:url(#SVGID_40_);enable-background:new    ;}
	.st74{fill:#972C2C;}
	.st75{clip-path:url(#SVGID_42_);enable-background:new    ;}
	.st76{fill:#89292A;}
	.st77{fill:#8E2A2A;}
	.st78{fill:#922B2B;}
	.st79{clip-path:url(#SVGID_44_);enable-background:new    ;}
	.st80{clip-path:url(#SVGID_46_);enable-background:new    ;}
	.st81{clip-path:url(#SVGID_48_);enable-background:new    ;}
</style>
<g id="Camada_1">
	<g>
		<g class="st0">
			<g class="st0">
				<defs>
					<path id="SVGID_1_" class="st0" d="M6.4,70.1C6.4,70.1,6.4,70.1,6.4,70.1l0-6.2c0,0,0,0,0-0.1C6.4,70,6.4,70,6.4,70.1z"/>
				</defs>
				<clipPath id="SVGID_2_">
					<use xlink:href="#SVGID_1_"  style="overflow:visible;"/>
				</clipPath>
				<g class="st1">
					<path class="st2" d="M6.5,63.3l0,6.3c0,0.2,0,0.3,0,0.5l0-6.3C6.5,63.7,6.5,63.5,6.5,63.3"/>
				</g>
			</g>
			<g class="st0">
				<defs>
					<path id="SVGID_3_" class="st0" d="M104.9,46.6c-21.2-12.2-54.7-13-77.3-2.3c0-2.1,0-4.2,0-6.3c22.6-10.7,56.1-9.9,77.3,2.3
						c11.4,6.6,17.1,15.2,17,23.8l0,6.3C121.9,61.8,116.3,53.2,104.9,46.6z"/>
				</defs>
				<clipPath id="SVGID_4_">
					<use xlink:href="#SVGID_3_"  style="overflow:visible;"/>
				</clipPath>
				<g class="st3">
					<path class="st4" d="M121.9,64.2l0,6.3c0-8.6-5.7-17.2-17-23.8c-2.6-1.5-5.4-2.8-8.3-4l0-6.3c2.9,1.2,5.7,2.5,8.3,4
						C116.3,46.9,122,55.6,121.9,64.2"/>
					<path class="st5" d="M96.6,36.4l0,6.3c-2.3-0.9-4.6-1.7-7-2.4l0-6.3C92,34.7,94.3,35.5,96.6,36.4"/>
					<path class="st6" d="M89.6,34l0,6.3c-2-0.6-4-1.1-6-1.5l0-6.3C85.6,32.9,87.6,33.4,89.6,34"/>
					<path class="st2" d="M83.5,32.5l0,6.3c-1.9-0.4-3.8-0.7-5.7-1l0-6.3C79.7,31.8,81.6,32.1,83.5,32.5"/>
					<path class="st7" d="M77.8,31.5l0,6.3c-1.9-0.3-3.7-0.5-5.6-0.6l0-6.3C74.1,31.1,75.9,31.3,77.8,31.5"/>
					<path class="st8" d="M72.2,30.9l0,6.3c-1.9-0.2-3.8-0.3-5.7-0.3l0-6.3C68.4,30.6,70.3,30.7,72.2,30.9"/>
					<path class="st9" d="M66.5,30.6l0,6.3c-2,0-3.9,0-5.9,0l0-6.3C62.6,30.6,64.5,30.5,66.5,30.6"/>
					<path class="st10" d="M60.6,30.6l0,6.3c-2.1,0.1-4.3,0.2-6.4,0.4l0-6.3C56.3,30.8,58.4,30.7,60.6,30.6"/>
					<path class="st11" d="M54.2,31.1l0,6.3c-2.5,0.2-4.9,0.6-7.4,1l0-6.3C49.2,31.6,51.7,31.3,54.2,31.1"/>
					<path class="st12" d="M46.8,32.1l0,6.3c-3.8,0.7-7.4,1.6-10.9,2.7l0-6.3C39.4,33.7,43.1,32.8,46.8,32.1"/>
					<path class="st13" d="M35.9,34.8l0,6.3c-4.5,1.5-8.8,3.3-12.7,5.6c-0.2,0.1-0.5,0.3-0.7,0.4l0-6.3c0.2-0.1,0.5-0.3,0.7-0.4
						C27.1,38.1,31.4,36.3,35.9,34.8"/>
				</g>
			</g>
			<g class="st0">
				<defs>
					<path id="SVGID_5_" class="st0" d="M121.1,64.2l0,6.3c0-8.5-5.6-17-16.8-23.5C82,34.1,45.9,34.1,23.8,47
						c-11,6.4-16.5,14.8-16.5,23.2l0-6.3c0-8.4,5.5-16.8,16.5-23.2c22.1-12.9,58.2-12.9,80.5,0C115.5,47.2,121.1,55.7,121.1,64.2z"
						/>
				</defs>
				<clipPath id="SVGID_6_">
					<use xlink:href="#SVGID_5_"  style="overflow:visible;"/>
				</clipPath>
				<g class="st14">
					<path class="st15" d="M121.1,64.2l0,6.3c0-8.5-5.6-17-16.8-23.5c-2.6-1.5-5.3-2.8-8.2-3.9l0-6.3c2.9,1.1,5.6,2.4,8.2,3.9
						C115.5,47.2,121.1,55.7,121.1,64.2"/>
					<path class="st16" d="M96.1,36.8l0,6.3c-2.2-0.9-4.5-1.7-6.9-2.3l0-6.3C91.6,35.1,93.9,35.9,96.1,36.8"/>
					<path class="st17" d="M89.2,34.4l0,6.3c-1.9-0.6-3.9-1-5.9-1.5l0-6.3C85.3,33.4,87.3,33.9,89.2,34.4"/>
					<path class="st18" d="M83.3,33l0,6.3c-1.9-0.4-3.7-0.7-5.7-1l0-6.3C79.6,32.3,81.4,32.6,83.3,33"/>
					<path class="st19" d="M77.6,32l0,6.3c-1.8-0.3-3.7-0.5-5.5-0.6l0-6.3C74,31.5,75.8,31.7,77.6,32"/>
					<path class="st20" d="M72.1,31.4l0,6.3c-1.9-0.2-3.7-0.3-5.6-0.3l0-6.3C68.4,31.1,70.2,31.2,72.1,31.4"/>
					<path class="st21" d="M66.5,31.1l0,6.3c-1.9,0-3.9,0-5.8,0l0-6.3C62.6,31,64.5,31,66.5,31.1"/>
					<path class="st22" d="M60.6,31.1l0,6.3c-2.1,0.1-4.2,0.2-6.3,0.4l0-6.3C56.4,31.3,58.5,31.2,60.6,31.1"/>
					<path class="st23" d="M54.3,31.5l0,6.3c-2.5,0.2-4.9,0.6-7.3,1l0-6.3C49.4,32.1,51.8,31.8,54.3,31.5"/>
					<path class="st24" d="M47,32.5l0,6.3c-3.7,0.7-7.3,1.6-10.8,2.7l0-6.3C39.7,34.1,43.3,33.2,47,32.5"/>
					<path class="st25" d="M36.2,35.2l0,6.3c-4.5,1.4-8.7,3.3-12.4,5.5c-0.2,0.1-0.5,0.3-0.7,0.4l0-6.3c0.2-0.1,0.5-0.3,0.7-0.4
						C27.6,38.5,31.8,36.7,36.2,35.2"/>
					<path class="st24" d="M23.1,41.1l0,6.3c-2.8,1.7-5.1,3.4-7.2,5.3l0-6.3C18,44.5,20.4,42.8,23.1,41.1"/>
					<path class="st23" d="M15.9,46.4l0,6.3c-1.3,1.2-2.5,2.5-3.5,3.8l0-6.3C13.4,48.9,14.6,47.6,15.9,46.4"/>
					<path class="st22" d="M12.4,50.2l0,6.3c-0.9,1.1-1.6,2.2-2.3,3.4l0-6.3C10.8,52.5,11.5,51.3,12.4,50.2"/>
					<path class="st21" d="M10.1,53.6l0,6.3C9.5,60.9,9,62,8.6,63.1l0-6.3C9,55.8,9.5,54.7,10.1,53.6"/>
					<path class="st20" d="M8.6,56.9l0,6.3c-0.4,1.1-0.7,2.1-0.9,3.2l0-6.3C7.9,59,8.2,57.9,8.6,56.9"/>
					<path class="st19" d="M7.7,60.1l0,6.3c-0.2,1.1-0.3,2.2-0.4,3.3l0-6.3C7.3,62.3,7.5,61.2,7.7,60.1"/>
					<path class="st18" d="M7.3,63.3l0,6.3c0,0.2,0,0.3,0,0.5l0-6.3C7.3,63.7,7.3,63.5,7.3,63.3"/>
				</g>
			</g>
			<g class="st0">
				<defs>
					<path id="SVGID_7_" class="st0" d="M24.1,93.6c-11.2-6.5-16.8-15-16.8-23.5l0-6.3c0,8.5,5.6,17,16.8,23.5
						c6.2,3.6,13.5,6.2,21.3,7.8c0,2.1,0,4.2,0,6.3C37.6,99.8,30.3,97.2,24.1,93.6z"/>
				</defs>
				<clipPath id="SVGID_8_">
					<use xlink:href="#SVGID_7_"  style="overflow:visible;"/>
				</clipPath>
				<g class="st26">
					<path class="st2" d="M50.8,96l0,6.3c-1.9-0.3-3.8-0.6-5.7-1l0-6.3C47,95.4,48.8,95.8,50.8,96"/>
					<path class="st6" d="M45.1,95l0,6.3c-2-0.4-4-0.9-5.9-1.5l0-6.3C41.1,94.1,43.1,94.6,45.1,95"/>
					<path class="st5" d="M39.2,93.6l0,6.3c-2.4-0.7-4.7-1.5-6.9-2.3l0-6.3C34.5,92.1,36.8,92.9,39.2,93.6"/>
					<path class="st4" d="M32.3,91.3l0,6.3c-2.9-1.1-5.6-2.4-8.2-3.9c-11.2-6.5-16.8-15-16.8-23.5l0-6.3c0,8.5,5.6,17,16.8,23.5
						C26.6,88.8,29.4,90.1,32.3,91.3"/>
				</g>
			</g>
			<g class="st0">
				<defs>
					<path id="SVGID_9_" class="st0" d="M45.3,101.4c0-2.1,0-4.2,0-6.3c20.1,4.1,43.3,1.5,59.2-7.8c11-6.4,16.5-14.8,16.5-23.2
						l0,6.3c0,8.4-5.5,16.8-16.5,23.2C88.6,102.9,65.4,105.4,45.3,101.4z"/>
				</defs>
				<clipPath id="SVGID_10_">
					<use xlink:href="#SVGID_9_"  style="overflow:visible;"/>
				</clipPath>
				<g class="st27">
					<path class="st2" d="M121.1,64.2l0,6.3c0,0.2,0,0.3,0,0.5l0-6.3C121.1,64.5,121.1,64.3,121.1,64.2"/>
					<path class="st7" d="M121.1,64.7l0,6.3c0,1.1-0.2,2.2-0.4,3.3l0-6.3C120.9,66.9,121.1,65.8,121.1,64.7"/>
					<path class="st8" d="M120.7,68l0,6.3c-0.2,1.1-0.5,2.1-0.9,3.2l0-6.3C120.2,70.1,120.5,69,120.7,68"/>
					<path class="st9" d="M119.8,71.2l0,6.3c-0.4,1.1-0.9,2.2-1.5,3.2l0-6.3C118.9,73.3,119.4,72.3,119.8,71.2"/>
					<path class="st10" d="M118.3,74.4l0,6.3c-0.7,1.2-1.4,2.3-2.3,3.4l0-6.3C116.9,76.7,117.6,75.6,118.3,74.4"/>
					<path class="st11" d="M116,77.8l0,6.3c-1,1.3-2.2,2.6-3.5,3.8l0-6.3C113.8,80.4,115,79.1,116,77.8"/>
					<path class="st12" d="M112.5,81.6l0,6.3c-2,1.9-4.4,3.7-7.2,5.3l0-6.3C108,85.3,110.4,83.5,112.5,81.6"/>
					<path class="st13" d="M105.3,86.9l0,6.3c-0.2,0.1-0.5,0.3-0.7,0.4c-3.8,2.2-8,4-12.4,5.5l0-6.3c4.5-1.4,8.7-3.3,12.4-5.5
						C104.8,87.2,105.1,87.1,105.3,86.9"/>
					<path class="st12" d="M92.2,92.8l0,6.3c-3.5,1.1-7.1,2-10.8,2.7l0-6.3C85.1,94.8,88.7,93.9,92.2,92.8"/>
					<path class="st11" d="M81.4,95.5l0,6.3c-2.4,0.4-4.8,0.8-7.3,1l0-6.3C76.6,96.3,79,95.9,81.4,95.5"/>
					<path class="st10" d="M74.1,96.5l0,6.3c-2.1,0.2-4.2,0.3-6.3,0.4l0-6.3C69.9,96.8,72,96.7,74.1,96.5"/>
					<path class="st9" d="M67.8,96.9l0,6.3c-1.9,0.1-3.9,0.1-5.8,0l0-6.3C63.9,97,65.8,97,67.8,96.9"/>
					<path class="st8" d="M61.9,96.9l0,6.3c-1.9,0-3.8-0.1-5.6-0.3l0-6.3C58.2,96.8,60,96.9,61.9,96.9"/>
					<path class="st7" d="M56.3,96.6l0,6.3c-1.9-0.2-3.7-0.4-5.5-0.6l0-6.3C52.6,96.3,54.4,96.5,56.3,96.6"/>
					<path class="st2" d="M50.8,96l0,6.3c-1.9-0.3-3.8-0.6-5.7-1l0-6.3C47,95.4,48.8,95.8,50.8,96"/>
				</g>
			</g>
			<g class="st0">
				<defs>
					<path id="SVGID_11_" class="st0" d="M121.9,64.2l0,6.3c0,8.5-5.6,17-16.8,23.5c-22.5,13.1-59,13.1-81.7,0
						c-11.4-6.6-17.1-15.2-17-23.8l0-6.3c0,8.6,5.7,17.2,17,23.8c22.6,13.1,59.2,13.1,81.7,0C116.3,81.2,121.9,72.7,121.9,64.2z"/>
				</defs>
				<clipPath id="SVGID_12_">
					<use xlink:href="#SVGID_11_"  style="overflow:visible;"/>
				</clipPath>
				<g class="st28">
					<path class="st18" d="M121.9,64.2l0,6.3c0,0.2,0,0.3,0,0.5l0-6.3C121.9,64.5,121.9,64.3,121.9,64.2"/>
					<path class="st19" d="M121.9,64.7l0,6.3c0,1.1-0.2,2.2-0.4,3.3l0-6.3C121.8,66.9,121.9,65.8,121.9,64.7"/>
					<path class="st20" d="M121.6,68l0,6.3c-0.2,1.1-0.5,2.2-0.9,3.3l0-6.3C121,70.2,121.3,69.1,121.6,68"/>
					<path class="st21" d="M120.6,71.2l0,6.3c-0.4,1.1-0.9,2.2-1.5,3.3l0-6.3C119.7,73.4,120.2,72.4,120.6,71.2"/>
					<path class="st22" d="M119.1,74.5l0,6.3c-0.7,1.2-1.4,2.3-2.3,3.4l0-6.3C117.6,76.9,118.4,75.7,119.1,74.5"/>
					<path class="st23" d="M116.8,78l0,6.3c-1,1.3-2.2,2.6-3.6,3.9l0-6.3C114.5,80.6,115.7,79.3,116.8,78"/>
					<path class="st24" d="M113.2,81.8l0,6.3c-2.1,1.9-4.5,3.7-7.3,5.4l0-6.3C108.7,85.6,111.1,83.7,113.2,81.8"/>
					<path class="st25" d="M105.9,87.2l0,6.3c-0.2,0.1-0.5,0.3-0.7,0.4c-3.9,2.2-8.1,4.1-12.7,5.6l0-6.3c4.5-1.5,8.8-3.3,12.7-5.6
						C105.4,87.5,105.6,87.4,105.9,87.2"/>
					<path class="st24" d="M92.5,93.2l0,6.3c-3.5,1.1-7.2,2-10.9,2.7l0-6.3C85.3,95.3,89,94.4,92.5,93.2"/>
					<path class="st23" d="M81.6,95.9l0,6.3c-2.4,0.4-4.9,0.8-7.4,1l0-6.3C76.7,96.7,79.2,96.4,81.6,95.9"/>
					<path class="st22" d="M74.2,97l0,6.3c-2.1,0.2-4.3,0.4-6.4,0.4l0-6.3C70,97.3,72.1,97.2,74.2,97"/>
					<path class="st21" d="M67.8,97.4l0,6.3c-2,0.1-3.9,0.1-5.9,0l0-6.3C63.9,97.5,65.8,97.5,67.8,97.4"/>
					<path class="st20" d="M61.9,97.4l0,6.3c-1.9,0-3.8-0.1-5.7-0.3l0-6.3C58.1,97.3,60,97.4,61.9,97.4"/>
					<path class="st19" d="M56.2,97.1l0,6.3c-1.9-0.2-3.8-0.4-5.6-0.6l0-6.3C52.4,96.8,54.3,97,56.2,97.1"/>
					<path class="st18" d="M50.6,96.5l0,6.3c-1.9-0.3-3.8-0.6-5.7-1l0-6.3C46.7,95.9,48.7,96.2,50.6,96.5"/>
					<path class="st17" d="M44.9,95.5l0,6.3c-2-0.4-4.1-0.9-6-1.5l0-6.3C40.8,94.6,42.8,95.1,44.9,95.5"/>
					<path class="st16" d="M38.8,94l0,6.3c-2.4-0.7-4.8-1.5-7-2.4l0-6.3C34.1,92.5,36.4,93.3,38.8,94"/>
					<path class="st15" d="M31.8,91.7l0,6.3c-2.9-1.2-5.7-2.5-8.3-4c-11.4-6.6-17.1-15.2-17-23.8l0-6.3c0,8.6,5.7,17.2,17,23.8
						C26.1,89.2,28.9,90.5,31.8,91.7"/>
				</g>
			</g>
			<g>
				<path class="st29" d="M109.4,37.7c25.1,14.5,25.3,38.1,0.3,52.6c-25,14.5-65.6,14.5-90.8,0C-6.2,75.8-6.3,52.2,18.7,37.7
					C43.7,23.2,84.3,23.2,109.4,37.7z M23.5,87.7c22.6,13.1,59.2,13.1,81.7,0s22.4-34.2-0.3-47.3c-22.6-13.1-59.2-13.1-81.7,0
					S0.9,74.6,23.5,87.7"/>
			</g>
			<g>
				<path class="st29" d="M104.3,40.7c22.3,12.9,22.4,33.8,0.3,46.6c-22.1,12.9-58.2,12.9-80.5,0C1.8,74.5,1.7,53.6,23.8,40.7
					C45.9,27.8,82.1,27.8,104.3,40.7z"/>
			</g>
			<g>
				<path class="st30" d="M104.9,40.4c22.6,13.1,22.7,34.2,0.3,47.3s-59,13.1-81.7,0C0.9,74.6,0.8,53.4,23.2,40.4
					S82.3,27.3,104.9,40.4z M24.1,87.3c22.3,12.9,58.4,12.9,80.5,0s22-33.8-0.3-46.6c-22.3-12.9-58.4-12.9-80.5,0
					S1.8,74.5,24.1,87.3"/>
			</g>
			<g class="st0">
				<defs>
					<path id="SVGID_13_" class="st0" d="M128.4,64.2l0,6.3c0,9.5-6.2,18.9-18.7,26.1c-25,14.5-65.6,14.5-90.8,0
						C6.3,89.3,0,79.7,0,70.1l0-6.3C0,73.4,6.3,83,19,90.3c25.1,14.5,65.8,14.5,90.8,0C122.1,83.1,128.4,73.6,128.4,64.2z"/>
				</defs>
				<clipPath id="SVGID_14_">
					<use xlink:href="#SVGID_13_"  style="overflow:visible;"/>
				</clipPath>
				<g class="st31">
					<path class="st2" d="M128.4,64.2l0,6.3c0,0.2,0,0.4,0,0.6l0-6.3C128.4,64.6,128.4,64.4,128.4,64.2"/>
					<path class="st7" d="M128.4,64.8l0,6.3c0,1.2-0.2,2.5-0.4,3.7l0-6.3C128.2,67.2,128.3,66,128.4,64.8"/>
					<path class="st8" d="M128,68.4l0,6.3c-0.2,1.2-0.6,2.4-1,3.6l0-6.3C127.4,70.9,127.7,69.7,128,68.4"/>
					<path class="st9" d="M126.9,72.1l0,6.3c-0.5,1.2-1,2.4-1.7,3.6l0-6.3C125.9,74.5,126.5,73.3,126.9,72.1"/>
					<path class="st10" d="M125.2,75.7l0,6.3c-0.7,1.3-1.6,2.6-2.6,3.8l0-6.3C123.6,78.3,124.5,77,125.2,75.7"/>
					<path class="st11" d="M122.6,79.5l0,6.3c-1.2,1.5-2.5,2.9-4,4.3l0-6.3C120.1,82.4,121.5,81,122.6,79.5"/>
					<path class="st12" d="M118.6,83.8l0,6.3c-2.3,2.1-5,4.1-8.1,6l0-6.3C113.6,88,116.3,85.9,118.6,83.8"/>
					<path class="st13" d="M110.5,89.8l0,6.3c-0.3,0.2-0.5,0.3-0.8,0.5c-4.3,2.5-9,4.5-14.1,6.2l0-6.3c5-1.6,9.8-3.7,14.1-6.2
						C110,90.1,110.3,90,110.5,89.8"/>
					<path class="st12" d="M95.7,96.5l0,6.3c-3.9,1.3-8,2.3-12.2,3l0-6.3C87.7,98.8,91.8,97.7,95.7,96.5"/>
					<path class="st11" d="M83.5,99.5l0,6.3c-2.7,0.5-5.4,0.9-8.2,1.1l0-6.3C78.1,100.4,80.8,100,83.5,99.5"/>
					<path class="st10" d="M75.3,100.6l0,6.3c-2.4,0.2-4.7,0.4-7.1,0.5l0-6.3C70.6,101,73,100.9,75.3,100.6"/>
					<path class="st9" d="M68.2,101.1l0,6.3c-2.2,0.1-4.4,0.1-6.6,0l0-6.3C63.8,101.2,66,101.2,68.2,101.1"/>
					<path class="st8" d="M61.6,101.2l0,6.3c-2.1-0.1-4.2-0.2-6.3-0.3l0-6.3C57.4,101,59.5,101.1,61.6,101.2"/>
					<path class="st7" d="M55.3,100.8l0,6.3c-2.1-0.2-4.2-0.4-6.2-0.7l0-6.3C51.1,100.4,53.2,100.6,55.3,100.8"/>
					<path class="st2" d="M49.1,100.1l0,6.3c-2.1-0.3-4.3-0.7-6.4-1.1l0-6.3C44.8,99.4,46.9,99.8,49.1,100.1"/>
					<path class="st6" d="M42.7,99l0,6.3c-2.3-0.5-4.5-1-6.7-1.6l0-6.3C38.2,98,40.4,98.5,42.7,99"/>
					<path class="st5" d="M36,97.4l0,6.3c-2.7-0.8-5.3-1.6-7.8-2.6l0-6.3C30.7,95.7,33.3,96.6,36,97.4"/>
					<path class="st4" d="M28.2,94.7l0,6.3c-3.3-1.3-6.4-2.8-9.3-4.4C6.3,89.3,0,79.7,0,70.1l0-6.3C0,73.4,6.3,83,19,90.3
						C21.9,92,25,93.5,28.2,94.7"/>
				</g>
			</g>
		</g>
	</g>
	<g>
		<g>
			<g class="st0">
				<g>
					<polygon class="st32" points="65.9,68.3 62,66.2 62,66 65.9,68.1 					"/>
				</g>
				<g>
					<polygon class="st32" points="65.9,68.1 62,66 62.1,32.3 65.9,34.4 					"/>
				</g>
				<g>
					<polygon class="st33" points="65.9,34.1 62.1,32 92.7,27.7 96.5,29.8 					"/>
				</g>
				<g>
					<polygon class="st32" points="65.9,34.4 62.1,32.3 62.1,32 65.9,34.1 					"/>
				</g>
				<g>
					<path class="st34" d="M65.9,34.4l0-0.3l30.5-4.3L96.4,58c0,3.3-2.5,6.4-5.6,6.8l-25,3.5l0-0.3L65.9,34.4z"/>
				</g>
			</g>
			<g class="st0">
				<g>
					<polygon class="st35" points="65.6,68.1 61.8,66 62,66 65.9,68.1 					"/>
				</g>
				<g>
					<polygon class="st36" points="65.6,68.4 61.8,66.3 61.8,66 65.6,68.1 					"/>
				</g>
				<g>
					<polygon class="st37" points="65.6,68.1 65.9,68.1 65.9,68.3 65.6,68.4 					"/>
				</g>
			</g>
			<g class="st0">
				<g class="st0">
					<defs>
						<path id="SVGID_15_" class="st0" d="M90.1-2.7l3.8,2.1c-0.9-0.5-1.9-0.7-3-0.5l-3.8-2.1C88.2-3.3,89.2-3.1,90.1-2.7z"/>
					</defs>
					<clipPath id="SVGID_16_">
						<use xlink:href="#SVGID_15_"  style="overflow:visible;"/>
					</clipPath>
					<g class="st38">
						<path class="st39" d="M91-1.1l-3.8-2.1c0.1,0,0.2,0,0.2,0l3.8,2.1C91.1-1.1,91-1.1,91-1.1"/>
						<path class="st40" d="M91.2-1.1l-3.8-2.1c0.6-0.1,1.2,0,1.7,0.1L92.9-1C92.4-1.2,91.8-1.2,91.2-1.1"/>
						<path class="st41" d="M92.9-1l-3.8-2.1c0.3,0.1,0.7,0.2,1,0.4l3.8,2.1C93.6-0.8,93.3-0.9,92.9-1"/>
					</g>
				</g>
				<g>
					<polygon class="st42" points="65.9,34.1 62.1,32 62.2,0.6 66,2.6 					"/>
				</g>
				<g>
					<polygon class="st42" points="66,2.6 62.2,0.6 62.2,0.3 66,2.4 					"/>
				</g>
				<g>
					<polygon class="st43" points="66,2.4 62.2,0.3 87.1,-3.2 91,-1.1 					"/>
				</g>
				<g>
					<path class="st44" d="M91-1.1c3.1-0.4,5.6,1.9,5.6,5.2l0,25.7l-30.5,4.3L66,2.6l0-0.3L91-1.1z"/>
				</g>
			</g>
			<g class="st0">
				<g class="st0">
					<defs>
						<path id="SVGID_17_" class="st0" d="M37.9,71.3l-3.8-2.1c-0.1,0-0.1-0.1-0.1-0.1l3.8,2.1C37.8,71.3,37.9,71.3,37.9,71.3z"/>
					</defs>
					<clipPath id="SVGID_18_">
						<use xlink:href="#SVGID_17_"  style="overflow:visible;"/>
					</clipPath>
					<g class="st45">
						<path class="st46" d="M37.9,71.3l-3.8-2.1c-0.1,0-0.1-0.1-0.1-0.1l3.8,2.1C37.8,71.3,37.9,71.3,37.9,71.3"/>
					</g>
				</g>
				<g class="st0">
					<defs>
						<path id="SVGID_19_" class="st0" d="M37.8,71.2L34,69.2c-0.1,0-0.1-0.1-0.2-0.1c-0.1-0.1-0.1-0.1-0.2-0.1
							c-0.1,0-0.1-0.1-0.2-0.1c-0.1-0.1-0.1-0.1-0.2-0.1c-0.1-0.1-0.1-0.1-0.2-0.1c-0.1,0-0.1-0.1-0.1-0.1c-0.1-0.1-0.1-0.1-0.2-0.2
							c-0.1-0.1-0.1-0.1-0.1-0.1c-0.1-0.1-0.1-0.1-0.1-0.2c-0.1-0.1-0.1-0.1-0.1-0.2c0-0.1-0.1-0.1-0.1-0.2
							c-0.1-0.1-0.1-0.1-0.1-0.2c0-0.1-0.1-0.1-0.1-0.2c0-0.1-0.1-0.1-0.1-0.2c0-0.1-0.1-0.1-0.1-0.2c0-0.1-0.1-0.1-0.1-0.2
							c0-0.1-0.1-0.2-0.1-0.2l3.8,2.1c0,0.1,0,0.1,0.1,0.2c0,0.1,0,0.1,0.1,0.2c0,0.1,0.1,0.1,0.1,0.2c0,0.1,0.1,0.1,0.1,0.2
							c0,0.1,0.1,0.1,0.1,0.2c0,0.1,0.1,0.1,0.1,0.2c0,0.1,0.1,0.1,0.1,0.2c0,0.1,0.1,0.1,0.1,0.2c0,0,0.1,0.1,0.1,0.2
							c0,0,0.1,0.1,0.1,0.1c0,0,0.1,0.1,0.2,0.2c0,0,0.1,0.1,0.1,0.1c0,0,0.1,0.1,0.2,0.1c0,0,0.1,0.1,0.2,0.1c0,0,0.1,0.1,0.2,0.1
							c0,0,0.1,0.1,0.2,0.1C37.7,71.2,37.7,71.2,37.8,71.2z"/>
					</defs>
					<clipPath id="SVGID_20_">
						<use xlink:href="#SVGID_19_"  style="overflow:visible;"/>
					</clipPath>
					<g class="st47">
						<path class="st46" d="M37.8,71.2L34,69.2c-0.1,0-0.1-0.1-0.2-0.1c-0.1-0.1-0.1-0.1-0.2-0.1c-0.1,0-0.1-0.1-0.2-0.1
							c-0.1-0.1-0.1-0.1-0.2-0.1c-0.1-0.1-0.1-0.1-0.2-0.1c-0.1,0-0.1-0.1-0.1-0.1c-0.1-0.1-0.1-0.1-0.2-0.2
							c-0.1-0.1-0.1-0.1-0.1-0.1c-0.1-0.1-0.1-0.1-0.1-0.2c-0.1-0.1-0.1-0.1-0.1-0.2c0-0.1-0.1-0.1-0.1-0.2
							c-0.1-0.1-0.1-0.1-0.1-0.2c0-0.1-0.1-0.1-0.1-0.2c0-0.1-0.1-0.1-0.1-0.2c0-0.1-0.1-0.1-0.1-0.2c0-0.1-0.1-0.1-0.1-0.2
							c0-0.1-0.1-0.2-0.1-0.2l3.8,2.1c0,0.1,0,0.1,0.1,0.2c0,0.1,0,0.1,0.1,0.2c0,0.1,0.1,0.1,0.1,0.2c0,0.1,0.1,0.1,0.1,0.2
							c0,0.1,0.1,0.1,0.1,0.2c0,0.1,0.1,0.1,0.1,0.2c0,0.1,0.1,0.1,0.1,0.2c0,0.1,0.1,0.1,0.1,0.2c0,0,0.1,0.1,0.1,0.2
							c0,0,0.1,0.1,0.1,0.1c0,0,0.1,0.1,0.2,0.2c0,0,0.1,0.1,0.1,0.1c0,0,0.1,0.1,0.2,0.1c0,0,0.1,0.1,0.2,0.1c0,0,0.1,0.1,0.2,0.1
							c0,0,0.1,0.1,0.2,0.1C37.7,71.2,37.7,71.2,37.8,71.2"/>
					</g>
				</g>
				<g>
					<polygon class="st48" points="35.6,68.5 31.8,66.4 31.8,65.3 35.6,67.3 					"/>
				</g>
				<g>
					<polygon class="st48" points="35.6,67.3 31.8,65.3 31.9,36.5 35.7,38.6 					"/>
				</g>
				<g>
					<polygon class="st48" points="35.7,38.6 31.9,36.5 31.9,36.1 35.7,38.2 					"/>
				</g>
				<g>
					<polygon class="st49" points="35.7,38.2 31.9,36.1 61.9,31.9 65.7,34 					"/>
				</g>
				<g>
					<path class="st50" d="M65.7,34l-0.1,34.1l0,0.3l-24.8,3.5c-0.1,0-0.1,0-0.2,0c-0.1,0-0.2,0-0.2,0c-0.1,0-0.2,0-0.2,0
						c-0.1,0-0.2,0-0.2,0c-0.1,0-0.2,0-0.2,0c-0.1,0-0.1,0-0.2,0c-0.1,0-0.2,0-0.2,0c-0.1,0-0.1,0-0.2,0c-0.1,0-0.2,0-0.2-0.1
						c-0.1,0-0.2,0-0.2-0.1c-0.1,0-0.1,0-0.2-0.1c-0.1,0-0.2-0.1-0.2-0.1c-0.1,0-0.1-0.1-0.2-0.1c-0.1,0-0.1-0.1-0.2-0.1
						c-0.1,0-0.1-0.1-0.2-0.1c-0.1,0-0.1-0.1-0.2-0.1c-0.1-0.1-0.1-0.1-0.2-0.1c-0.1,0-0.1-0.1-0.2-0.1c-0.1-0.1-0.1-0.1-0.2-0.1
						c-0.1-0.1-0.1-0.1-0.2-0.1c-0.1,0-0.1-0.1-0.1-0.1c-0.1-0.1-0.1-0.1-0.2-0.2c-0.1-0.1-0.1-0.1-0.1-0.1
						c-0.1-0.1-0.1-0.1-0.1-0.2c-0.1-0.1-0.1-0.1-0.1-0.2c0-0.1-0.1-0.1-0.1-0.2c-0.1-0.1-0.1-0.1-0.1-0.2c0-0.1-0.1-0.1-0.1-0.2
						c0-0.1-0.1-0.1-0.1-0.2c0-0.1-0.1-0.1-0.1-0.2c0-0.1-0.1-0.1-0.1-0.2c0-0.1-0.1-0.2-0.1-0.2l0-1.1l0.1-28.8l0-0.4L65.7,34z"/>
				</g>
			</g>
			<g class="st0">
				<g>
					<polygon class="st36" points="65.8,2.7 62,0.6 62,0.3 65.8,2.4 					"/>
				</g>
				<g>
					<polygon class="st35" points="65.8,2.4 62,0.3 62.2,0.3 66,2.4 					"/>
				</g>
				<g>
					<polygon class="st37" points="66,2.6 65.8,2.7 65.8,2.4 66,2.4 					"/>
				</g>
				<g>
					<polygon class="st51" points="41,5.9 37.2,3.8 62,0.3 65.8,2.4 					"/>
				</g>
				<g class="st0">
					<defs>
						<path id="SVGID_21_" class="st0" d="M40.8,5.9l-3.8-2.1c0.1,0,0.2,0,0.2,0L41,5.9C40.9,5.9,40.9,5.9,40.8,5.9z"/>
					</defs>
					<clipPath id="SVGID_22_">
						<use xlink:href="#SVGID_21_"  style="overflow:visible;"/>
					</clipPath>
					<g class="st52">
						<path class="st53" d="M40.8,5.9l-3.8-2.1c0.1,0,0.2,0,0.2,0L41,5.9C40.9,5.9,40.9,5.9,40.8,5.9"/>
					</g>
				</g>
				<g>
					<polygon class="st54" points="35.7,38.2 31.9,36.1 31.9,9.8 35.7,11.9 					"/>
				</g>
				<g>
					<polygon class="st54" points="35.7,11.9 31.9,9.8 31.9,8.7 35.7,10.7 					"/>
				</g>
				<g class="st0">
					<defs>
						<path id="SVGID_23_" class="st0" d="M35.7,10.7l-3.8-2.1c0-0.1,0-0.1,0.1-0.2c0-0.1,0.1-0.2,0.1-0.2c0-0.1,0.1-0.1,0.1-0.2
							c0-0.1,0.1-0.2,0.1-0.2c0-0.1,0.1-0.2,0.1-0.2c0-0.1,0.1-0.1,0.1-0.2c0.1-0.1,0.1-0.2,0.1-0.2c0-0.1,0.1-0.1,0.1-0.2
							c0.1-0.1,0.1-0.2,0.1-0.2c0.1-0.1,0.1-0.1,0.1-0.2c0.1-0.1,0.1-0.1,0.1-0.2c0.1-0.1,0.1-0.1,0.2-0.2C33.3,6.1,33.4,6,33.4,6
							c0.1-0.1,0.1-0.1,0.2-0.2c0.1-0.1,0.1-0.1,0.2-0.2c0.1-0.1,0.1-0.1,0.2-0.2C34,5.4,34,5.3,34.1,5.3c0.1-0.1,0.1-0.1,0.2-0.1
							C34.3,5.1,34.4,5,34.4,5c0.1-0.1,0.1-0.1,0.2-0.1c0.1-0.1,0.1-0.1,0.2-0.1C34.9,4.7,35,4.6,35,4.6c0.1,0,0.1-0.1,0.2-0.1
							c0.1-0.1,0.2-0.1,0.2-0.1c0.1,0,0.1-0.1,0.2-0.1c0.1,0,0.2-0.1,0.2-0.1c0.1,0,0.2-0.1,0.2-0.1c0.1,0,0.1,0,0.2-0.1
							C36.4,4,36.4,4,36.5,4c0.1,0,0.2,0,0.2-0.1c0.1,0,0.2,0,0.2,0l3.8,2.1c-0.1,0-0.1,0-0.2,0c-0.1,0-0.1,0-0.2,0.1
							c-0.1,0-0.1,0-0.2,0.1c-0.1,0-0.1,0-0.2,0.1c-0.1,0-0.1,0-0.2,0.1c-0.1,0-0.1,0.1-0.2,0.1c-0.1,0-0.1,0.1-0.2,0.1
							c-0.1,0-0.1,0.1-0.2,0.1c-0.1,0-0.1,0.1-0.2,0.1c-0.1,0-0.1,0.1-0.2,0.1c-0.1,0-0.1,0.1-0.2,0.1c0,0-0.1,0.1-0.2,0.1
							c-0.1,0-0.1,0.1-0.2,0.2c-0.1,0-0.1,0.1-0.2,0.1c-0.1,0-0.1,0.1-0.2,0.2c0,0-0.1,0.1-0.2,0.2c0,0-0.1,0.1-0.2,0.2
							c0,0-0.1,0.1-0.2,0.2c0,0-0.1,0.1-0.1,0.2c0,0.1-0.1,0.1-0.2,0.2c0,0.1-0.1,0.1-0.1,0.2c0,0.1-0.1,0.1-0.1,0.2
							c0,0.1-0.1,0.1-0.1,0.2c0,0.1-0.1,0.1-0.1,0.2c0,0.1-0.1,0.1-0.1,0.2c0,0.1-0.1,0.1-0.1,0.2c0,0.1-0.1,0.1-0.1,0.2
							C36,9.9,36,10,36,10.1c0,0.1-0.1,0.1-0.1,0.2c0,0.1,0,0.1-0.1,0.2C35.8,10.6,35.7,10.7,35.7,10.7z"/>
					</defs>
					<clipPath id="SVGID_24_">
						<use xlink:href="#SVGID_23_"  style="overflow:visible;"/>
					</clipPath>
					<g class="st55">
						<path class="st56" d="M35.7,10.7l-3.8-2.1c0-0.1,0-0.1,0.1-0.2c0-0.1,0.1-0.2,0.1-0.2c0-0.1,0.1-0.1,0.1-0.2
							c0-0.1,0.1-0.2,0.1-0.2c0-0.1,0.1-0.2,0.1-0.2c0-0.1,0.1-0.1,0.1-0.2c0.1-0.1,0.1-0.2,0.1-0.2c0-0.1,0.1-0.1,0.1-0.2
							c0.1-0.1,0.1-0.2,0.1-0.2c0.1-0.1,0.1-0.1,0.1-0.2c0.1-0.1,0.1-0.1,0.1-0.2c0.1-0.1,0.1-0.1,0.2-0.2C33.3,6.1,33.4,6,33.4,6
							c0.1-0.1,0.1-0.1,0.2-0.2c0.1-0.1,0.1-0.1,0.2-0.2l3.8,2.1c0,0-0.1,0.1-0.2,0.2c0,0-0.1,0.1-0.2,0.2c0,0-0.1,0.1-0.1,0.2
							c0,0.1-0.1,0.1-0.2,0.2c0,0.1-0.1,0.1-0.1,0.2c0,0.1-0.1,0.1-0.1,0.2c0,0.1-0.1,0.1-0.1,0.2c0,0.1-0.1,0.1-0.1,0.2
							c0,0.1-0.1,0.1-0.1,0.2c0,0.1-0.1,0.1-0.1,0.2c0,0.1-0.1,0.1-0.1,0.2C36,9.9,36,10,36,10.1c0,0.1-0.1,0.1-0.1,0.2
							c0,0.1,0,0.1-0.1,0.2C35.8,10.6,35.7,10.7,35.7,10.7"/>
						<path class="st57" d="M37.5,7.7l-3.8-2.1c0,0,0,0,0,0c0.1-0.1,0.1-0.1,0.2-0.2C34,5.4,34,5.3,34.1,5.3
							c0.1-0.1,0.1-0.1,0.2-0.1C34.3,5.1,34.4,5,34.4,5c0.1-0.1,0.1-0.1,0.2-0.1l3.8,2.1c0,0-0.1,0.1-0.2,0.1
							c-0.1,0-0.1,0.1-0.2,0.2c-0.1,0-0.1,0.1-0.2,0.1c-0.1,0-0.1,0.1-0.2,0.2C37.7,7.6,37.6,7.6,37.5,7.7
							C37.5,7.7,37.5,7.7,37.5,7.7"/>
						<path class="st58" d="M38.4,6.9l-3.8-2.1c0,0,0,0,0,0c0.1-0.1,0.1-0.1,0.2-0.1C34.9,4.7,35,4.6,35,4.6c0.1,0,0.1-0.1,0.2-0.1
							c0.1-0.1,0.2-0.1,0.2-0.1c0,0,0,0,0,0l3.8,2.1c0,0,0,0,0,0c-0.1,0-0.1,0.1-0.2,0.1c-0.1,0-0.1,0.1-0.2,0.1
							c-0.1,0-0.1,0.1-0.2,0.1C38.6,6.8,38.5,6.9,38.4,6.9C38.4,6.9,38.4,6.9,38.4,6.9"/>
						<path class="st59" d="M39.3,6.4l-3.8-2.1c0.1,0,0.1-0.1,0.1-0.1c0.1,0,0.2-0.1,0.2-0.1c0.1,0,0.2-0.1,0.2-0.1
							c0.1,0,0.1,0,0.2-0.1c0.1,0,0.1,0,0.1,0l3.8,2.1c0,0-0.1,0-0.1,0c-0.1,0-0.1,0-0.2,0.1c-0.1,0-0.1,0-0.2,0.1
							c-0.1,0-0.1,0.1-0.2,0.1C39.4,6.4,39.3,6.4,39.3,6.4"/>
						<path class="st53" d="M40.2,6.1L36.4,4c0,0,0.1,0,0.1,0c0.1,0,0.2,0,0.2-0.1c0.1,0,0.2,0,0.2,0l3.8,2.1c-0.1,0-0.1,0-0.2,0
							c-0.1,0-0.1,0-0.2,0.1C40.3,6.1,40.3,6.1,40.2,6.1"/>
					</g>
				</g>
				<g>
					<path class="st60" d="M40.8,5.9c0.1,0,0.2,0,0.2,0l24.8-3.5l0,0.3L65.7,34l-30,4.2l0-26.3l0-1.1c0-0.1,0-0.1,0.1-0.2
						c0-0.1,0.1-0.2,0.1-0.2c0-0.1,0.1-0.1,0.1-0.2c0-0.1,0.1-0.2,0.1-0.2c0-0.1,0.1-0.2,0.1-0.2c0-0.1,0.1-0.1,0.1-0.2
						c0.1-0.1,0.1-0.2,0.1-0.2c0-0.1,0.1-0.1,0.1-0.2c0.1-0.1,0.1-0.2,0.1-0.2c0.1-0.1,0.1-0.1,0.1-0.2c0.1-0.1,0.1-0.1,0.1-0.2
						C37,8.3,37,8.3,37.1,8.2c0.1-0.1,0.1-0.1,0.1-0.2c0.1-0.1,0.1-0.1,0.2-0.2c0.1-0.1,0.1-0.1,0.2-0.2c0.1-0.1,0.1-0.1,0.2-0.2
						c0.1-0.1,0.1-0.1,0.2-0.2C38,7.3,38,7.3,38.1,7.2c0.1-0.1,0.1-0.1,0.2-0.2C38.3,7,38.4,7,38.4,6.9c0.1-0.1,0.1-0.1,0.2-0.1
						c0.1-0.1,0.2-0.1,0.2-0.1c0.1,0,0.1-0.1,0.2-0.1c0.1-0.1,0.2-0.1,0.2-0.1c0.1,0,0.1-0.1,0.2-0.1c0.1,0,0.2-0.1,0.2-0.1
						c0.1,0,0.2-0.1,0.2-0.1c0.1,0,0.1,0,0.2-0.1c0.1,0,0.2-0.1,0.2-0.1c0.1,0,0.2,0,0.2-0.1C40.6,6,40.7,6,40.8,5.9z"/>
				</g>
			</g>
			<g class="st0">
				<g class="st0">
					<defs>
						<path id="SVGID_25_" class="st0" d="M35.6,68.5l-3.8-2.1c0-0.1,0-0.1-0.1-0.2c0-0.1,0-0.2-0.1-0.2c0-0.1,0-0.2-0.1-0.2
							c0-0.1,0-0.1,0-0.2c0-0.1,0-0.2,0-0.2c0-0.1,0-0.2,0-0.2c0-0.1,0-0.2,0-0.2c0-0.1,0-0.2,0-0.3l3.8,2.1c0,0.1,0,0.1,0,0.3
							c0,0.1,0,0.1,0,0.2c0,0.1,0,0.1,0,0.2c0,0.1,0,0.1,0,0.2c0,0.1,0,0.1,0,0.2c0,0.1,0,0.1,0.1,0.2c0,0.1,0,0.1,0.1,0.2
							C35.6,68.3,35.6,68.4,35.6,68.5z"/>
					</defs>
					<clipPath id="SVGID_26_">
						<use xlink:href="#SVGID_25_"  style="overflow:visible;"/>
					</clipPath>
					<g class="st61">
						<path class="st62" d="M35.6,68.5l-3.8-2.1c0-0.1,0-0.1-0.1-0.2c0-0.1,0-0.2-0.1-0.2c0-0.1,0-0.2-0.1-0.2c0-0.1,0-0.1,0-0.2
							c0-0.1,0-0.2,0-0.2c0-0.1,0-0.2,0-0.2c0-0.1,0-0.2,0-0.2c0-0.1,0-0.2,0-0.3l3.8,2.1c0,0.1,0,0.1,0,0.3c0,0.1,0,0.1,0,0.2
							c0,0.1,0,0.1,0,0.2c0,0.1,0,0.1,0,0.2c0,0.1,0,0.1,0,0.2c0,0.1,0,0.1,0.1,0.2c0,0.1,0,0.1,0.1,0.2
							C35.6,68.3,35.6,68.4,35.6,68.5"/>
					</g>
				</g>
				<g>
					<polygon class="st36" points="35.3,66.6 31.5,64.5 31.6,10.6 35.4,12.7 					"/>
				</g>
				<g class="st0">
					<defs>
						<path id="SVGID_27_" class="st0" d="M35.4,12.7l-3.8-2.1c0-0.1,0-0.1,0-0.2c0-0.1,0-0.2,0-0.3c0-0.1,0-0.2,0-0.2
							c0-0.1,0-0.2,0-0.2c0-0.1,0-0.2,0-0.3c0-0.1,0-0.1,0-0.2c0-0.1,0-0.2,0.1-0.2c0-0.1,0-0.2,0.1-0.2l3.8,2.1
							c0,0.1,0,0.1-0.1,0.2c0,0.1,0,0.1-0.1,0.2c0,0.1,0,0.1,0,0.2c0,0.1,0,0.1,0,0.3c0,0.1,0,0.1,0,0.2c0,0.1,0,0.1,0,0.2
							c0,0.1,0,0.1,0,0.3C35.4,12.5,35.4,12.6,35.4,12.7z"/>
					</defs>
					<clipPath id="SVGID_28_">
						<use xlink:href="#SVGID_27_"  style="overflow:visible;"/>
					</clipPath>
					<g class="st63">
						<path class="st62" d="M35.4,12.7l-3.8-2.1c0-0.1,0-0.1,0-0.2c0-0.1,0-0.2,0-0.3c0-0.1,0-0.2,0-0.2c0-0.1,0-0.2,0-0.2
							c0-0.1,0-0.2,0-0.3c0-0.1,0-0.1,0-0.2c0-0.1,0-0.2,0.1-0.2c0-0.1,0-0.2,0.1-0.2l3.8,2.1c0,0.1,0,0.1-0.1,0.2
							c0,0.1,0,0.1-0.1,0.2c0,0.1,0,0.1,0,0.2c0,0.1,0,0.1,0,0.3c0,0.1,0,0.1,0,0.2c0,0.1,0,0.1,0,0.2c0,0.1,0,0.1,0,0.3
							C35.4,12.5,35.4,12.6,35.4,12.7"/>
					</g>
				</g>
				<g>
					<path class="st37" d="M35.7,11.9c0,0.3,0,0.5,0,0.8l-0.1,53.9c0,0.3,0,0.5,0,0.8l0,1.1c0-0.1,0-0.1-0.1-0.2
						c0-0.1,0-0.2-0.1-0.2c0-0.1,0-0.2-0.1-0.2c0-0.1,0-0.1,0-0.2c0-0.1,0-0.2,0-0.2c0-0.1,0-0.2,0-0.2c0-0.1,0-0.2,0-0.2
						c0-0.1,0-0.2,0-0.3l0.1-53.9c0-0.1,0-0.1,0-0.2c0-0.1,0-0.2,0-0.3c0-0.1,0-0.2,0-0.2c0-0.1,0-0.2,0-0.2c0-0.1,0-0.2,0-0.3
						c0-0.1,0-0.1,0-0.2c0-0.1,0-0.2,0.1-0.2c0-0.1,0-0.2,0.1-0.2L35.7,11.9z"/>
				</g>
			</g>
		</g>
	</g>
</g>
<g id="Modo_de_isolamento">
	<g>
		<defs>
			<path id="SVGID_29_" d="M104.3,40.7c22.3,12.9,22.4,33.8,0.3,46.6c-22.1,12.9-58.2,12.9-80.5,0C1.8,74.5,1.7,53.6,23.8,40.7
				C45.9,27.8,82.1,27.8,104.3,40.7z"/>
		</defs>
		<clipPath id="SVGID_30_">
			<use xlink:href="#SVGID_29_"  style="overflow:visible;"/>
		</clipPath>
		<defs>
			<filter id="Adobe_OpacityMaskFilter" filterUnits="userSpaceOnUse" x="33.9" y="65.6" width="65" height="75.1">
				<feColorMatrix  type="matrix" values="1 0 0 0 0  0 1 0 0 0  0 0 1 0 0  0 0 0 1 0"/>
			</filter>
		</defs>
		<mask maskUnits="userSpaceOnUse" x="33.9" y="65.6" width="65" height="75.1" id="SVGID_31_">
			<g class="st64">
				<linearGradient id="SVGID_32_" gradientUnits="userSpaceOnUse" x1="71.2655" y1="134.4907" x2="71.2655" y2="40.9293">
					<stop  offset="0" style="stop-color:#FFFFFF;stop-opacity:0"/>
					<stop  offset="0.1222" style="stop-color:#FBFBFB;stop-opacity:0.1222"/>
					<stop  offset="0.2473" style="stop-color:#EFEFEF;stop-opacity:0.2473"/>
					<stop  offset="0.3738" style="stop-color:#DADADA;stop-opacity:0.3738"/>
					<stop  offset="0.5013" style="stop-color:#BDBDBD;stop-opacity:0.5013"/>
					<stop  offset="0.6296" style="stop-color:#989898;stop-opacity:0.6296"/>
					<stop  offset="0.7585" style="stop-color:#6B6B6B;stop-opacity:0.7585"/>
					<stop  offset="0.8855" style="stop-color:#363636;stop-opacity:0.8855"/>
					<stop  offset="1" style="stop-color:#000000"/>
				</linearGradient>
				<rect x="24.5" y="67.4" class="st65" width="93.6" height="93.6"/>
			</g>
		</mask>
		<g class="st66">
			<g class="st0">
				<g>
					<polygon class="st42" points="68.2,137.2 64.4,135.1 64.4,134.8 68.2,136.9 					"/>
				</g>
				<g>
					<polygon class="st43" points="68.3,105.5 64.5,103.4 95,99.1 98.8,101.2 					"/>
				</g>
				<g>
					<polygon class="st42" points="68.2,136.9 64.4,134.8 64.5,103.4 68.3,105.5 					"/>
				</g>
				<g>
					<path class="st44" d="M68.2,136.9l0.1-31.5l30.5-4.3l0,25.7c0,3.3-2.5,6.4-5.6,6.8l-25,3.5L68.2,136.9z"/>
				</g>
			</g>
			<g class="st0">
				<g class="st0">
					<defs>
						<path id="SVGID_33_" class="st0" d="M92.5,66.2l3.8,2.1c-0.9-0.5-1.9-0.7-3-0.5l-3.8-2.1C90.6,65.5,91.6,65.7,92.5,66.2z"/>
					</defs>
					<clipPath id="SVGID_34_">
						<use xlink:href="#SVGID_33_"  style="overflow:visible;"/>
					</clipPath>
					<g class="st67">
						<path class="st68" d="M93.3,67.7l-3.8-2.1c0.1,0,0.2,0,0.3,0l3.8,2.1C93.5,67.7,93.4,67.7,93.3,67.7"/>
						<path class="st69" d="M93.6,67.7l-3.8-2.1c0.6-0.1,1.2,0,1.7,0.1l3.8,2.1C94.7,67.7,94.2,67.6,93.6,67.7"/>
						<path class="st70" d="M95.3,67.8l-3.8-2.1c0.3,0.1,0.7,0.2,1,0.4l3.8,2.1C96,68.1,95.6,67.9,95.3,67.8"/>
					</g>
				</g>
				<g>
					<polygon class="st32" points="68.3,105.5 64.5,103.4 64.5,103.1 68.3,105.2 					"/>
				</g>
				<g>
					<polygon class="st32" points="68.3,105.2 64.5,103.1 64.5,69.4 68.3,71.5 					"/>
				</g>
				<g>
					<polygon class="st33" points="68.3,71.2 64.5,69.2 89.5,65.6 93.3,67.7 					"/>
				</g>
				<g>
					<path class="st34" d="M93.3,67.7c3.1-0.4,5.6,1.9,5.6,5.2l-0.1,28.2l-30.5,4.3l0-0.3l0.1-33.7l0-0.3L93.3,67.7z"/>
				</g>
				<g>
					<polygon class="st32" points="68.3,71.5 64.5,69.4 64.5,69.2 68.3,71.2 					"/>
				</g>
				<g>
					<polygon class="st36" points="68.1,71.5 64.3,69.5 64.3,69.2 68.1,71.3 					"/>
				</g>
				<g>
					<polygon class="st37" points="68.3,71.5 68.1,71.5 68.1,71.3 68.3,71.2 					"/>
				</g>
				<g>
					<polygon class="st35" points="68.1,71.3 64.3,69.2 64.5,69.2 68.3,71.2 					"/>
				</g>
			</g>
			<g class="st0">
				<g>
					<polygon class="st35" points="68,136.9 64.2,134.9 64.4,134.8 68.2,136.9 					"/>
				</g>
				<g>
					<polygon class="st36" points="68,137.2 64.2,135.1 64.2,134.9 68,136.9 					"/>
				</g>
				<g>
					<polygon class="st37" points="68,136.9 68.2,136.9 68.2,137.2 68,137.2 					"/>
				</g>
				<g class="st0">
					<defs>
						<path id="SVGID_35_" class="st0" d="M40.3,140.2l-3.8-2.1c0,0-0.1,0-0.1-0.1l3.8,2.1C40.2,140.1,40.2,140.1,40.3,140.2z"/>
					</defs>
					<clipPath id="SVGID_36_">
						<use xlink:href="#SVGID_35_"  style="overflow:visible;"/>
					</clipPath>
					<g class="st71">
						<path class="st56" d="M40.3,140.2l-3.8-2.1c0,0-0.1,0-0.1-0.1l3.8,2.1C40.2,140.1,40.2,140.1,40.3,140.2"/>
					</g>
				</g>
				<g class="st0">
					<defs>
						<path id="SVGID_37_" class="st0" d="M40.1,140.1l-3.8-2.1c-0.1,0-0.1-0.1-0.2-0.1c-0.1-0.1-0.2-0.2-0.3-0.2
							c-0.1-0.1-0.1-0.1-0.2-0.1c-0.1-0.1-0.1-0.1-0.2-0.1c-0.1-0.1-0.1-0.1-0.1-0.1c-0.1-0.1-0.2-0.2-0.3-0.3
							c-0.1-0.1-0.1-0.1-0.1-0.2c0-0.1-0.1-0.1-0.1-0.2c0-0.1-0.1-0.1-0.1-0.2c-0.1-0.1-0.2-0.2-0.2-0.4c0-0.1-0.1-0.1-0.1-0.2
							c0-0.1-0.1-0.1-0.1-0.2c0-0.1-0.1-0.1-0.1-0.2c0-0.1-0.1-0.2-0.1-0.2l3.8,2.1c0,0.1,0,0.1,0.1,0.2c0,0.1,0,0.1,0.1,0.2
							c0,0.1,0,0.1,0.1,0.2c0,0.1,0.1,0.1,0.1,0.2c0.1,0.1,0.1,0.2,0.2,0.4c0,0.1,0.1,0.1,0.1,0.2c0,0.1,0.1,0.1,0.1,0.2
							c0,0.1,0.1,0.1,0.1,0.2c0.1,0.1,0.2,0.2,0.3,0.3c0,0,0.1,0.1,0.1,0.1c0,0,0.1,0.1,0.2,0.1c0,0,0.1,0.1,0.2,0.1
							c0.1,0.1,0.2,0.2,0.3,0.2C40,140,40.1,140.1,40.1,140.1z"/>
					</defs>
					<clipPath id="SVGID_38_">
						<use xlink:href="#SVGID_37_"  style="overflow:visible;"/>
					</clipPath>
					<g class="st72">
						<path class="st56" d="M40.1,140.1l-3.8-2.1c-0.1,0-0.1-0.1-0.2-0.1c-0.1-0.1-0.2-0.2-0.3-0.2c-0.1-0.1-0.1-0.1-0.2-0.1
							c-0.1-0.1-0.1-0.1-0.2-0.1c-0.1-0.1-0.1-0.1-0.1-0.1c-0.1-0.1-0.2-0.2-0.3-0.3c-0.1-0.1-0.1-0.1-0.1-0.2
							c0-0.1-0.1-0.1-0.1-0.2c0-0.1-0.1-0.1-0.1-0.2c-0.1-0.1-0.2-0.2-0.2-0.4c0-0.1-0.1-0.1-0.1-0.2c0-0.1-0.1-0.1-0.1-0.2
							c0-0.1-0.1-0.1-0.1-0.2c0-0.1-0.1-0.2-0.1-0.2l3.8,2.1c0,0.1,0,0.1,0.1,0.2c0,0.1,0,0.1,0.1,0.2c0,0.1,0,0.1,0.1,0.2
							c0,0.1,0.1,0.1,0.1,0.2c0.1,0.1,0.1,0.2,0.2,0.4c0,0.1,0.1,0.1,0.1,0.2c0,0.1,0.1,0.1,0.1,0.2c0,0.1,0.1,0.1,0.1,0.2
							c0.1,0.1,0.2,0.2,0.3,0.3c0,0,0.1,0.1,0.1,0.1c0,0,0.1,0.1,0.2,0.1c0,0,0.1,0.1,0.2,0.1c0.1,0.1,0.2,0.2,0.3,0.2
							C40,140,40.1,140.1,40.1,140.1"/>
					</g>
				</g>
				<g>
					<polygon class="st54" points="38,137.3 34.2,135.3 34.2,134.1 38,136.2 					"/>
				</g>
				<g>
					<polygon class="st54" points="38,136.2 34.2,134.1 34.2,107.8 38,109.9 					"/>
				</g>
				<g>
					<polygon class="st51" points="38,109.9 34.2,107.8 64.2,103.6 68.1,105.6 					"/>
				</g>
				<g>
					<path class="st60" d="M68.1,105.6L68,136.9l0,0.3l-24.8,3.5c-0.1,0-0.1,0-0.2,0c-0.1,0-0.2,0-0.2,0c-0.1,0-0.2,0-0.2,0
						c-0.1,0-0.2,0-0.2,0c-0.1,0-0.2,0-0.2,0c-0.1,0-0.1,0-0.2,0c-0.1,0-0.2,0-0.2,0c-0.1,0-0.1,0-0.2,0c-0.1,0-0.2,0-0.2-0.1
						c-0.1,0-0.1,0-0.2-0.1c-0.1,0-0.1,0-0.2-0.1c-0.1,0-0.1-0.1-0.2-0.1c-0.1,0-0.1-0.1-0.2-0.1c-0.1,0-0.1-0.1-0.2-0.1
						c-0.1,0-0.1-0.1-0.2-0.1c-0.1,0-0.1-0.1-0.2-0.1c-0.1-0.1-0.2-0.2-0.3-0.2c-0.1-0.1-0.1-0.1-0.2-0.1c-0.1-0.1-0.1-0.1-0.2-0.1
						c-0.1-0.1-0.1-0.1-0.1-0.1c-0.1-0.1-0.2-0.2-0.3-0.3c-0.1-0.1-0.1-0.1-0.1-0.2c0-0.1-0.1-0.1-0.1-0.2c0-0.1-0.1-0.1-0.1-0.2
						c-0.1-0.1-0.2-0.2-0.2-0.4c0-0.1-0.1-0.1-0.1-0.2c0-0.1-0.1-0.1-0.1-0.2c0-0.1-0.1-0.1-0.1-0.2c0-0.1-0.1-0.2-0.1-0.2l0-1.1
						l0-26.3L68.1,105.6z"/>
				</g>
			</g>
			<g class="st0">
				<g>
					<polygon class="st48" points="38,109.9 34.2,107.8 34.2,107.4 38,109.5 					"/>
				</g>
				<g>
					<polygon class="st49" points="43.4,74.7 39.5,72.7 64.3,69.2 68.1,71.3 					"/>
				</g>
				<g class="st0">
					<defs>
						<path id="SVGID_39_" class="st0" d="M43.1,74.8l-3.8-2.1c0.1,0,0.2,0,0.2,0l3.8,2.1C43.3,74.8,43.2,74.8,43.1,74.8z"/>
					</defs>
					<clipPath id="SVGID_40_">
						<use xlink:href="#SVGID_39_"  style="overflow:visible;"/>
					</clipPath>
					<g class="st73">
						<path class="st74" d="M43.1,74.8l-3.8-2.1c0.1,0,0.2,0,0.2,0l3.8,2.1C43.3,74.8,43.2,74.8,43.1,74.8"/>
					</g>
				</g>
				<g>
					<polygon class="st48" points="38,109.5 34.2,107.4 34.3,78.6 38.1,80.7 					"/>
				</g>
				<g>
					<polygon class="st48" points="38.1,80.7 34.3,78.6 34.3,77.5 38.1,79.6 					"/>
				</g>
				<g class="st0">
					<defs>
						<path id="SVGID_41_" class="st0" d="M38.1,79.6l-3.8-2.1c0-0.1,0-0.1,0.1-0.2c0-0.1,0.1-0.2,0.1-0.2c0-0.1,0.1-0.2,0.1-0.2
							c0-0.1,0.1-0.2,0.1-0.2c0.1-0.2,0.1-0.3,0.2-0.4c0.1-0.1,0.1-0.2,0.1-0.2c0-0.1,0.1-0.1,0.1-0.2c0.1-0.1,0.1-0.1,0.1-0.2
							c0.1-0.2,0.2-0.3,0.3-0.4c0.1-0.1,0.1-0.1,0.2-0.2c0.1-0.1,0.1-0.1,0.1-0.2c0.1-0.1,0.1-0.1,0.2-0.2c0.1-0.1,0.1-0.1,0.2-0.2
							c0.1-0.1,0.1-0.1,0.2-0.2c0.1-0.1,0.1-0.1,0.2-0.2c0.1-0.1,0.1-0.1,0.2-0.1c0.1-0.1,0.1-0.1,0.2-0.2c0.1-0.1,0.1-0.1,0.2-0.1
							c0.1,0,0.1-0.1,0.2-0.1c0.1-0.1,0.2-0.1,0.2-0.1c0.1,0,0.1-0.1,0.2-0.1c0.1-0.1,0.2-0.1,0.2-0.1c0.1,0,0.1-0.1,0.2-0.1
							c0.1,0,0.1-0.1,0.2-0.1c0.1,0,0.2-0.1,0.2-0.1c0.1,0,0.1,0,0.2-0.1c0.1,0,0.2-0.1,0.2-0.1c0.1,0,0.2,0,0.2-0.1
							c0.1,0,0.2,0,0.2,0l3.8,2.1c-0.1,0-0.1,0-0.2,0c-0.1,0-0.1,0-0.2,0.1c-0.1,0-0.1,0-0.2,0.1c-0.1,0-0.1,0-0.2,0.1
							c-0.1,0-0.1,0-0.2,0.1c-0.1,0-0.1,0.1-0.2,0.1c-0.1,0-0.1,0.1-0.2,0.1c-0.1,0-0.1,0.1-0.2,0.1c-0.1,0-0.1,0.1-0.2,0.1
							c-0.1,0-0.1,0.1-0.2,0.1c-0.1,0-0.1,0.1-0.2,0.1c-0.1,0-0.1,0.1-0.2,0.1c-0.1,0-0.1,0.1-0.2,0.2c-0.1,0-0.1,0.1-0.2,0.1
							c-0.1,0-0.1,0.1-0.2,0.2c-0.1,0-0.1,0.1-0.2,0.2c0,0-0.1,0.1-0.2,0.2c0,0.1-0.1,0.1-0.2,0.2c0,0.1-0.1,0.1-0.1,0.2
							c0,0.1-0.1,0.1-0.2,0.2c-0.1,0.1-0.2,0.2-0.3,0.4c0,0.1-0.1,0.1-0.1,0.2c0,0.1-0.1,0.1-0.1,0.2c0,0.1-0.1,0.1-0.1,0.2
							c-0.1,0.1-0.1,0.3-0.2,0.4c0,0.1-0.1,0.1-0.1,0.2c0,0.1,0,0.1-0.1,0.2c0,0.1,0,0.1-0.1,0.2C38.1,79.4,38.1,79.5,38.1,79.6z"/>
					</defs>
					<clipPath id="SVGID_42_">
						<use xlink:href="#SVGID_41_"  style="overflow:visible;"/>
					</clipPath>
					<g class="st75">
						<path class="st46" d="M38.1,79.6l-3.8-2.1c0-0.1,0-0.1,0.1-0.2c0-0.1,0.1-0.2,0.1-0.2c0-0.1,0.1-0.2,0.1-0.2
							c0-0.1,0.1-0.2,0.1-0.2c0.1-0.2,0.1-0.3,0.2-0.4c0.1-0.1,0.1-0.2,0.1-0.2c0-0.1,0.1-0.1,0.1-0.2c0.1-0.1,0.1-0.1,0.1-0.2
							c0.1-0.2,0.2-0.3,0.3-0.4c0.1-0.1,0.1-0.1,0.2-0.2c0.1-0.1,0.1-0.1,0.1-0.2c0.1-0.1,0.1-0.1,0.2-0.2c0.1-0.1,0.1-0.1,0.2-0.2
							l3.8,2.1c0,0-0.1,0.1-0.2,0.2c0,0.1-0.1,0.1-0.2,0.2c0,0.1-0.1,0.1-0.1,0.2c0,0.1-0.1,0.1-0.2,0.2c-0.1,0.1-0.2,0.2-0.3,0.4
							c0,0.1-0.1,0.1-0.1,0.2c0,0.1-0.1,0.1-0.1,0.2c0,0.1-0.1,0.1-0.1,0.2c-0.1,0.1-0.1,0.3-0.2,0.4c0,0.1-0.1,0.1-0.1,0.2
							c0,0.1,0,0.1-0.1,0.2c0,0.1,0,0.1-0.1,0.2C38.1,79.4,38.1,79.5,38.1,79.6"/>
						<path class="st76" d="M39.9,76.5l-3.8-2.1c0,0,0,0,0,0c0.1-0.1,0.1-0.1,0.2-0.2c0.1-0.1,0.1-0.1,0.2-0.2
							c0.1-0.1,0.1-0.1,0.2-0.1c0.1-0.1,0.1-0.1,0.2-0.2c0.1-0.1,0.1-0.1,0.2-0.1l3.8,2.1c-0.1,0-0.1,0.1-0.2,0.1
							c-0.1,0-0.1,0.1-0.2,0.2c-0.1,0-0.1,0.1-0.2,0.1c-0.1,0-0.1,0.1-0.2,0.2C40,76.4,40,76.5,39.9,76.5
							C39.9,76.5,39.9,76.5,39.9,76.5"/>
						<path class="st77" d="M40.8,75.8L37,73.7c0,0,0,0,0,0c0.1,0,0.1-0.1,0.2-0.1c0.1-0.1,0.2-0.1,0.2-0.1c0.1,0,0.1-0.1,0.2-0.1
							c0.1-0.1,0.2-0.1,0.2-0.1c0,0,0,0,0,0l3.8,2.1c0,0,0,0,0,0c-0.1,0-0.1,0.1-0.2,0.1c-0.1,0-0.1,0.1-0.2,0.1
							c-0.1,0-0.1,0.1-0.2,0.1C40.9,75.7,40.9,75.7,40.8,75.8C40.8,75.8,40.8,75.8,40.8,75.8"/>
						<path class="st78" d="M41.6,75.3l-3.8-2.1c0.1,0,0.1-0.1,0.2-0.1c0.1,0,0.1-0.1,0.2-0.1c0.1,0,0.2-0.1,0.2-0.1
							c0.1,0,0.1,0,0.2-0.1c0.1,0,0.1,0,0.1,0l3.8,2.1c0,0-0.1,0-0.1,0c-0.1,0-0.1,0-0.2,0.1c-0.1,0-0.1,0-0.2,0.1
							c-0.1,0-0.1,0.1-0.2,0.1C41.8,75.2,41.7,75.2,41.6,75.3"/>
						<path class="st74" d="M42.6,74.9l-3.8-2.1c0,0,0.1,0,0.1,0c0.1,0,0.2,0,0.2-0.1c0.1,0,0.2,0,0.2,0l3.8,2.1c-0.1,0-0.1,0-0.2,0
							c-0.1,0-0.1,0-0.2,0.1C42.6,74.9,42.6,74.9,42.6,74.9"/>
					</g>
				</g>
				<g>
					<path class="st50" d="M43.1,74.8c0.1,0,0.2,0,0.2,0l24.8-3.5l0,0.3l-0.1,34.1l-30,4.2l0-0.4l0.1-28.8l0-1.1
						c0-0.1,0-0.1,0.1-0.2c0-0.1,0.1-0.2,0.1-0.2c0-0.1,0.1-0.2,0.1-0.2c0-0.1,0.1-0.2,0.1-0.2c0.1-0.2,0.1-0.3,0.2-0.4
						c0.1-0.1,0.1-0.2,0.1-0.2c0-0.1,0.1-0.1,0.1-0.2c0.1-0.1,0.1-0.1,0.1-0.2c0.1-0.2,0.2-0.3,0.3-0.4c0.1-0.1,0.1-0.1,0.2-0.2
						c0.1-0.1,0.1-0.1,0.1-0.2c0.1-0.1,0.1-0.1,0.2-0.2c0.1-0.1,0.1-0.1,0.2-0.2c0.1-0.1,0.1-0.1,0.2-0.2c0.1-0.1,0.1-0.1,0.2-0.2
						c0.1-0.1,0.1-0.1,0.2-0.1c0.1-0.1,0.1-0.1,0.2-0.2c0.1-0.1,0.1-0.1,0.2-0.1c0.1,0,0.1-0.1,0.2-0.1c0.1-0.1,0.2-0.1,0.2-0.1
						c0.1,0,0.1-0.1,0.2-0.1c0.1-0.1,0.2-0.1,0.2-0.1c0.1,0,0.1-0.1,0.2-0.1c0.1,0,0.1-0.1,0.2-0.1c0.1,0,0.2-0.1,0.2-0.1
						c0.1,0,0.1,0,0.2-0.1c0.1,0,0.2-0.1,0.2-0.1c0.1,0,0.2,0,0.2-0.1C43,74.8,43,74.8,43.1,74.8z"/>
				</g>
			</g>
			<g class="st0">
				<g class="st0">
					<defs>
						<path id="SVGID_43_" class="st0" d="M38,137.3l-3.8-2.1c0-0.1,0-0.1-0.1-0.2c0-0.1,0-0.2-0.1-0.2c0-0.1,0-0.2,0-0.2
							c0-0.1,0-0.2,0-0.2c0-0.1,0-0.2,0-0.3c0-0.1,0-0.2,0-0.2c0-0.1,0-0.2,0-0.3l3.8,2.1c0,0.1,0,0.1,0,0.3c0,0.1,0,0.1,0,0.2
							c0,0.1,0,0.1,0,0.3c0,0.1,0,0.1,0,0.2c0,0.1,0,0.1,0,0.2c0,0.1,0,0.1,0.1,0.2C37.9,137.2,37.9,137.3,38,137.3z"/>
					</defs>
					<clipPath id="SVGID_44_">
						<use xlink:href="#SVGID_43_"  style="overflow:visible;"/>
					</clipPath>
					<g class="st79">
						<path class="st62" d="M38,137.3l-3.8-2.1c0-0.1,0-0.1-0.1-0.2c0-0.1,0-0.2-0.1-0.2c0-0.1,0-0.2,0-0.2c0-0.1,0-0.2,0-0.2
							c0-0.1,0-0.2,0-0.3c0-0.1,0-0.2,0-0.2c0-0.1,0-0.2,0-0.3l3.8,2.1c0,0.1,0,0.1,0,0.3c0,0.1,0,0.1,0,0.2c0,0.1,0,0.1,0,0.3
							c0,0.1,0,0.1,0,0.2c0,0.1,0,0.1,0,0.2c0,0.1,0,0.1,0.1,0.2C37.9,137.2,37.9,137.3,38,137.3"/>
					</g>
				</g>
				<g class="st0">
					<defs>
						<path id="SVGID_45_" class="st0" d="M37.7,135.7l-3.8-2.1c0-0.1,0-0.2,0-0.3l3.8,2.1C37.7,135.5,37.7,135.6,37.7,135.7z"/>
					</defs>
					<clipPath id="SVGID_46_">
						<use xlink:href="#SVGID_45_"  style="overflow:visible;"/>
					</clipPath>
					<g class="st80">
						<path class="st62" d="M37.7,135.7l-3.8-2.1c0-0.1,0-0.2,0-0.3l3.8,2.1C37.7,135.5,37.7,135.6,37.7,135.7"/>
					</g>
				</g>
				<g>
					<polygon class="st36" points="37.7,135.5 33.9,133.4 34,79.5 37.8,81.5 					"/>
				</g>
				<g class="st0">
					<defs>
						<path id="SVGID_47_" class="st0" d="M37.8,81.5L34,79.5c0-0.1,0-0.2,0-0.2c0-0.1,0-0.2,0-0.3c0-0.1,0-0.2,0-0.2
							c0-0.1,0-0.2,0-0.2c0-0.1,0-0.2,0-0.3c0-0.1,0-0.2,0-0.2c0-0.1,0-0.2,0.1-0.2c0-0.1,0.1-0.2,0.1-0.3l3.8,2.1
							c0,0.1,0,0.1-0.1,0.3c0,0.1,0,0.1-0.1,0.2c0,0.1,0,0.1,0,0.2c0,0.1,0,0.1,0,0.3c0,0.1,0,0.1,0,0.2c0,0.1,0,0.1,0,0.2
							c0,0.1,0,0.1,0,0.3C37.8,81.4,37.8,81.5,37.8,81.5z"/>
					</defs>
					<clipPath id="SVGID_48_">
						<use xlink:href="#SVGID_47_"  style="overflow:visible;"/>
					</clipPath>
					<g class="st81">
						<path class="st62" d="M37.8,81.5L34,79.5c0-0.1,0-0.2,0-0.2c0-0.1,0-0.2,0-0.3c0-0.1,0-0.2,0-0.2c0-0.1,0-0.2,0-0.2
							c0-0.1,0-0.2,0-0.3c0-0.1,0-0.2,0-0.2c0-0.1,0-0.2,0.1-0.2c0-0.1,0.1-0.2,0.1-0.3l3.8,2.1c0,0.1,0,0.1-0.1,0.3
							c0,0.1,0,0.1-0.1,0.2c0,0.1,0,0.1,0,0.2c0,0.1,0,0.1,0,0.3c0,0.1,0,0.1,0,0.2c0,0.1,0,0.1,0,0.2c0,0.1,0,0.1,0,0.3
							C37.8,81.4,37.8,81.5,37.8,81.5"/>
					</g>
				</g>
				<g>
					<path class="st37" d="M37.7,135.7c0-0.1,0-0.2,0-0.3l0.1-53.9c0-0.1,0-0.2,0-0.2c0-0.1,0-0.2,0-0.3c0-0.1,0-0.2,0-0.2
						c0-0.1,0-0.2,0-0.2c0-0.1,0-0.2,0-0.3c0-0.1,0-0.2,0-0.2c0-0.1,0-0.2,0.1-0.2c0-0.1,0.1-0.2,0.1-0.3l0,1.1
						c0,0.3-0.1,0.5-0.1,0.8l-0.1,53.9c0,0.3,0,0.5,0,0.8l0,1.1c0-0.1,0-0.1-0.1-0.2c0-0.1,0-0.2-0.1-0.2c0-0.1,0-0.2,0-0.2
						c0-0.1,0-0.2,0-0.2c0-0.1,0-0.2,0-0.3c0-0.1,0-0.2,0-0.2C37.7,135.9,37.7,135.8,37.7,135.7z"/>
				</g>
			</g>
		</g>
	</g>
</g>
</svg>
