<svg enable-background="new 0 0 527.2 530.2" viewBox="0 0 527.2 530.2" xmlns="http://www.w3.org/2000/svg" xmlns:xlink="http://www.w3.org/1999/xlink"><clipPath id="a"><circle cx="263.6" cy="266.7" r="263.6"/></clipPath><radialGradient id="b" cx="263.58" cy="267.9978" gradientTransform="matrix(1 0 0 -1 0 534.6555)" gradientUnits="userSpaceOnUse" r="263.58"><stop offset="0" stop-color="#027fc1"/><stop offset="1" stop-color="#0e4f9a"/></radialGradient><g clip-path="url(#a)"><circle cx="263.6" cy="266.7" fill="url(#b)" r="263.6"/><image height="633" opacity=".1" overflow="visible" transform="matrix(.2386 0 0 .2386 114.3802 -33)" width="1213" xlink:href="BA7B7157.png"/></g><g clip-rule="evenodd" fill="#fff" fill-rule="evenodd"><path d="m384.7 232.3c3.1 1.7 6.4 4.9 9.4 7.3s5.7 4.5 8.9 7l18.6 13.7c7.4 4.9 19.1 6.5 22.7-1.9 4.5-10.5-10.6-20.2-18.7-27.9l-33.9-30.6c-5.2-4.7-21.1-18.1-26.5-21.7-15.9-10.3-33.8-9.7-47.3 4.5-8.5 8.9-10.9 23.5-15.6 33.2-1.9 3.9-3.5 6.4-7.4 8.5-11.9 6.4-43.7 6.1-45.4 19.4-2.4 18.4 39.2 10.3 50.1 9-1.3 11.5-10.3 56.3-10 61.9l108.8-.1z"/><path d="m185.2 246.7c-4.4-1.5-15.7-9.3-20.3-12.5-1.6-1.1-4.4-3.3-6-4.1 6.8 2.4 22.8 10.8 29.7 14.7 8.3 4.6 22.8 10.3 34 10.4 18 0 20.9-14.1 7.7-20.5-4.8-2.3-11.6-3.5-16.6-5.8-15-6.8-25-18.4-34.6-31.3-7-9.4-11.8-17.2-22-22.1-11.5-5.6-25.5-5.2-36.6.4-9.1 4.6-17.3 12.8-17.3 27v80.5h82.2z"/><path d="m121.7 286.9v50.4c0 8.5.7 14.8 5.4 19.8 3.9 4.2 8.7 7.9 17.1 8 8.4 0 13.3-3.8 17.1-8 5.2-5.6 5.5-11 5.5-19.8 0-16.8 0-33.6 0-50.4-15.2 0-30.5 0-45.1 0"/><path d="m265.2 227.7c3.5-8.7-1.7-9.7-5.2-11.6-14-7.6-12.3-13.3-25.5-4-1.6 1.2-10.9 6.4-11.4 7.7-.8 1.7-.3 6.9.6 8.3 1.1 1.8 5 2.1 6.9 3 12.6 5.3 14 17.5 6.6 23.3-3.9 3.1-9.1 3.9-15 4.1.7 10.8 2.3 24 4.9 34 2.7 10.5 5.5 20.4 17.8 20.2 7.5-.1 9.3-2.2 11.8-7.1 4.6-9 10-40.1 9.5-46.2-22.5-1.7-25.3-17.9-13.4-25.4 4.2-2.7 7.5-3.1 11.8-5.2z"/><path d="m428.2 267.5-16.7 17c1.7 3.4 10.5 11.1 13.7 14.3 3 3 11.4 12.4 14.5 13.6l54.5-54.6c-2-4-22.5-22.1-27.5-28.2-3.2 2.5-6.8 6.6-10 9.7-1.8 1.8-9 7.9-9 10.1.1 3.2 1.5 3.9.4 8.3-.7 2.9-2.1 4.5-3.8 6.1-4.9 4.7-8.8 3.8-16.1 3.7"/><path d="m339.6 100c-40.6 6.6-29.7 65.7 9.4 59.2 14.7-2.4 27.4-16.6 24.5-34.6-2.5-14.5-16.4-27.4-33.9-24.6"/><path d="m109.5 133.7c2 15.1 16 28.1 34 25.6 15-2.1 28.1-16.1 25.5-33.9-2.2-15.1-16.1-27.9-33.7-25.6-15.3 2.1-28.1 16-25.8 33.9"/><path d="m321.3 318.2c0 9-1.1 25.9 1.8 33.3 7.2 17.9 34.5 18.1 41.6-.5 2.9-7.6 1.6-23.9 1.7-32.8z"/><path d="m366.6 431.7 2.2 11 1.4 6.5c-1.5-1.3-3.9-3.6-5.1-5.3-1.6-2-3.8-3.7-4.7-5.7-1.4-1-1.4-1.4-2.7-2.6l-7.3 4 11.6 22.7c.8 2.8-.2-.4 1 1.2l2.6-.9 1.4-1.4-8.6-17.6c1.1 1.1 1.8 1.5 2.9 2.8l7.8 9.4c2.6 1.7.1 2.2 4.4 2.8l3.3-1.9-4.4-20.4c1.8 2.9 7.1 12.3 7.7 15.5l1.3 2.3 2.7-1.4 1.5-.8c.1-.2.2-.3.3-.4l-10.5-21.2-1.9-2.5c-1.9.4-6.4 2-6.9 3.9"/><path d="m124.1 412.3c-.6 2.4-.9 1.7-2.6 3.7-1.3 1.5-1.3 2-2.8 3.2-.9 1.4-2.2 2.7-3.3 3.8 0 2.5-.7.6 1.2 2.5.6.6 1.4.9 2.2 1.8.6-.5.8-.6 1.5-1.2l1.2-1.5c2.4-2.2 2.4-3.4 5-5.5 2.3 1 3.3 2.1 3.2 6v.4l-1.1 9.9c2 2.4 2.9 3.1 5.5 4.2-.4-5.4 1.6-8.4.5-14.6 7 2.9 12.9-.6 12-8.5-1-1.8-2.3-3.6-4.4-5.3-1.9-1.5-3.5-3.1-5.3-4.7-2.1-1.2-2-1.8-3.7-3.3-1.3.9-3.3 3.1-4.5 4.6zm13.8 2c2.6.9 1.2.1 2.4 2.1 2 3.4-2.8 6.5-3.7 4.2-2.1-.3-1.7-.1-2.9-2-2.1-.5-2.7-1-4.2-3.9 2.1-1.1 2.9-2.7 4-4.3 1.6.7 3.5 2.2 4.4 3.9z"/><path d="m386.1 425.5c1 1.1 1.7 1.9 2.7 3.2 1.5 1.9 1.7 1.6 2.1 3.6 2.4 1.2 4.4 4.8 6.5 7.5l2.4 2.5c1.6-.9.1.4 1.6-1.2 1.6-1.1.4-.6 1.9-.7-.7-3.4-3.8-5.9-5.6-8.7-1.5-2-3.3-3.7-4.5-6.2l6.8 2.7c4.7 1.1 8.7 4 13.7 4 .4-1.3-.3-.2 1.1-1.5.8-.8 1.3-1.2 1.9-1.6-1.8-2.5-4.3-5.5-6.3-8.1-1.7-2.2-5.7-6.4-6.2-8.8-2.4-1.2-1.6-.5-2-2.5-1.9-1-1.3-1-2.9-1.7-.9.9-2.3 2-3.2 3.1 3.3 4.6 7.7 8.8 10.6 13.8-4.2-1.1-8.7-3.1-12.8-4.5-6.6-2.4-6.4-3.7-10.9.8 1 1.2 2.2 2.6 3.1 4.3"/><path d="m146.9 443.4-1.5 2.6c.8 3.9-.5.1 2.1 3.6 2.3.3 5.5 2.1 7 4 2.7.2 5.7 1.8 9.3.8 2.4-.7 4.8-2.8 5.8-4.1 3-3.9 5.3-9.1 4.1-15.6-.5-.6-1.5-2.3-2.8-3.5-1.5-1.4-2.4-1.8-3.9-2.7-2.8-1.6-6-4-9.2-4.5-.2 2.2-1.2 3.2-2.4 5.3-1.1 1.9-2 3.5-2.9 5-1.6 2.7-3.9 7.9-5.6 9.1m11.4 5.6c-2.3-.2-1.4.3-2.6-1.3-2.3-.2-1 0-3.3-1.2.7-2.7 6.7-12.8 9.1-15.8l1.9 1.5c2.5.9 1.5.2 3.4 1.9 5.9 4.8-4.5 19.6-8.5 14.9z"/><path d="m200 450.3c.3 2.6-1.2 6-2 8.8-.4 1.4-.7 2.8-1.1 4.1-.6 2-.5 2.5-1.6 3.8l-.6 3.4c1.2 2.3 0 .7 1.7 1.7 0 0 2 .7 2 .7 1.9.5 2.6.6 4.2 1.3 7.4 1.4 11.4 1.8 15.3-3.7 4-5.8 3.1-10.5 2.2-17.1-3.5-2.3-2.7-3.4-8.3-5-2.8-.8-7-2.3-9.7-2.6l-1.8 4.2c0-.2-.1.2-.3.4m9 20.1c-2.3 0-4.4-.2-5.8-1.6l-1.8-.4 4.8-17c1.4.3 2.9.6 4.1 1.1 1.5.5 2 .5 2.4 1.4 2.4 1.3 2.2.8 2.9 4-.1 2.9-.7 5.5-1.6 7.9-1.3 3.1-1.5 3.8-5 4.6z"/><path d="m268.3 463.8c-1.3 7.1-1 12.5 4.2 17.4l1.1 1.1c4.6 1.4 4.5 1.8 10.3 1.4 10.7-3.4 11.7-9.7 9-21.2l-1.3-2.9c-3.8-2.3-7.1-5.1-14.2-3.7-4.9 1-7.3 3.9-9.1 7.9m17.9-.6c1.7 1.3 1.3.7 1.9 3.4 2 6.2-.5 11.4-6.4 12.5-1.3 0-1.4.1-2.8-.3-3.1-1-.7-.2-1.5-.9-8.6-5.9-3.4-21.6 6.8-17 2.3 1 1.7 1.2 2 2.3z"/><path d="m426.2 378.1c-2.9 6.1-5 8-1.1 15.7 2.5 3.6 5.9 6.4 12 7.8 9.6.1 14.6-6.3 14.6-15.8-1-2.5-1.6-4.1-3.3-6-1.2-1.4-3.6-2.8-4.3-4.2-3.4-1.1-6.5-2.8-10.8-1.6-1.5.4-3 1.2-4 2-1.8 1.3-1.3 1.9-3.1 2.1m14.1 2.7c2.5.8 2.3.7 3.3 2.9 7 3.3.2 16.1-7.3 11.7-1.6-.5-1.4-.4-2.9-1.4-.4-.3-.6-.5-1.1-.9-.8-.7-.4-.4-.8-1-9.1-6.1 3.2-18.6 8.8-11.3z"/><path d="m225.3 456.1-3.3 17.8-.2 1.1-.6 3.6 3 1.3h2.1l15.4 2.6.3-2.8.2-1.3-7.4-1.9-2.4-.4-1.7-.3-2.8-.4c-.4-2.4.2-5.3 1.2-7.3l13.2 2.3.5-3.5c-.3-1.6 0-.8-1.6-1.4-.4-.2-2-.4-2.7-.5-2.2-.3-3.8-.3-5.5-1.4l-3.1-.1c-.2-1.6-.3-1.6.1-3.3.1-.4.3-1.1.5-1.6l12 1c1.9.2 2.5 1.1 2.7-.6l.5-1.7c-.4-1.7.6-1.9-4.7-2.7l-15-2.6z"/><path d="m415 407.8-1.3 1.2c-1-.9-4.8-4.5-5.5-5.8-1.3-.8-.8-.7-2.6-1.5l-2.9 2.9c0 2.5.3 1.1 1.5 3.5 2.9 1.5 12.5 11.7 13.6 14.3 2.6 1.4 2.3 2.4 4.9 1.9 1.2-2.2 1.3-.7 2.3-3.7-2.8-2.3-6.5-5.3-7.9-8.4l7.7-6.8c1.5 1.1 1.7 1.3 2.6 2.9 3.3 2.2 3.4 5.7 7.2 4.7l2.3-2.5c-.6-1.9-5.7-6.6-7.5-8.6l-5.7-6.2c-.6-.6-.5-.5-1-1.1l-.6-.9c-2.2-.6-1.2-1.9-4.6-3.4-1 1.4-2.3 2.8-3 4.2l5.3 5.3c.5.5.5.5 1 1.1l.7.8c-1.3 2.2-4.5 5-6.5 6.1"/><path d="m116.9 392.2-2.9.9c-1.8 1.7-7.2 3.7-9.5 4.3l-3.1 1.2-3.2 1.2-4.4 2.5c.6.7 1.2 1.2 1.9 2l1.5 1.9 2.2-.4 4.7-2c.6.8.9 1 1.4 1.8 1 1.4.5.5.8 1.5 2.1 1.2 2.9 2.5 4.8 4.6l-1 1.7-1.6 4.2 4 4.3 1.4-2.3 10.4-23.7c-.3-3-.5-1.1-1.4-3.5-1.1-.6-1.3-.8-2.4-1.3zm.6 5.4c-.2 2.7-2.6 7.1-4.3 9-1.9-1.1-3.5-2.9-4.7-5.1z"/><path d="m334.4 445c-.1 5.2 0 10.4 0 15.5v11.2c.6 3.5-1 1.6 1.5 2.8l2-.8 1.7-1 .2-6.4c2.4-1.8 7.5-3.6 10.8-4.2l1 2.1 1.9 2.2.7.4 2.1-.4 3.4-1.2c-1.3-2.4-6.6-8-8.6-10.2-1.6-1.8-3.1-2.7-4.7-4.5-1.4-1.6-2.8-3-3.7-4.8l-2.6-2.6zm5 5.8c2.2 1.8 5.3 5.3 6.9 7.7l-6.7 2.3z"/><path d="m178.6 447.1-3.5 3.5c-.2 1.7-1.8 2.6-3.2 4s-2.3 2.4-3.8 3.3c-.5 1-.1.7-1.3 1.7l3.6 2.5 2.3-.3c.8-1.7 2.3-3.2 3.9-4.3 2.7 1.2 6.8 2.5 9.1 4.4l.8.9-.3 3.6.2 2.4 1.5.6 3.5 1.4c.4-3.1-.1-8 1.1-10.3-1.1-5.2.1-11.6.2-17l.2-2.3-6.1-2c-1.6 2.4-5.7 6.5-8.2 7.9m6.3 1.4c1.8-1.6.6-.7 2.6-1.5l-.7 9.7-6.5-2.5z"/><path d="m308.5 453.7c-2.6 4.8-4.1 8-2.1 14.6.7 2.5 1.6 4.2 3.2 6 2.4 2.6 3 2.1 5.5 4 7.6-.2 14.4-1.3 14.7-8.8l.4-2.4-2.7-.7-2.6.2c-.4 4.8-2.9 7.7-6.6 6.9-1.7-.4-.5.1-1.4-.6-5.9-.4-8.4-15.1-1.9-17.4 2.8-1 5.6-.7 6.7 2.2 1.5.6 0 .1 2.4.4 1.1-1.3 2.1-1.4 3.6-1.6l-1.3-3.2-1.7-1.1c-2.5-1.7-4.2-2.3-7.8-2-1.9.2-3.4.6-5 1.5-1.7 1-.6.5-2 1.3-1.5.9-.3.4-1.4.7"/><path d="m84.3 378.1c-1 3.3-2 6.8-.6 10.4 1.5 3.8 3.4 4 5.1 7l3.1.9 7.1-.5-.4-2.7-.2-1.9c-2.4-1.3-.2-.5-3.2-.5-1.4 0-1.9.2-2.7-.1-6-1.8-5.6-8-.9-12 2.9-2.5 9.5-6.2 12.3-1.2 2.8 2 2.1 5.4.5 7.6.8.8 1.1 1.1 2.1 2 1.6 1.4 1 1.6 3.2 1.1.3-2.9 1.9-3.7 1.1-8.1-.5-2.6-2-4-2.5-5.9-1.3-.7-2.3-1.4-3.2-2.6-4.6-1.8-8.1-2.6-12.8 0-2 1.1-3 1.6-4.7 3.3-1 .9-2.4 2.7-3.3 3.2"/><path d="m149.5 421.9c-1.1 2.1-3.1 4.8-4.5 6.4l-5.8 8.2c-.7.8-.5.6-1.2 1.1l-2 3.7c2.6 1.2 3.2 2.9 5.6 2.1.5-1.7-.7-.7 1.5-1.8.4-2.6 4.2-6.8 6.1-9.6 1.3-1.8 5.4-7.9 6.7-8.9l.5-1.8c-3.1-1.1-1.9-1.9-5.3-2.3z"/><path d="m378.9 430.5 5.7 9.4.8.8c.5.6.4.4 1 1.2.3.4.8 1.3 1.3 2 1 1.6 2 3 3.1 4.3l1.8-.9 2.4-1.9c-2.5-6.1-8.5-12.7-11.6-18.9l-2.7-4-3.5 2c-.7.6-.5.5-1.1 1.1z"/><path d="m250.7 468.3 3.5-.1-.3-1.8.2-1.4v-1.6l-5.5-.5.3.2-.2 4.6z"/><path d="m252.7 482.8.2-1.7v-1.3l-.1-2-5 .1-.2 4.8z"/></g></svg>