<?xml version="1.0" encoding="utf-8"?>
<!-- Generator: Adobe Illustrator 25.0.1, SVG Export Plug-In . SVG Version: 6.00 Build 0)  -->
<svg version="1.1" xmlns="http://www.w3.org/2000/svg" xmlns:xlink="http://www.w3.org/1999/xlink" x="0px" y="0px"
	 viewBox="0 0 527.2 530.2" style="enable-background:new 0 0 527.2 530.2;" xml:space="preserve">
<style type="text/css">
	.st0{clip-path:url(#SVGID_2_);}
	.st1{fill:url(#SVGID_3_);}
	.st2{opacity:0.1;}
	.st3{fill-rule:evenodd;clip-rule:evenodd;fill:#FFFFFF;}
</style>
<g id="Camada_1">
</g>
<g id="Modo_de_isolamento">
	<g>
		<defs>
			<circle id="SVGID_1_" cx="263.6" cy="266.7" r="263.6"/>
		</defs>
		<clipPath id="SVGID_2_">
			<use xlink:href="#SVGID_1_"  style="overflow:visible;"/>
		</clipPath>
		<g class="st0">
			<g>
				
					<radialGradient id="SVGID_3_" cx="263.58" cy="267.9978" r="263.58" gradientTransform="matrix(1 0 0 -1 0 534.6555)" gradientUnits="userSpaceOnUse">
					<stop  offset="0" style="stop-color:#027FC1"/>
					<stop  offset="1" style="stop-color:#0E4F9A"/>
				</radialGradient>
				<circle class="st1" cx="263.6" cy="266.7" r="263.6"/>
			</g>
			<g class="st2">
				
					<image style="overflow:visible;enable-background:new    ;" width="1213" height="633" xlink:href="BA7B7157.png"  transform="matrix(0.2386 0 0 0.2386 114.3802 -33)">
				</image>
			</g>
		</g>
	</g>
	<g>
		<path class="st3" d="M384.7,232.3c3.1,1.7,6.4,4.9,9.4,7.3c3,2.4,5.7,4.5,8.9,7l18.6,13.7c7.4,4.9,19.1,6.5,22.7-1.9
			c4.5-10.5-10.6-20.2-18.7-27.9l-33.9-30.6c-5.2-4.7-21.1-18.1-26.5-21.7c-15.9-10.3-33.8-9.7-47.3,4.5
			c-8.5,8.9-10.9,23.5-15.6,33.2c-1.9,3.9-3.5,6.4-7.4,8.5c-11.9,6.4-43.7,6.1-45.4,19.4c-2.4,18.4,39.2,10.3,50.1,9
			c-1.3,11.5-10.3,56.3-10,61.9l108.8-0.1L384.7,232.3z"/>
		<path class="st3" d="M185.2,246.7c-4.4-1.5-15.7-9.3-20.3-12.5c-1.6-1.1-4.4-3.3-6-4.1c6.8,2.4,22.8,10.8,29.7,14.7
			c8.3,4.6,22.8,10.3,34,10.4c18,0,20.9-14.1,7.7-20.5c-4.8-2.3-11.6-3.5-16.6-5.8c-15-6.8-25-18.4-34.6-31.3
			c-7-9.4-11.8-17.2-22-22.1c-11.5-5.6-25.5-5.2-36.6,0.4c-9.1,4.6-17.3,12.8-17.3,27v80.5h82.2L185.2,246.7z"/>
		<path class="st3" d="M121.7,286.9c0,16.8,0,33.6,0,50.4c0,8.5,0.7,14.8,5.4,19.8c3.9,4.2,8.7,7.9,17.1,8c8.4,0,13.3-3.8,17.1-8
			c5.2-5.6,5.5-11,5.5-19.8c0-16.8,0-33.6,0-50.4C151.6,286.9,136.3,286.9,121.7,286.9"/>
		<path class="st3" d="M265.2,227.7c3.5-8.7-1.7-9.7-5.2-11.6c-14-7.6-12.3-13.3-25.5-4c-1.6,1.2-10.9,6.4-11.4,7.7
			c-0.8,1.7-0.3,6.9,0.6,8.3c1.1,1.8,5,2.1,6.9,3c12.6,5.3,14,17.5,6.6,23.3c-3.9,3.1-9.1,3.9-15,4.1c0.7,10.8,2.3,24,4.9,34
			c2.7,10.5,5.5,20.4,17.8,20.2c7.5-0.1,9.3-2.2,11.8-7.1c4.6-9,10-40.1,9.5-46.2c-22.5-1.7-25.3-17.9-13.4-25.4
			c4.2-2.7,7.5-3.1,11.8-5.2L265.2,227.7z"/>
		<path class="st3" d="M428.2,267.5l-16.7,17c1.7,3.4,10.5,11.1,13.7,14.3c3,3,11.4,12.4,14.5,13.6l54.5-54.6
			c-2-4-22.5-22.1-27.5-28.2c-3.2,2.5-6.8,6.6-10,9.7c-1.8,1.8-9,7.9-9,10.1c0.1,3.2,1.5,3.9,0.4,8.3c-0.7,2.9-2.1,4.5-3.8,6.1
			C439.4,268.5,435.5,267.6,428.2,267.5"/>
		<path class="st3" d="M339.6,100c-40.6,6.6-29.7,65.7,9.4,59.2c14.7-2.4,27.4-16.6,24.5-34.6C371,110.1,357.1,97.2,339.6,100"/>
		<path class="st3" d="M109.5,133.7c2,15.1,16,28.1,34,25.6c15-2.1,28.1-16.1,25.5-33.9c-2.2-15.1-16.1-27.9-33.7-25.6
			C120,101.9,107.2,115.8,109.5,133.7"/>
		<path class="st3" d="M321.3,318.2c0,9-1.1,25.9,1.8,33.3c7.2,17.9,34.5,18.1,41.6-0.5c2.9-7.6,1.6-23.9,1.7-32.8H321.3z"/>
		<path class="st3" d="M366.6,431.7l2.2,11l1.4,6.5c-1.5-1.3-3.9-3.6-5.1-5.3c-1.6-2-3.8-3.7-4.7-5.7c-1.4-1-1.4-1.4-2.7-2.6l-7.3,4
			l11.6,22.7c0.8,2.8-0.2-0.4,1,1.2l2.6-0.9l1.4-1.4l-8.6-17.6c1.1,1.1,1.8,1.5,2.9,2.8l7.8,9.4c2.6,1.7,0.1,2.2,4.4,2.8l3.3-1.9
			l-4.4-20.4c1.8,2.9,7.1,12.3,7.7,15.5l1.3,2.3l2.7-1.4l1.5-0.8c0.1-0.2,0.2-0.3,0.3-0.4l-10.5-21.2l-1.9-2.5
			C371.6,428.2,367.1,429.8,366.6,431.7"/>
		<path class="st3" d="M124.1,412.3c-0.6,2.4-0.9,1.7-2.6,3.7c-1.3,1.5-1.3,2-2.8,3.2c-0.9,1.4-2.2,2.7-3.3,3.8
			c0,2.5-0.7,0.6,1.2,2.5c0.6,0.6,1.4,0.9,2.2,1.8c0.6-0.5,0.8-0.6,1.5-1.2l1.2-1.5c2.4-2.2,2.4-3.4,5-5.5c2.3,1,3.3,2.1,3.2,6
			l0,0.4l-1.1,9.9c2,2.4,2.9,3.1,5.5,4.2c-0.4-5.4,1.6-8.4,0.5-14.6c7,2.9,12.9-0.6,12-8.5c-1-1.8-2.3-3.6-4.4-5.3
			c-1.9-1.5-3.5-3.1-5.3-4.7c-2.1-1.2-2-1.8-3.7-3.3c-1.3,0.9-3.3,3.1-4.5,4.6L124.1,412.3z M137.9,414.3c2.6,0.9,1.2,0.1,2.4,2.1
			c2,3.4-2.8,6.5-3.7,4.2c-2.1-0.3-1.7-0.1-2.9-2c-2.1-0.5-2.7-1-4.2-3.9c2.1-1.1,2.9-2.7,4-4.3C135.1,411.1,137,412.6,137.9,414.3z
			"/>
		<path class="st3" d="M386.1,425.5c1,1.1,1.7,1.9,2.7,3.2c1.5,1.9,1.7,1.6,2.1,3.6c2.4,1.2,4.4,4.8,6.5,7.5l2.4,2.5
			c1.6-0.9,0.1,0.4,1.6-1.2c1.6-1.1,0.4-0.6,1.9-0.7c-0.7-3.4-3.8-5.9-5.6-8.7c-1.5-2-3.3-3.7-4.5-6.2l6.8,2.7c4.7,1.1,8.7,4,13.7,4
			c0.4-1.3-0.3-0.2,1.1-1.5c0.8-0.8,1.3-1.2,1.9-1.6c-1.8-2.5-4.3-5.5-6.3-8.1c-1.7-2.2-5.7-6.4-6.2-8.8c-2.4-1.2-1.6-0.5-2-2.5
			c-1.9-1-1.3-1-2.9-1.7c-0.9,0.9-2.3,2-3.2,3.1c3.3,4.6,7.7,8.8,10.6,13.8c-4.2-1.1-8.7-3.1-12.8-4.5c-6.6-2.4-6.4-3.7-10.9,0.8
			C384,422.4,385.2,423.8,386.1,425.5"/>
		<path class="st3" d="M146.9,443.4l-1.5,2.6c0.8,3.9-0.5,0.1,2.1,3.6c2.3,0.3,5.5,2.1,7,4c2.7,0.2,5.7,1.8,9.3,0.8
			c2.4-0.7,4.8-2.8,5.8-4.1c3-3.9,5.3-9.1,4.1-15.6c-0.5-0.6-1.5-2.3-2.8-3.5c-1.5-1.4-2.4-1.8-3.9-2.7c-2.8-1.6-6-4-9.2-4.5
			c-0.2,2.2-1.2,3.2-2.4,5.3c-1.1,1.9-2,3.5-2.9,5C150.9,437,148.6,442.2,146.9,443.4 M158.3,449c-2.3-0.2-1.4,0.3-2.6-1.3
			c-2.3-0.2-1,0-3.3-1.2c0.7-2.7,6.7-12.8,9.1-15.8l1.9,1.5c2.5,0.9,1.5,0.2,3.4,1.9C172.7,438.9,162.3,453.7,158.3,449z"/>
		<path class="st3" d="M200,450.3c0.3,2.6-1.2,6-2,8.8c-0.4,1.4-0.7,2.8-1.1,4.1c-0.6,2-0.5,2.5-1.6,3.8l-0.6,3.4
			c1.2,2.3,0,0.7,1.7,1.7c0,0,2,0.7,2,0.7c1.9,0.5,2.6,0.6,4.2,1.3c7.4,1.4,11.4,1.8,15.3-3.7c4-5.8,3.1-10.5,2.2-17.1
			c-3.5-2.3-2.7-3.4-8.3-5c-2.8-0.8-7-2.3-9.7-2.6l-1.8,4.2C200.3,449.7,200.2,450.1,200,450.3 M209,470.4c-2.3,0-4.4-0.2-5.8-1.6
			l-1.8-0.4l4.8-17c1.4,0.3,2.9,0.6,4.1,1.1c1.5,0.5,2,0.5,2.4,1.4c2.4,1.3,2.2,0.8,2.9,4c-0.1,2.9-0.7,5.5-1.6,7.9
			C212.7,468.9,212.5,469.6,209,470.4z"/>
		<path class="st3" d="M268.3,463.8c-1.3,7.1-1,12.5,4.2,17.4l1.1,1.1c4.6,1.4,4.5,1.8,10.3,1.4c10.7-3.4,11.7-9.7,9-21.2l-1.3-2.9
			c-3.8-2.3-7.1-5.1-14.2-3.7C272.5,456.9,270.1,459.8,268.3,463.8 M286.2,463.2c1.7,1.3,1.3,0.7,1.9,3.4c2,6.2-0.5,11.4-6.4,12.5
			c-1.3,0-1.4,0.1-2.8-0.3c-3.1-1-0.7-0.2-1.5-0.9c-8.6-5.9-3.4-21.6,6.8-17C286.5,461.9,285.9,462.1,286.2,463.2z"/>
		<path class="st3" d="M426.2,378.1c-2.9,6.1-5,8-1.1,15.7c2.5,3.6,5.9,6.4,12,7.8c9.6,0.1,14.6-6.3,14.6-15.8c-1-2.5-1.6-4.1-3.3-6
			c-1.2-1.4-3.6-2.8-4.3-4.2c-3.4-1.1-6.5-2.8-10.8-1.6c-1.5,0.4-3,1.2-4,2C427.5,377.3,428,377.9,426.2,378.1 M440.3,380.8
			c2.5,0.8,2.3,0.7,3.3,2.9c7,3.3,0.2,16.1-7.3,11.7c-1.6-0.5-1.4-0.4-2.9-1.4c-0.4-0.3-0.6-0.5-1.1-0.9c-0.8-0.7-0.4-0.4-0.8-1
			C422.4,386,434.7,373.5,440.3,380.8z"/>
		<path class="st3" d="M225.3,456.1l-3.3,17.8l-0.2,1.1l-0.6,3.6l3,1.3l2.1,0l15.4,2.6l0.3-2.8l0.2-1.3l-7.4-1.9l-2.4-0.4l-1.7-0.3
			l-2.8-0.4c-0.4-2.4,0.2-5.3,1.2-7.3l13.2,2.3l0.5-3.5c-0.3-1.6,0-0.8-1.6-1.4c-0.4-0.2-2-0.4-2.7-0.5c-2.2-0.3-3.8-0.3-5.5-1.4
			l-3.1-0.1c-0.2-1.6-0.3-1.6,0.1-3.3c0.1-0.4,0.3-1.1,0.5-1.6l12,1c1.9,0.2,2.5,1.1,2.7-0.6l0.5-1.7c-0.4-1.7,0.6-1.9-4.7-2.7
			L226,452L225.3,456.1z"/>
		<path class="st3" d="M415,407.8l-1.3,1.2c-1-0.9-4.8-4.5-5.5-5.8c-1.3-0.8-0.8-0.7-2.6-1.5l-2.9,2.9c0,2.5,0.3,1.1,1.5,3.5
			c2.9,1.5,12.5,11.7,13.6,14.3c2.6,1.4,2.3,2.4,4.9,1.9c1.2-2.2,1.3-0.7,2.3-3.7c-2.8-2.3-6.5-5.3-7.9-8.4l7.7-6.8
			c1.5,1.1,1.7,1.3,2.6,2.9c3.3,2.2,3.4,5.7,7.2,4.7l2.3-2.5c-0.6-1.9-5.7-6.6-7.5-8.6l-5.7-6.2c-0.6-0.6-0.5-0.5-1-1.1l-0.6-0.9
			c-2.2-0.6-1.2-1.9-4.6-3.4c-1,1.4-2.3,2.8-3,4.2l5.3,5.3c0.5,0.5,0.5,0.5,1,1.1l0.7,0.8C420.2,403.9,417,406.7,415,407.8"/>
		<path class="st3" d="M116.9,392.2l-2.9,0.9c-1.8,1.7-7.2,3.7-9.5,4.3l-3.1,1.2l-3.2,1.2l-4.4,2.5c0.6,0.7,1.2,1.2,1.9,2l1.5,1.9
			l2.2-0.4l4.7-2c0.6,0.8,0.9,1,1.4,1.8c1,1.4,0.5,0.5,0.8,1.5c2.1,1.2,2.9,2.5,4.8,4.6l-1,1.7l-1.6,4.2l4,4.3l1.4-2.3l10.4-23.7
			c-0.3-3-0.5-1.1-1.4-3.5c-1.1-0.6-1.3-0.8-2.4-1.3L116.9,392.2z M117.5,397.6c-0.2,2.7-2.6,7.1-4.3,9c-1.9-1.1-3.5-2.9-4.7-5.1
			L117.5,397.6z"/>
		<path class="st3" d="M334.4,445c-0.1,5.2,0,10.4,0,15.5l0,11.2c0.6,3.5-1,1.6,1.5,2.8l2-0.8l1.7-1l0.2-6.4
			c2.4-1.8,7.5-3.6,10.8-4.2l1,2.1l1.9,2.2l0.7,0.4l2.1-0.4l3.4-1.2c-1.3-2.4-6.6-8-8.6-10.2c-1.6-1.8-3.1-2.7-4.7-4.5
			c-1.4-1.6-2.8-3-3.7-4.8l-2.6-2.6L334.4,445z M339.4,450.8c2.2,1.8,5.3,5.3,6.9,7.7l-6.7,2.3L339.4,450.8z"/>
		<path class="st3" d="M178.6,447.1l-3.5,3.5c-0.2,1.7-1.8,2.6-3.2,4c-1.4,1.4-2.3,2.4-3.8,3.3c-0.5,1-0.1,0.7-1.3,1.7l3.6,2.5
			l2.3-0.3c0.8-1.7,2.3-3.2,3.9-4.3c2.7,1.2,6.8,2.5,9.1,4.4l0.8,0.9l-0.3,3.6l0.2,2.4l1.5,0.6l3.5,1.4c0.4-3.1-0.1-8,1.1-10.3
			c-1.1-5.2,0.1-11.6,0.2-17l0.2-2.3l-6.1-2C185.2,441.6,181.1,445.7,178.6,447.1 M184.9,448.5c1.8-1.6,0.6-0.7,2.6-1.5l-0.7,9.7
			l-6.5-2.5L184.9,448.5z"/>
		<path class="st3" d="M308.5,453.7c-2.6,4.8-4.1,8-2.1,14.6c0.7,2.5,1.6,4.2,3.2,6c2.4,2.6,3,2.1,5.5,4c7.6-0.2,14.4-1.3,14.7-8.8
			l0.4-2.4l-2.7-0.7l-2.6,0.2c-0.4,4.8-2.9,7.7-6.6,6.9c-1.7-0.4-0.5,0.1-1.4-0.6c-5.9-0.4-8.4-15.1-1.9-17.4c2.8-1,5.6-0.7,6.7,2.2
			c1.5,0.6,0,0.1,2.4,0.4c1.1-1.3,2.1-1.4,3.6-1.6l-1.3-3.2l-1.7-1.1c-2.5-1.7-4.2-2.3-7.8-2c-1.9,0.2-3.4,0.6-5,1.5
			c-1.7,1-0.6,0.5-2,1.3C308.4,453.9,309.6,453.4,308.5,453.7"/>
		<path class="st3" d="M84.3,378.1c-1,3.3-2,6.8-0.6,10.4c1.5,3.8,3.4,4,5.1,7l3.1,0.9l7.1-0.5l-0.4-2.7l-0.2-1.9
			c-2.4-1.3-0.2-0.5-3.2-0.5c-1.4,0-1.9,0.2-2.7-0.1c-6-1.8-5.6-8-0.9-12c2.9-2.5,9.5-6.2,12.3-1.2c2.8,2,2.1,5.4,0.5,7.6
			c0.8,0.8,1.1,1.1,2.1,2c1.6,1.4,1,1.6,3.2,1.1c0.3-2.9,1.9-3.7,1.1-8.1c-0.5-2.6-2-4-2.5-5.9c-1.3-0.7-2.3-1.4-3.2-2.6
			c-4.6-1.8-8.1-2.6-12.8,0c-2,1.1-3,1.6-4.7,3.3C86.6,375.8,85.2,377.6,84.3,378.1"/>
		<path class="st3" d="M149.5,421.9c-1.1,2.1-3.1,4.8-4.5,6.4l-5.8,8.2c-0.7,0.8-0.5,0.6-1.2,1.1l-2,3.7c2.6,1.2,3.2,2.9,5.6,2.1
			c0.5-1.7-0.7-0.7,1.5-1.8c0.4-2.6,4.2-6.8,6.1-9.6c1.3-1.8,5.4-7.9,6.7-8.9l0.5-1.8c-3.1-1.1-1.9-1.9-5.3-2.3L149.5,421.9z"/>
		<path class="st3" d="M378.9,430.5l5.7,9.4l0.8,0.8c0.5,0.6,0.4,0.4,1,1.2c0.3,0.4,0.8,1.3,1.3,2c1,1.6,2,3,3.1,4.3l1.8-0.9
			l2.4-1.9c-2.5-6.1-8.5-12.7-11.6-18.9l-2.7-4l-3.5,2c-0.7,0.6-0.5,0.5-1.1,1.1L378.9,430.5z"/>
		<polygon class="st3" points="250.7,468.3 254.2,468.2 253.9,466.4 254.1,465 254.1,463.4 248.6,462.9 248.9,463.1 248.7,467.7 		
			"/>
		<polygon class="st3" points="252.7,482.8 252.9,481.1 252.9,479.8 252.8,477.8 247.8,477.9 247.6,482.7 		"/>
	</g>
</g>
</svg>
