<svg xmlns="http://www.w3.org/2000/svg" id="Camada_x0020_1" width="30" height="29.977" viewBox="0 0 30 29.977">
    <defs>
        <style>
            .cls-1,.cls-2{fill:#0a7cb7}.cls-1{fill-rule:evenodd}
        </style>
    </defs>
    <path id="Caminho_27" d="M1.524 6.99h26.223A2.264 2.264 0 0 1 30 9.248v21.521a2.262 2.262 0 0 1-2.253 2.253H2.258A2.264 2.264 0 0 1 0 30.769V8.514A1.529 1.529 0 0 1 1.524 6.99zm26.218 2.264H2.264v21.5h25.478z" class="cls-1" transform="translate(0 -3.044)"/>
    <path id="Caminho_28" d="M7.959 20.3h2.732a.564.564 0 0 1 .559.559v2.732a.56.56 0 0 1-.559.559H7.959a.56.56 0 0 1-.559-.559v-2.732a.564.564 0 0 1 .559-.559z" class="cls-1" transform="translate(-3.222 -8.84)"/>
    <path id="Caminho_29" d="M18.419 20.3h2.732a.56.56 0 0 1 .559.559v2.732a.557.557 0 0 1-.559.559h-2.732a.56.56 0 0 1-.559-.559v-2.732a.564.564 0 0 1 .559-.559z" class="cls-1" transform="translate(-7.777 -8.84)"/>
    <path id="Caminho_30" d="M28.879 20.3h2.732a.56.56 0 0 1 .559.559v2.732a.557.557 0 0 1-.559.559h-2.732a.56.56 0 0 1-.559-.559v-2.732a.564.564 0 0 1 .559-.559z" class="cls-1" transform="translate(-12.332 -8.84)"/>
    <path id="Caminho_31" d="M39.339 20.3h2.732a.56.56 0 0 1 .559.559v2.732a.557.557 0 0 1-.559.559h-2.732a.56.56 0 0 1-.559-.559v-2.732a.564.564 0 0 1 .559-.559z" class="cls-1" transform="translate(-16.887 -8.84)"/>
    <path id="Caminho_32" d="M7.959 30.07h2.732a.564.564 0 0 1 .559.559v2.732a.56.56 0 0 1-.559.559H7.959a.56.56 0 0 1-.559-.559v-2.732a.564.564 0 0 1 .559-.559z" class="cls-1" transform="translate(-3.222 -13.094)"/>
    <path id="Caminho_33" d="M18.419 30.07h2.732a.56.56 0 0 1 .559.559v2.732a.557.557 0 0 1-.559.559h-2.732a.56.56 0 0 1-.559-.559v-2.732a.564.564 0 0 1 .559-.559z" class="cls-1" transform="translate(-7.777 -13.094)"/>
    <path id="Caminho_34" d="M28.879 30.07h2.732a.56.56 0 0 1 .559.559v2.732a.557.557 0 0 1-.559.559h-2.732a.56.56 0 0 1-.559-.559v-2.732a.564.564 0 0 1 .559-.559z" class="cls-1" transform="translate(-12.332 -13.094)"/>
    <path id="Caminho_35" d="M39.339 30.07h2.732a.56.56 0 0 1 .559.559v2.732a.557.557 0 0 1-.559.559h-2.732a.56.56 0 0 1-.559-.559v-2.732a.564.564 0 0 1 .559-.559z" class="cls-1" transform="translate(-16.887 -13.094)"/>
    <path id="Caminho_36" d="M7.959 39.62h2.732a.559.559 0 0 1 .559.553v2.738a.559.559 0 0 1-.559.553H7.959a.559.559 0 0 1-.559-.553v-2.738a.559.559 0 0 1 .559-.553z" class="cls-1" transform="translate(-3.222 -17.253)"/>
    <path id="Caminho_37" d="M18.419 39.62h2.732a.555.555 0 0 1 .559.553v2.738a.555.555 0 0 1-.559.553h-2.732a.559.559 0 0 1-.559-.553v-2.738a.559.559 0 0 1 .559-.553z" class="cls-1" transform="translate(-7.777 -17.253)"/>
    <path id="Caminho_38" d="M28.879 39.62h2.732a.555.555 0 0 1 .559.553v2.738a.555.555 0 0 1-.559.553h-2.732a.559.559 0 0 1-.559-.553v-2.738a.559.559 0 0 1 .559-.553z" class="cls-1" transform="translate(-12.332 -17.253)"/>
    <path id="Caminho_39" d="M11.158 8.327a1.129 1.129 0 0 1-2.258 0v-7.2a1.129 1.129 0 0 1 2.258 0z" class="cls-2" transform="translate(-3.876)"/>
    <path id="Caminho_40" d="M42.274 8.327a1.132 1.132 0 0 1-2.264 0v-7.2a1.132 1.132 0 0 1 2.264 0z" class="cls-2" transform="translate(-17.422)"/>
</svg>
