<?xml version="1.0" encoding="utf-8"?>
<!-- Generator: Adobe Illustrator 25.0.1, SVG Export Plug-In . SVG Version: 6.00 Build 0)  -->
<svg version="1.1" id="Componente_72_9" xmlns="http://www.w3.org/2000/svg" xmlns:xlink="http://www.w3.org/1999/xlink" x="0px"
	 y="0px" viewBox="0 0 30 31.5" style="enable-background:new 0 0 30 31.5;" xml:space="preserve">
<style type="text/css">
	.st0{fill-rule:evenodd;clip-rule:evenodd;fill:#0A7CB7;}
	.st1{fill:#0A7CB7;}
</style>
<g id="Camada_x0020_1">
	<path id="Caminho_59" class="st0" d="M16.3,19.3c0-0.6,0.5-1.1,1.2-1.1c0.6,0,1.1,0.5,1.1,1.1v7.4c0,0.6-0.5,1.1-1.1,1.1L1.3,30.1
		c-0.6,0.1-1.2-0.3-1.3-1C0,29,0,29,0,28.9h0V1.1C0,0.5,0.5,0,1.1,0c0.1,0,0.2,0,0.2,0l16.2,2.2c0.6,0.1,1,0.6,1,1.1h0v7.4
		c0,0.6-0.5,1.2-1.1,1.2s-1.2-0.5-1.2-1.1c0,0,0,0,0-0.1V4.3l-14-1.9v25.2l14-1.9C16.3,25.7,16.3,19.3,16.3,19.3z"/>
	<path id="Caminho_60" class="st1" d="M13.8,16.2c-0.6,0-1.2-0.5-1.2-1.1s0.5-1.2,1.1-1.2c0,0,0,0,0.1,0h15c0.6,0,1.2,0.5,1.2,1.1
		c0,0.6-0.5,1.2-1.1,1.2c0,0,0,0-0.1,0H13.8z"/>
	<path id="Caminho_61" class="st1" d="M21.7,9.5c-0.4-0.5-0.4-1.2,0-1.6c0.4-0.4,1.1-0.4,1.6,0l6.3,6.3c0.4,0.4,0.4,1.2,0,1.6
		l-6.3,6.3c-0.4,0.5-1.1,0.5-1.6,0.1s-0.5-1.1-0.1-1.6c0,0,0.1-0.1,0.1-0.1l5.5-5.5L21.7,9.5z"/>
</g>
</svg>
